%TF.GenerationSoftware,KiCad,Pcbnew,7.0.8*%
%TF.CreationDate,2023-10-30T18:51:19+00:00*%
%TF.ProjectId,Interface 1 Recreated,496e7465-7266-4616-9365-203120526563,rev?*%
%TF.SameCoordinates,Original*%
%TF.FileFunction,Copper,L1,Top*%
%TF.FilePolarity,Positive*%
%FSLAX46Y46*%
G04 Gerber Fmt 4.6, Leading zero omitted, Abs format (unit mm)*
G04 Created by KiCad (PCBNEW 7.0.8) date 2023-10-30 18:51:19*
%MOMM*%
%LPD*%
G01*
G04 APERTURE LIST*
%TA.AperFunction,ComponentPad*%
%ADD10C,1.600000*%
%TD*%
%TA.AperFunction,ComponentPad*%
%ADD11O,1.600000X1.600000*%
%TD*%
%TA.AperFunction,ComponentPad*%
%ADD12C,1.727200*%
%TD*%
%TA.AperFunction,ComponentPad*%
%ADD13R,1.150000X1.150000*%
%TD*%
%TA.AperFunction,ComponentPad*%
%ADD14C,1.150000*%
%TD*%
%TA.AperFunction,ComponentPad*%
%ADD15R,1.500000X1.500000*%
%TD*%
%TA.AperFunction,ComponentPad*%
%ADD16C,1.500000*%
%TD*%
%TA.AperFunction,ComponentPad*%
%ADD17R,1.600000X1.600000*%
%TD*%
%TA.AperFunction,ComponentPad*%
%ADD18R,4.300000X3.500000*%
%TD*%
%TA.AperFunction,SMDPad,CuDef*%
%ADD19R,7.620000X1.524000*%
%TD*%
%TA.AperFunction,ComponentPad*%
%ADD20C,2.200000*%
%TD*%
%TA.AperFunction,ComponentPad*%
%ADD21O,2.200000X2.200000*%
%TD*%
%TA.AperFunction,ComponentPad*%
%ADD22C,4.000000*%
%TD*%
%TA.AperFunction,SMDPad,CuDef*%
%ADD23R,1.524000X7.620000*%
%TD*%
%TA.AperFunction,ViaPad*%
%ADD24C,0.800000*%
%TD*%
%TA.AperFunction,Conductor*%
%ADD25C,1.000000*%
%TD*%
%TA.AperFunction,Conductor*%
%ADD26C,0.200000*%
%TD*%
%TA.AperFunction,Conductor*%
%ADD27C,0.250000*%
%TD*%
%TA.AperFunction,Conductor*%
%ADD28C,2.000000*%
%TD*%
G04 APERTURE END LIST*
D10*
%TO.P,R33,1*%
%TO.N,GND*%
X157076775Y-107997625D03*
D11*
%TO.P,R33,2*%
%TO.N,WRPROT_32*%
X157076775Y-120697625D03*
%TD*%
D10*
%TO.P,R18,1*%
%TO.N,Net-(Q5-C)*%
X106749850Y-107867450D03*
D11*
%TO.P,R18,2*%
%TO.N,Net-(C7-Pad1)*%
X106749850Y-120567450D03*
%TD*%
D12*
%TO.P,SK5,A1,A15*%
%TO.N,A15*%
X166074725Y-68808600D03*
%TO.P,SK5,A2,A13*%
%TO.N,A13*%
X168614725Y-68808600D03*
%TO.P,SK5,A3,D7*%
%TO.N,D7*%
X171154725Y-68808600D03*
%TO.P,SK5,A4,NCA4*%
%TO.N,NCA4*%
X173694725Y-68808600D03*
%TO.P,SK5,A6,D0*%
%TO.N,D0*%
X178774725Y-68808600D03*
%TO.P,SK5,A7,D1*%
%TO.N,D1*%
X181314725Y-68808600D03*
%TO.P,SK5,A8,D2*%
%TO.N,D2*%
X183854725Y-68808600D03*
%TO.P,SK5,A9,D6*%
%TO.N,D6*%
X186394725Y-68808600D03*
%TO.P,SK5,A10,D5*%
%TO.N,D5*%
X188934725Y-68808600D03*
%TO.P,SK5,A11,D3*%
%TO.N,D3*%
X191474725Y-68808600D03*
%TO.P,SK5,A12,D4*%
%TO.N,D4*%
X194014725Y-68808600D03*
%TO.P,SK5,A13,~{INT}*%
%TO.N,~{INT}*%
X196554725Y-68808600D03*
%TO.P,SK5,A14,~{NMI}*%
%TO.N,~{NMI}*%
X199094725Y-68808600D03*
%TO.P,SK5,A15,~{HALT}*%
%TO.N,~{HALT}*%
X201634725Y-68808600D03*
%TO.P,SK5,A16,~{MREQ}*%
%TO.N,~{MREQ}*%
X204174725Y-68808600D03*
%TO.P,SK5,A17,~{IORQ}*%
%TO.N,~{IORQ}*%
X206714725Y-68808600D03*
%TO.P,SK5,A18,~{RD}*%
%TO.N,~{RD}*%
X209254725Y-68808600D03*
%TO.P,SK5,A19,~{WR}*%
%TO.N,~{WR}*%
X211794725Y-68808600D03*
%TO.P,SK5,A20,-5V*%
%TO.N,-5V*%
X214334725Y-68808600D03*
%TO.P,SK5,A21,~{WAIT}*%
%TO.N,~{WAIT}*%
X216874725Y-68808600D03*
%TO.P,SK5,A22,+12V*%
%TO.N,+12V*%
X219414725Y-68808600D03*
%TO.P,SK5,A23,+12VAC*%
%TO.N,+12VAC*%
X221954725Y-68808600D03*
%TO.P,SK5,A24,~{M1}*%
%TO.N,~{M1}*%
X224494725Y-68808600D03*
%TO.P,SK5,A25,~{RFSH}*%
%TO.N,~{RFSH}*%
X227034725Y-68808600D03*
%TO.P,SK5,A26,A8*%
%TO.N,A8*%
X229574725Y-68808600D03*
%TO.P,SK5,A27,A10*%
%TO.N,A10*%
X232114725Y-68808600D03*
%TO.P,SK5,A28,NCA28*%
%TO.N,NCA28*%
X234654725Y-68808600D03*
%TO.P,SK5,B1,A14*%
%TO.N,A14*%
X166074725Y-73888600D03*
%TO.P,SK5,B2,A12*%
%TO.N,A12*%
X168614725Y-73888600D03*
%TO.P,SK5,B3,+5v*%
%TO.N,+5V*%
X171154725Y-73888600D03*
%TO.P,SK5,B4,+9V*%
%TO.N,+9V*%
X173694725Y-73888600D03*
%TO.P,SK5,B6,GND*%
%TO.N,GND*%
X178774725Y-73888600D03*
%TO.P,SK5,B7,GND*%
X181314725Y-73888600D03*
%TO.P,SK5,B8,CLK*%
%TO.N,CLK*%
X183854725Y-73888600D03*
%TO.P,SK5,B9,A0*%
%TO.N,A0*%
X186394725Y-73888600D03*
%TO.P,SK5,B10,A1*%
%TO.N,A1*%
X188934725Y-73888600D03*
%TO.P,SK5,B11,A2*%
%TO.N,A2*%
X191474725Y-73888600D03*
%TO.P,SK5,B12,A3*%
%TO.N,A3*%
X194014725Y-73888600D03*
%TO.P,SK5,B13,~{IORQGE}*%
%TO.N,~{IORQGE}*%
X196554725Y-73888600D03*
%TO.P,SK5,B14,GND*%
%TO.N,GND*%
X199094725Y-73888600D03*
%TO.P,SK5,B15,VIDEO*%
%TO.N,VIDEO*%
X201634725Y-73888600D03*
%TO.P,SK5,B16,Y*%
%TO.N,Y*%
X204174725Y-73888600D03*
%TO.P,SK5,B17,V*%
%TO.N,V*%
X206714725Y-73888600D03*
%TO.P,SK5,B18,U*%
%TO.N,U*%
X209254725Y-73888600D03*
%TO.P,SK5,B19,~{BUSRQ}*%
%TO.N,~{BUSRQ}*%
X211794725Y-73888600D03*
%TO.P,SK5,B20,~{RESET}*%
%TO.N,~{RESET}*%
X214334725Y-73888600D03*
%TO.P,SK5,B21,A7*%
%TO.N,A7*%
X216874725Y-73888600D03*
%TO.P,SK5,B22,A6*%
%TO.N,A6*%
X219414725Y-73888600D03*
%TO.P,SK5,B23,A5*%
%TO.N,A5*%
X221954725Y-73888600D03*
%TO.P,SK5,B24,A4*%
%TO.N,A4*%
X224494725Y-73888600D03*
%TO.P,SK5,B25,~{ROMCS}*%
%TO.N,~{ROMCS}*%
X227034725Y-73888600D03*
%TO.P,SK5,B26,~{BUSACK}*%
%TO.N,~{BUSACK}*%
X229574725Y-73888600D03*
%TO.P,SK5,B27,A9*%
%TO.N,A9*%
X232114725Y-73888600D03*
%TO.P,SK5,B28,A11*%
%TO.N,A11*%
X234654725Y-73888600D03*
%TD*%
D10*
%TO.P,R7,1*%
%TO.N,Net-(Q2-C)*%
X172319950Y-120681750D03*
D11*
%TO.P,R7,2*%
%TO.N,Net-(R21-Pad2)*%
X172319950Y-107981750D03*
%TD*%
D13*
%TO.P,D8,1,K*%
%TO.N,NET36*%
X94138750Y-85832950D03*
D14*
%TO.P,D8,2,A*%
%TO.N,GND*%
X94138750Y-98532950D03*
%TD*%
D10*
%TO.P,R28,1*%
%TO.N,Net-(R25-Pad2)*%
X72031225Y-107803950D03*
D11*
%TO.P,R28,2*%
%TO.N,GND*%
X72031225Y-120503950D03*
%TD*%
D10*
%TO.P,R14,1*%
%TO.N,+12V*%
X104193975Y-107911900D03*
D11*
%TO.P,R14,2*%
%TO.N,Net-(Q5-B)*%
X104193975Y-120611900D03*
%TD*%
D15*
%TO.P,Q5,1,C*%
%TO.N,Net-(Q5-C)*%
X111163100Y-98532950D03*
D16*
%TO.P,Q5,2,B*%
%TO.N,Net-(Q5-B)*%
X111163100Y-95992950D03*
%TO.P,Q5,3,E*%
%TO.N,+12V*%
X111163100Y-93452950D03*
%TD*%
D10*
%TO.P,C3,1*%
%TO.N,Net-(C3-Pad1)*%
X260346825Y-116544725D03*
D11*
%TO.P,C3,2*%
%TO.N,GND*%
X260346825Y-103844725D03*
%TD*%
D10*
%TO.P,R22,1*%
%TO.N,GND*%
X99056825Y-98463100D03*
D11*
%TO.P,R22,2*%
%TO.N,Net-(R22-Pad2)*%
X99056825Y-85763100D03*
%TD*%
D10*
%TO.P,C5,1*%
%TO.N,+5V*%
X236254925Y-120818275D03*
D11*
%TO.P,C5,2*%
%TO.N,GND*%
X236254925Y-108318275D03*
%TD*%
D13*
%TO.P,D3,1,K*%
%TO.N,Net-(D3-K)*%
X238747300Y-108178600D03*
D14*
%TO.P,D3,2,A*%
%TO.N,Net-(D3-A)*%
X238747300Y-120878600D03*
%TD*%
D15*
%TO.P,Q9,1,C*%
%TO.N,Net-(Q9-C)*%
X122574050Y-90995500D03*
D16*
%TO.P,Q9,2,B*%
%TO.N,ERASE_35*%
X122574050Y-88455500D03*
%TO.P,Q9,3,E*%
%TO.N,Net-(D11-A)*%
X122574050Y-85915500D03*
%TD*%
D10*
%TO.P,R32,1*%
%TO.N,Net-(U1-~{ROM_EN})*%
X154009725Y-103625650D03*
D11*
%TO.P,R32,2*%
%TO.N,Net-(D10-K)*%
X154009725Y-90925650D03*
%TD*%
D10*
%TO.P,R3,1*%
%TO.N,+5V*%
X164719000Y-108061125D03*
D11*
%TO.P,R3,2*%
%TO.N,Net-(Q1-B)*%
X164719000Y-120761125D03*
%TD*%
D13*
%TO.P,D10,1,K*%
%TO.N,Net-(D10-K)*%
X161617025Y-90925650D03*
D14*
%TO.P,D10,2,A*%
%TO.N,Net-(D10-A)*%
X161617025Y-103625650D03*
%TD*%
D10*
%TO.P,R15,1*%
%TO.N,Net-(Q5-B)*%
X101660325Y-107826175D03*
D11*
%TO.P,R15,2*%
%TO.N,Net-(Q6-C)*%
X101660325Y-120526175D03*
%TD*%
D17*
%TO.P,U1,1,DTR*%
%TO.N,DTR_1*%
X229492175Y-105746550D03*
D11*
%TO.P,U1,2,~{RESET}*%
%TO.N,~{RESET}*%
X226952175Y-105746550D03*
%TO.P,U1,3,DECODE*%
%TO.N,Net-(D3-A)*%
X224412175Y-105746550D03*
%TO.P,U1,4,TX_DATA*%
%TO.N,TXDATA_4*%
X221872175Y-105746550D03*
%TO.P,U1,5,CLOCK*%
%TO.N,Net-(U1-CLOCK)*%
X219332175Y-105746550D03*
%TO.P,U1,6,~{ROMCS}*%
%TO.N,~{ROMCS}*%
X216792175Y-105746550D03*
%TO.P,U1,7,~{ROM_EN}*%
%TO.N,Net-(U1-~{ROM_EN})*%
X214252175Y-105746550D03*
%TO.P,U1,8,~{WR}*%
%TO.N,~{WR}*%
X211712175Y-105746550D03*
%TO.P,U1,9,~{RD}*%
%TO.N,~{RD}*%
X209172175Y-105746550D03*
%TO.P,U1,10,~{IORQ}*%
%TO.N,~{IORQ}*%
X206632175Y-105746550D03*
%TO.P,U1,11,~{MREQ}*%
%TO.N,~{MREQ}*%
X204092175Y-105746550D03*
%TO.P,U1,12,A3*%
%TO.N,A3*%
X201552175Y-105746550D03*
%TO.P,U1,13,A4*%
%TO.N,A4*%
X199012175Y-105746550D03*
%TO.P,U1,14,A8*%
%TO.N,A8*%
X196472175Y-105746550D03*
%TO.P,U1,15,A9*%
%TO.N,A9*%
X193932175Y-105746550D03*
%TO.P,U1,16,A10*%
%TO.N,A10*%
X191392175Y-105746550D03*
%TO.P,U1,17,A12*%
%TO.N,A12*%
X188852175Y-105746550D03*
%TO.P,U1,18,A14*%
%TO.N,A14*%
X186312175Y-105746550D03*
%TO.P,U1,19,A15*%
%TO.N,A15*%
X183772175Y-105746550D03*
%TO.P,U1,20,GND*%
%TO.N,GND*%
X181232175Y-105746550D03*
%TO.P,U1,21,D7*%
%TO.N,D7*%
X181232175Y-120986550D03*
%TO.P,U1,22,D6*%
%TO.N,D6*%
X183772175Y-120986550D03*
%TO.P,U1,23,D5*%
%TO.N,D5*%
X186312175Y-120986550D03*
%TO.P,U1,24,D4*%
%TO.N,D4*%
X188852175Y-120986550D03*
%TO.P,U1,25,D3*%
%TO.N,D3*%
X191392175Y-120986550D03*
%TO.P,U1,26,D2*%
%TO.N,D2*%
X193932175Y-120986550D03*
%TO.P,U1,27,D1*%
%TO.N,D1*%
X196472175Y-120986550D03*
%TO.P,U1,28,D0*%
%TO.N,D0*%
X199012175Y-120986550D03*
%TO.P,U1,29,R/~{W}*%
%TO.N,R{slash}W_29*%
X201552175Y-120986550D03*
%TO.P,U1,30,COMMS_OUT*%
%TO.N,COMMSOUT_30*%
X204092175Y-120986550D03*
%TO.P,U1,31,COMMS_CLK*%
%TO.N,COMMSCLK_31*%
X206632175Y-120986550D03*
%TO.P,U1,32,WR_PROT*%
%TO.N,WRPROT_32*%
X209172175Y-120986550D03*
%TO.P,U1,33,RX_DATA*%
%TO.N,RXDATA_33*%
X211712175Y-120986550D03*
%TO.P,U1,34,CTS*%
%TO.N,CTS_34*%
X214252175Y-120986550D03*
%TO.P,U1,35,ERASE*%
%TO.N,ERASE_35*%
X216792175Y-120986550D03*
%TO.P,U1,36,NET*%
%TO.N,NET36*%
X219332175Y-120986550D03*
%TO.P,U1,37,DATA_1*%
%TO.N,DATA1_37*%
X221872175Y-120986550D03*
%TO.P,U1,38,DATA_2*%
%TO.N,DATA2_38*%
X224412175Y-120986550D03*
%TO.P,U1,39,~{WAIT}*%
%TO.N,~{WAIT}*%
X226952175Y-120986550D03*
%TO.P,U1,40,+5v*%
%TO.N,+5V*%
X229492175Y-120986550D03*
%TD*%
D10*
%TO.P,R10,1*%
%TO.N,GND*%
X129463800Y-120551575D03*
D11*
%TO.P,R10,2*%
%TO.N,Net-(Q3-B)*%
X129463800Y-107851575D03*
%TD*%
D10*
%TO.P,R13,1*%
%TO.N,Net-(Q4-C)*%
X119351425Y-107889675D03*
D11*
%TO.P,R13,2*%
%TO.N,Net-(C8-Pad1)*%
X119351425Y-120589675D03*
%TD*%
D10*
%TO.P,C8,1*%
%TO.N,Net-(C8-Pad1)*%
X96678750Y-120529350D03*
D11*
%TO.P,C8,2*%
%TO.N,-12V*%
X96678750Y-107829350D03*
%TD*%
D10*
%TO.P,R12,1*%
%TO.N,Net-(Q4-B)*%
X124377450Y-120615075D03*
D11*
%TO.P,R12,2*%
%TO.N,Net-(Q3-C)*%
X124377450Y-107915075D03*
%TD*%
D17*
%TO.P,U4,1*%
%TO.N,Net-(C4-Pad2)*%
X229231825Y-94345125D03*
D11*
%TO.P,U4,2*%
%TO.N,Net-(C3-Pad1)*%
X226691825Y-94345125D03*
%TO.P,U4,3*%
X224151825Y-94345125D03*
%TO.P,U4,4*%
%TO.N,Net-(U4-Pad4)*%
X221611825Y-94345125D03*
%TO.P,U4,5*%
X219071825Y-94345125D03*
%TO.P,U4,6*%
%TO.N,Net-(U4-Pad13)*%
X216531825Y-94345125D03*
%TO.P,U4,7,GND*%
%TO.N,GND*%
X213991825Y-94345125D03*
%TO.P,U4,8*%
%TO.N,Net-(U1-CLOCK)*%
X213991825Y-101965125D03*
%TO.P,U4,9*%
%TO.N,Net-(U4-Pad10)*%
X216531825Y-101965125D03*
%TO.P,U4,10*%
X219071825Y-101965125D03*
%TO.P,U4,11*%
%TO.N,Net-(U4-Pad11)*%
X221611825Y-101965125D03*
%TO.P,U4,12*%
X224151825Y-101965125D03*
%TO.P,U4,13*%
%TO.N,Net-(U4-Pad13)*%
X226691825Y-101965125D03*
%TO.P,U4,14,VCC*%
%TO.N,+5V*%
X229231825Y-101965125D03*
%TD*%
D15*
%TO.P,Q6,1,C*%
%TO.N,Net-(Q6-C)*%
X111232950Y-90925650D03*
D16*
%TO.P,Q6,2,B*%
%TO.N,CTS_34*%
X111232950Y-88385650D03*
%TO.P,Q6,3,E*%
%TO.N,GND*%
X111232950Y-85845650D03*
%TD*%
D10*
%TO.P,R24,1*%
%TO.N,TXDATA_4*%
X77098525Y-120510300D03*
D11*
%TO.P,R24,2*%
%TO.N,Net-(R24-Pad2)*%
X77098525Y-107810300D03*
%TD*%
D10*
%TO.P,R8,1*%
%TO.N,RXDATA_33*%
X134467600Y-120596025D03*
D11*
%TO.P,R8,2*%
%TO.N,Net-(Q3-B)*%
X134467600Y-107896025D03*
%TD*%
D13*
%TO.P,D4,1,K*%
%TO.N,Net-(D4-K)*%
X241303175Y-108156375D03*
D14*
%TO.P,D4,2,A*%
%TO.N,Net-(D3-A)*%
X241303175Y-120856375D03*
%TD*%
D10*
%TO.P,R23,1*%
%TO.N,GND*%
X101742875Y-98428175D03*
D11*
%TO.P,R23,2*%
%TO.N,Net-(R23-Pad2)*%
X101742875Y-85728175D03*
%TD*%
D10*
%TO.P,R27,1*%
%TO.N,GND*%
X150161625Y-107975400D03*
D11*
%TO.P,R27,2*%
%TO.N,DATA2_38*%
X150161625Y-120675400D03*
%TD*%
D10*
%TO.P,R34,1*%
%TO.N,Net-(R34-Pad1)*%
X104257475Y-98567875D03*
D11*
%TO.P,R34,2*%
%TO.N,+9V*%
X104257475Y-85867875D03*
%TD*%
D17*
%TO.P,U2,1,A7*%
%TO.N,A7*%
X199018525Y-82867500D03*
D11*
%TO.P,U2,2,A6*%
%TO.N,A6*%
X196478525Y-82867500D03*
%TO.P,U2,3,A5*%
%TO.N,A5*%
X193938525Y-82867500D03*
%TO.P,U2,4,A4*%
%TO.N,A4*%
X191398525Y-82867500D03*
%TO.P,U2,5,A3*%
%TO.N,A3*%
X188858525Y-82867500D03*
%TO.P,U2,6,A2*%
%TO.N,A2*%
X186318525Y-82867500D03*
%TO.P,U2,7,A1*%
%TO.N,A1*%
X183778525Y-82867500D03*
%TO.P,U2,8,A0*%
%TO.N,A0*%
X181238525Y-82867500D03*
%TO.P,U2,9,D0*%
%TO.N,D0*%
X178698525Y-82867500D03*
%TO.P,U2,10,D1*%
%TO.N,D1*%
X176158525Y-82867500D03*
%TO.P,U2,11,D2*%
%TO.N,D2*%
X173618525Y-82867500D03*
%TO.P,U2,12,GND*%
%TO.N,GND*%
X171078525Y-82867500D03*
%TO.P,U2,13,D3*%
%TO.N,D3*%
X171078525Y-98107500D03*
%TO.P,U2,14,D4*%
%TO.N,D4*%
X173618525Y-98107500D03*
%TO.P,U2,15,D5*%
%TO.N,D5*%
X176158525Y-98107500D03*
%TO.P,U2,16,D6*%
%TO.N,D6*%
X178698525Y-98107500D03*
%TO.P,U2,17,D7*%
%TO.N,D7*%
X181238525Y-98107500D03*
%TO.P,U2,18,A11*%
%TO.N,A11*%
X183778525Y-98107500D03*
%TO.P,U2,19,A10*%
%TO.N,A10*%
X186318525Y-98107500D03*
%TO.P,U2,20,~{CE}*%
%TO.N,Net-(D10-K)*%
X188858525Y-98107500D03*
%TO.P,U2,21,A12*%
%TO.N,A12*%
X191398525Y-98107500D03*
%TO.P,U2,22,A9*%
%TO.N,A9*%
X193938525Y-98107500D03*
%TO.P,U2,23,A8*%
%TO.N,A8*%
X196478525Y-98107500D03*
%TO.P,U2,24,VCC*%
%TO.N,+5V*%
X199018525Y-98107500D03*
%TD*%
D13*
%TO.P,D9,1,K*%
%TO.N,~{ROMCS}*%
X158997650Y-90925650D03*
D14*
%TO.P,D9,2,A*%
%TO.N,Net-(D10-A)*%
X158997650Y-103625650D03*
%TD*%
D10*
%TO.P,R6,1*%
%TO.N,Net-(Q1-C)*%
X167303450Y-108003975D03*
D11*
%TO.P,R6,2*%
%TO.N,RXDATA_33*%
X167303450Y-120703975D03*
%TD*%
D10*
%TO.P,C4,1*%
%TO.N,GND*%
X257876675Y-103774875D03*
D11*
%TO.P,C4,2*%
%TO.N,Net-(C4-Pad2)*%
X257876675Y-116474875D03*
%TD*%
D13*
%TO.P,D1,1,K*%
%TO.N,GND*%
X137121900Y-79552800D03*
D14*
%TO.P,D1,2,A*%
%TO.N,Net-(D1-A)*%
X137121900Y-92252800D03*
%TD*%
D18*
%TO.P,SK3,S*%
%TO.N,GND*%
X103637350Y-72309075D03*
%TO.P,SK3,T*%
%TO.N,Net-(R21-Pad2)*%
X103637350Y-76109075D03*
%TO.P,SK3,TN*%
%TO.N,Net-(R23-Pad2)*%
X113037350Y-76109075D03*
%TD*%
D10*
%TO.P,R2,1*%
%TO.N,+5V*%
X239807750Y-92414725D03*
D11*
%TO.P,R2,2*%
%TO.N,Net-(U1-CLOCK)*%
X239807750Y-105114725D03*
%TD*%
D10*
%TO.P,R30,1*%
%TO.N,Net-(Q9-C)*%
X145824575Y-120637300D03*
D11*
%TO.P,R30,2*%
%TO.N,Net-(SK4-Pin_A5)*%
X145824575Y-107937300D03*
%TD*%
D10*
%TO.P,R1,1*%
%TO.N,+5V*%
X233680000Y-120859550D03*
D11*
%TO.P,R1,2*%
%TO.N,Net-(D3-A)*%
X233680000Y-108159550D03*
%TD*%
D18*
%TO.P,SK2,S*%
%TO.N,GND*%
X117978825Y-72309075D03*
%TO.P,SK2,T*%
%TO.N,Net-(R21-Pad2)*%
X117978825Y-76109075D03*
%TO.P,SK2,TN*%
%TO.N,Net-(R22-Pad2)*%
X127378825Y-76109075D03*
%TD*%
D19*
%TO.P,SK4,A1,Pin_A1*%
%TO.N,DATA1_37*%
X47323375Y-112207325D03*
%TO.P,SK4,A2,Pin_A2*%
%TO.N,COMMSCLK_31*%
X47323375Y-109667325D03*
%TO.P,SK4,A4,Pin_A4*%
%TO.N,COMMSOUT_30*%
X47323375Y-104587325D03*
%TO.P,SK4,A5,Pin_A5*%
%TO.N,Net-(SK4-Pin_A5)*%
X47323375Y-102047325D03*
%TO.P,SK4,A6,Pin_A6*%
%TO.N,GND*%
X47323375Y-99507325D03*
%TO.P,SK4,A7,Pin_A7*%
X47323375Y-96967325D03*
%TO.P,SK4,A8,Pin_A8*%
X47323375Y-94427325D03*
%TD*%
D15*
%TO.P,Q11,1,C*%
%TO.N,+5V*%
X240783325Y-97773650D03*
D16*
%TO.P,Q11,2,B*%
%TO.N,~{IORQ}*%
X240783325Y-100313650D03*
%TO.P,Q11,3,E*%
%TO.N,~{IORQGE}*%
X240783325Y-102853650D03*
%TD*%
D10*
%TO.P,C1,1*%
%TO.N,+12VAC*%
X145253075Y-99895025D03*
D11*
%TO.P,C1,2*%
%TO.N,Net-(D1-A)*%
X145253075Y-79895025D03*
%TD*%
D10*
%TO.P,R9,1*%
%TO.N,WRPROT_32*%
X154543125Y-107975400D03*
D11*
%TO.P,R9,2*%
%TO.N,Net-(SK4-Pin_B2)*%
X154543125Y-120675400D03*
%TD*%
D10*
%TO.P,R31,1*%
%TO.N,Net-(D10-A)*%
X156591000Y-90925650D03*
D11*
%TO.P,R31,2*%
%TO.N,GND*%
X156591000Y-103625650D03*
%TD*%
D10*
%TO.P,R36,1*%
%TO.N,GND*%
X174853600Y-108083350D03*
D11*
%TO.P,R36,2*%
%TO.N,DATA1_37*%
X174853600Y-120783350D03*
%TD*%
D10*
%TO.P,R5,1*%
%TO.N,+5V*%
X169764075Y-108105575D03*
D11*
%TO.P,R5,2*%
%TO.N,Net-(Q1-C)*%
X169764075Y-120805575D03*
%TD*%
D10*
%TO.P,R17,1*%
%TO.N,Net-(C8-Pad1)*%
X116881275Y-120596025D03*
D11*
%TO.P,R17,2*%
%TO.N,-12V*%
X116881275Y-107896025D03*
%TD*%
D15*
%TO.P,Q10,1,C*%
%TO.N,+5V*%
X233721275Y-99599750D03*
D16*
%TO.P,Q10,2,B*%
%TO.N,A0*%
X233721275Y-97059750D03*
%TO.P,Q10,3,E*%
%TO.N,~{IORQGE}*%
X233721275Y-94519750D03*
%TD*%
D10*
%TO.P,R21,1*%
%TO.N,NET36*%
X96650175Y-98463100D03*
D11*
%TO.P,R21,2*%
%TO.N,Net-(R21-Pad2)*%
X96650175Y-85763100D03*
%TD*%
D10*
%TO.P,C2,1*%
%TO.N,GND*%
X131889500Y-79776300D03*
D11*
%TO.P,C2,2*%
%TO.N,-12V*%
X131889500Y-99776300D03*
%TD*%
D10*
%TO.P,R11,1*%
%TO.N,+12V*%
X121821575Y-107930950D03*
D11*
%TO.P,R11,2*%
%TO.N,Net-(Q4-B)*%
X121821575Y-120630950D03*
%TD*%
D20*
%TO.P,L1,1,1*%
%TO.N,+9V*%
X76698475Y-83972400D03*
D21*
%TO.P,L1,2,2*%
%TO.N,Net-(SK4-Pin_B4)*%
X76698475Y-104292400D03*
%TD*%
D13*
%TO.P,D2,1,K*%
%TO.N,Net-(D1-A)*%
X140017500Y-79552800D03*
D14*
%TO.P,D2,2,A*%
%TO.N,-12V*%
X140017500Y-92252800D03*
%TD*%
D10*
%TO.P,C7,1*%
%TO.N,Net-(C7-Pad1)*%
X99167950Y-120551575D03*
D11*
%TO.P,C7,2*%
%TO.N,-12V*%
X99167950Y-107851575D03*
%TD*%
D22*
%TO.P,SK1,0,PAD*%
%TO.N,GND*%
X82451225Y-78936075D03*
X57451225Y-78936075D03*
D17*
%TO.P,SK1,1,1*%
%TO.N,unconnected-(SK1-Pad1)*%
X64411225Y-80356075D03*
D10*
%TO.P,SK1,2,2*%
%TO.N,Net-(R24-Pad2)*%
X67181225Y-80356075D03*
%TO.P,SK1,3,3*%
%TO.N,Net-(C8-Pad1)*%
X69951225Y-80356075D03*
%TO.P,SK1,4,4*%
%TO.N,Net-(R25-Pad2)*%
X72721225Y-80356075D03*
%TO.P,SK1,5,5*%
%TO.N,Net-(C7-Pad1)*%
X75491225Y-80356075D03*
%TO.P,SK1,6,6*%
%TO.N,unconnected-(SK1-Pad6)*%
X65796225Y-77516075D03*
%TO.P,SK1,7,7*%
%TO.N,GND*%
X68566225Y-77516075D03*
%TO.P,SK1,8,8*%
%TO.N,unconnected-(SK1-Pad8)*%
X71336225Y-77516075D03*
%TO.P,SK1,9,9*%
%TO.N,Net-(R34-Pad1)*%
X74106225Y-77516075D03*
%TD*%
D16*
%TO.P,X1,1,1*%
%TO.N,Net-(C4-Pad2)*%
X244544850Y-98831400D03*
%TO.P,X1,2,2*%
%TO.N,Net-(C3-Pad1)*%
X244544850Y-93931400D03*
%TD*%
D15*
%TO.P,Q3,1,C*%
%TO.N,Net-(Q3-C)*%
X118246525Y-90960575D03*
D16*
%TO.P,Q3,2,B*%
%TO.N,Net-(Q3-B)*%
X118246525Y-88420575D03*
%TO.P,Q3,3,E*%
%TO.N,COMMSOUT_30*%
X118246525Y-85880575D03*
%TD*%
D10*
%TO.P,R16,1*%
%TO.N,+5V*%
X111750475Y-107845225D03*
D11*
%TO.P,R16,2*%
%TO.N,CTS_34*%
X111750475Y-120545225D03*
%TD*%
D15*
%TO.P,Q1,1,C*%
%TO.N,Net-(Q1-C)*%
X126968250Y-90995500D03*
D16*
%TO.P,Q1,2,B*%
%TO.N,Net-(Q1-B)*%
X126968250Y-88455500D03*
%TO.P,Q1,3,E*%
%TO.N,+5V*%
X126968250Y-85915500D03*
%TD*%
D13*
%TO.P,D7,1,K*%
%TO.N,DTR_1*%
X69538850Y-107803950D03*
D14*
%TO.P,D7,2,A*%
%TO.N,GND*%
X69538850Y-120503950D03*
%TD*%
D17*
%TO.P,U3,1*%
%TO.N,A13*%
X229301675Y-82972275D03*
D11*
%TO.P,U3,2*%
%TO.N,GND*%
X226761675Y-82972275D03*
%TO.P,U3,3*%
%TO.N,A7*%
X224221675Y-82972275D03*
%TO.P,U3,4*%
%TO.N,A5*%
X221681675Y-82972275D03*
%TO.P,U3,5*%
%TO.N,Net-(D4-K)*%
X219141675Y-82972275D03*
%TO.P,U3,6*%
%TO.N,Net-(D3-K)*%
X216601675Y-82972275D03*
%TO.P,U3,7,GND*%
%TO.N,GND*%
X214061675Y-82972275D03*
%TO.P,U3,8*%
%TO.N,A0*%
X214061675Y-90592275D03*
%TO.P,U3,9*%
%TO.N,A1*%
X216601675Y-90592275D03*
%TO.P,U3,10*%
%TO.N,A6*%
X219141675Y-90592275D03*
%TO.P,U3,11*%
%TO.N,A2*%
X221681675Y-90592275D03*
%TO.P,U3,12*%
%TO.N,~{M1}*%
X224221675Y-90592275D03*
%TO.P,U3,13*%
%TO.N,A11*%
X226761675Y-90592275D03*
%TO.P,U3,14,VCC*%
%TO.N,+5V*%
X229301675Y-90592275D03*
%TD*%
D10*
%TO.P,R25,1*%
%TO.N,DTR_1*%
X79759175Y-120596025D03*
D11*
%TO.P,R25,2*%
%TO.N,Net-(R25-Pad2)*%
X79759175Y-107896025D03*
%TD*%
D13*
%TO.P,D11,1,K*%
%TO.N,GND*%
X90404950Y-98498025D03*
D14*
%TO.P,D11,2,A*%
%TO.N,Net-(D11-A)*%
X90404950Y-85798025D03*
%TD*%
D10*
%TO.P,R29,1*%
%TO.N,Net-(R24-Pad2)*%
X74628375Y-107867450D03*
D11*
%TO.P,R29,2*%
%TO.N,GND*%
X74628375Y-120567450D03*
%TD*%
D10*
%TO.P,NoFit1,1*%
%TO.N,Net-(U1-CLOCK)*%
X255620837Y-103805037D03*
D11*
%TO.P,NoFit1,2*%
%TO.N,Net-(C3-Pad1)*%
X255620837Y-116505037D03*
%TD*%
D10*
%TO.P,R26,1*%
%TO.N,+5V*%
X126942850Y-107746800D03*
D11*
%TO.P,R26,2*%
%TO.N,ERASE_35*%
X126942850Y-120446800D03*
%TD*%
D23*
%TO.P,SK6,A1,A15*%
%TO.N,A15*%
X166008050Y-61744225D03*
%TO.P,SK6,A2,A13*%
%TO.N,A13*%
X168548050Y-61744225D03*
%TO.P,SK6,A3,D7*%
%TO.N,D7*%
X171088050Y-61744225D03*
%TO.P,SK6,A4,NCA4*%
%TO.N,NCA4*%
X173628050Y-61744225D03*
%TO.P,SK6,A6,D0*%
%TO.N,D0*%
X178708050Y-61744225D03*
%TO.P,SK6,A7,D1*%
%TO.N,D1*%
X181248050Y-61744225D03*
%TO.P,SK6,A8,D2*%
%TO.N,D2*%
X183788050Y-61744225D03*
%TO.P,SK6,A9,D6*%
%TO.N,D6*%
X186328050Y-61744225D03*
%TO.P,SK6,A10,D5*%
%TO.N,D5*%
X188868050Y-61744225D03*
%TO.P,SK6,A11,D3*%
%TO.N,D3*%
X191408050Y-61744225D03*
%TO.P,SK6,A12,D4*%
%TO.N,D4*%
X193948050Y-61744225D03*
%TO.P,SK6,A13,~{INT}*%
%TO.N,~{INT}*%
X196488050Y-61744225D03*
%TO.P,SK6,A14,~{NMI}*%
%TO.N,~{NMI}*%
X199028050Y-61744225D03*
%TO.P,SK6,A15,~{HALT}*%
%TO.N,~{HALT}*%
X201568050Y-61744225D03*
%TO.P,SK6,A16,~{MREQ}*%
%TO.N,~{MREQ}*%
X204108050Y-61744225D03*
%TO.P,SK6,A17,~{IORQ}*%
%TO.N,~{IORQ}*%
X206648050Y-61744225D03*
%TO.P,SK6,A18,~{RD}*%
%TO.N,~{RD}*%
X209188050Y-61744225D03*
%TO.P,SK6,A19,~{WR}*%
%TO.N,~{WR}*%
X211728050Y-61744225D03*
%TO.P,SK6,A20,-5V*%
%TO.N,-5V*%
X214268050Y-61744225D03*
%TO.P,SK6,A21,~{WAIT}*%
%TO.N,~{WAIT}*%
X216808050Y-61744225D03*
%TO.P,SK6,A22,+12V*%
%TO.N,+12V*%
X219348050Y-61744225D03*
%TO.P,SK6,A23,+12VAC*%
%TO.N,+12VAC*%
X221888050Y-61744225D03*
%TO.P,SK6,A24,~{M1}*%
%TO.N,~{M1}*%
X224428050Y-61744225D03*
%TO.P,SK6,A25,~{RFSH}*%
%TO.N,~{RFSH}*%
X226968050Y-61744225D03*
%TO.P,SK6,A26,A8*%
%TO.N,A8*%
X229508050Y-61744225D03*
%TO.P,SK6,A27,A10*%
%TO.N,A10*%
X232048050Y-61744225D03*
%TO.P,SK6,A28,NCA28*%
%TO.N,NCA28*%
X234588050Y-61744225D03*
%TD*%
D13*
%TO.P,D6,1,K*%
%TO.N,TXDATA_4*%
X66919475Y-107759500D03*
D14*
%TO.P,D6,2,A*%
%TO.N,GND*%
X66919475Y-120459500D03*
%TD*%
D10*
%TO.P,R19,1*%
%TO.N,CTS_34*%
X114328575Y-107911900D03*
D11*
%TO.P,R19,2*%
%TO.N,GND*%
X114328575Y-120611900D03*
%TD*%
D15*
%TO.P,Q2,1,C*%
%TO.N,Net-(Q2-C)*%
X127003175Y-98672650D03*
D16*
%TO.P,Q2,2,B*%
%TO.N,Net-(Q1-C)*%
X127003175Y-96132650D03*
%TO.P,Q2,3,E*%
%TO.N,+5V*%
X127003175Y-93592650D03*
%TD*%
D10*
%TO.P,R35,1*%
%TO.N,Net-(C3-Pad1)*%
X252701425Y-103797100D03*
D11*
%TO.P,R35,2*%
%TO.N,Net-(C4-Pad2)*%
X252701425Y-116497100D03*
%TD*%
D10*
%TO.P,R20,1*%
%TO.N,Net-(C7-Pad1)*%
X109261275Y-120596025D03*
D11*
%TO.P,R20,2*%
%TO.N,-12V*%
X109261275Y-107896025D03*
%TD*%
D10*
%TO.P,C6,1*%
%TO.N,+5V*%
X208368900Y-101777800D03*
D11*
%TO.P,C6,2*%
%TO.N,GND*%
X208368900Y-81777800D03*
%TD*%
D10*
%TO.P,R4,1*%
%TO.N,Net-(Q1-B)*%
X162207575Y-107997625D03*
D11*
%TO.P,R4,2*%
%TO.N,COMMSOUT_30*%
X162207575Y-120697625D03*
%TD*%
D15*
%TO.P,Q4,1,C*%
%TO.N,Net-(Q4-C)*%
X118176675Y-98532950D03*
D16*
%TO.P,Q4,2,B*%
%TO.N,Net-(Q4-B)*%
X118176675Y-95992950D03*
%TO.P,Q4,3,E*%
%TO.N,+12V*%
X118176675Y-93452950D03*
%TD*%
D24*
%TO.N,+12VAC*%
X152276175Y-81911825D03*
X239112425Y-77920850D03*
%TO.N,GND*%
X134165975Y-84715350D03*
X134340600Y-95450025D03*
X53082825Y-95430975D03*
X171186475Y-102546150D03*
X175056800Y-102336600D03*
X210550125Y-104041575D03*
X199586850Y-86750525D03*
X91659075Y-87636350D03*
X157076775Y-106067225D03*
X236670850Y-105022650D03*
X52860575Y-97863025D03*
X208368900Y-94307025D03*
%TO.N,-12V*%
X107924600Y-102092125D03*
X117414675Y-102266750D03*
%TO.N,Net-(C3-Pad1)*%
X253120525Y-108734225D03*
%TO.N,Net-(C4-Pad2)*%
X243693950Y-86560025D03*
X236019975Y-86502875D03*
%TO.N,+5V*%
X232130600Y-109575600D03*
X126876175Y-111252000D03*
X165053423Y-75798902D03*
X139503150Y-111121825D03*
X164927310Y-87416051D03*
X143389350Y-89312750D03*
X232057575Y-90417650D03*
%TO.N,Net-(C7-Pad1)*%
X81108550Y-113855500D03*
%TO.N,Net-(C8-Pad1)*%
X75580875Y-115528725D03*
%TO.N,Net-(D3-K)*%
X218078050Y-97361375D03*
X241134900Y-96021525D03*
%TO.N,Net-(D3-A)*%
X232657650Y-122920125D03*
X223901000Y-112664875D03*
X234073700Y-111842550D03*
%TO.N,Net-(D4-K)*%
X220656150Y-92478225D03*
X242287425Y-93510100D03*
%TO.N,TXDATA_4*%
X78317725Y-109610525D03*
X77089000Y-112849025D03*
X221945200Y-112595025D03*
%TO.N,DTR_1*%
X229587425Y-115804950D03*
X79657575Y-111566325D03*
%TO.N,NET36*%
X202926950Y-103562150D03*
X183880125Y-101180900D03*
X182683150Y-86604475D03*
X206682975Y-116173250D03*
%TO.N,~{ROMCS}*%
X163626800Y-111166275D03*
X226006025Y-112061625D03*
X216792175Y-111721300D03*
%TO.N,Net-(D10-A)*%
X156600525Y-93703775D03*
X228868288Y-75807887D03*
X228258688Y-96105662D03*
%TO.N,Net-(D10-K)*%
X154089100Y-99390200D03*
X161871025Y-99355275D03*
%TO.N,Net-(D11-A)*%
X106689525Y-89522300D03*
X107003850Y-85928200D03*
%TO.N,+9V*%
X109778800Y-80130650D03*
%TO.N,Net-(Q1-C)*%
X130654425Y-117449600D03*
%TO.N,Net-(Q1-B)*%
X160474025Y-92795725D03*
%TO.N,Net-(Q2-C)*%
X128076325Y-117560725D03*
%TO.N,COMMSOUT_30*%
X204060425Y-117471825D03*
X162321875Y-116243100D03*
X143078200Y-122472450D03*
X120519825Y-117535325D03*
X139417425Y-115316000D03*
X61849000Y-106765725D03*
%TO.N,Net-(Q3-B)*%
X118008400Y-109880400D03*
%TO.N,Net-(Q3-C)*%
X123729750Y-93335475D03*
%TO.N,+12V*%
X233429175Y-105832275D03*
X121881900Y-102371525D03*
X121821575Y-104848025D03*
X114344450Y-104848025D03*
%TO.N,Net-(Q4-B)*%
X115233450Y-118598950D03*
%TO.N,Net-(Q5-B)*%
X102831900Y-95151575D03*
%TO.N,CTS_34*%
X213048850Y-112976025D03*
%TO.N,Net-(Q6-C)*%
X100390325Y-90858975D03*
%TO.N,ERASE_35*%
X125736350Y-116335175D03*
%TO.N,Net-(Q9-C)*%
X141382750Y-120650000D03*
X123075700Y-118773575D03*
%TO.N,~{IORQGE}*%
X199062975Y-95577025D03*
%TO.N,A0*%
X215458675Y-78482825D03*
X238229775Y-97088325D03*
X237788450Y-114401600D03*
X186410600Y-79667100D03*
X215677750Y-114842925D03*
%TO.N,RXDATA_33*%
X167452675Y-116697125D03*
%TO.N,Net-(R21-Pad2)*%
X173612175Y-87233125D03*
%TO.N,Net-(R22-Pad2)*%
X125758575Y-83864450D03*
%TO.N,DATA2_38*%
X152066625Y-125698250D03*
%TO.N,Net-(SK4-Pin_A5)*%
X61791850Y-101015800D03*
%TO.N,Net-(U1-~{ROM_EN})*%
X213083775Y-124806075D03*
X149691725Y-125733175D03*
%TO.N,Net-(R34-Pad1)*%
X77812900Y-91525725D03*
%TO.N,DATA1_37*%
X61791850Y-111061500D03*
X175056800Y-125139450D03*
%TO.N,COMMSCLK_31*%
X61680725Y-108718350D03*
%TO.N,R{slash}W_29*%
X59188350Y-97837625D03*
X67938650Y-115484275D03*
%TO.N,A15*%
X168513125Y-101155500D03*
%TO.N,A13*%
X169144950Y-87861775D03*
%TO.N,D7*%
X172389800Y-94910275D03*
X181213125Y-92938100D03*
%TO.N,D0*%
X179943125Y-116960650D03*
%TO.N,D1*%
X179974875Y-81054575D03*
X177396775Y-117528975D03*
%TO.N,D2*%
X174952025Y-118110000D03*
X182508525Y-79886175D03*
%TO.N,D6*%
X185280300Y-96002475D03*
%TO.N,D5*%
X187566300Y-96129475D03*
%TO.N,D3*%
X190103125Y-94945200D03*
%TO.N,D4*%
X192712975Y-96135825D03*
%TO.N,~{M1}*%
X226323525Y-75923775D03*
%TO.N,A8*%
X232133775Y-83165950D03*
X230746300Y-75904725D03*
X197754875Y-89115900D03*
%TO.N,A10*%
X233397425Y-75749150D03*
X186397900Y-103254175D03*
X233486325Y-86728300D03*
X186318525Y-87318850D03*
%TO.N,A14*%
X166592250Y-100491925D03*
%TO.N,A12*%
X191398525Y-92983050D03*
X188852175Y-100631625D03*
X168548050Y-93583125D03*
%TO.N,A1*%
X188928375Y-79590900D03*
X218039950Y-79006700D03*
%TO.N,A2*%
X191131825Y-79648050D03*
X222951675Y-80886300D03*
%TO.N,A3*%
X193821050Y-80317975D03*
X204120750Y-85413850D03*
%TO.N,~{RESET}*%
X240214150Y-113242725D03*
X241106325Y-76628625D03*
X223189800Y-75882500D03*
X228155500Y-113080800D03*
%TO.N,A7*%
X199005825Y-77739875D03*
X219862400Y-78416150D03*
%TO.N,A6*%
X196586475Y-93065600D03*
%TO.N,A4*%
X234632500Y-116398675D03*
X225593275Y-80219550D03*
X204155675Y-82934175D03*
X200955275Y-115938300D03*
X239248950Y-79790925D03*
%TO.N,A9*%
X232800525Y-84867750D03*
X195208525Y-89150825D03*
%TO.N,A11*%
X183762650Y-89115900D03*
X234683300Y-88601550D03*
%TO.N,Net-(U4-Pad13)*%
X228377750Y-119075200D03*
X220668850Y-118887875D03*
%TD*%
D25*
%TO.N,+12VAC*%
X223551750Y-70554850D02*
X237007400Y-70554850D01*
D26*
X239261650Y-78070075D02*
X239112425Y-77920850D01*
D25*
X239112425Y-72316975D02*
X239112425Y-77920850D01*
D26*
X221888050Y-68891150D02*
X221862650Y-68916550D01*
D25*
X221888050Y-61744225D02*
X221888050Y-68891150D01*
X145253075Y-88934925D02*
X152276175Y-81911825D01*
X237350300Y-70554850D02*
X239112425Y-72316975D01*
X221888050Y-68891150D02*
X223551750Y-70554850D01*
X145253075Y-99895025D02*
X145253075Y-88934925D01*
D26*
X237007400Y-70554850D02*
X237350300Y-70554850D01*
D25*
%TO.N,Net-(D1-A)*%
X140017500Y-89357200D02*
X137121900Y-92252800D01*
X140017500Y-79552800D02*
X140017500Y-89357200D01*
D27*
%TO.N,GND*%
X114344450Y-122958225D02*
X114344450Y-122920125D01*
D25*
X93408500Y-109629575D02*
X93376750Y-109629575D01*
X127463550Y-122958225D02*
X114344450Y-122958225D01*
X171078525Y-92744925D02*
X170592750Y-93230700D01*
X157076775Y-106067225D02*
X157076775Y-104111425D01*
X210550125Y-100377625D02*
X210550125Y-104041575D01*
D28*
X51298825Y-99507325D02*
X52860575Y-97945575D01*
D25*
X93376750Y-109629575D02*
X92224225Y-108477050D01*
D28*
X52860575Y-97945575D02*
X52860575Y-97863025D01*
D27*
X156591000Y-103625650D02*
X156775150Y-103809800D01*
D25*
X114344450Y-122958225D02*
X91351100Y-122958225D01*
D27*
X69494400Y-120459500D02*
X69538850Y-120503950D01*
D25*
X208368900Y-94307025D02*
X208368900Y-98196400D01*
D28*
X134515225Y-95275400D02*
X134515225Y-91052650D01*
X47323375Y-96967325D02*
X51546475Y-96967325D01*
D27*
X92141675Y-98498025D02*
X92224225Y-98580575D01*
X134515225Y-91052650D02*
X134375525Y-90912950D01*
X94138750Y-98532950D02*
X92271850Y-98532950D01*
D25*
X157076775Y-104111425D02*
X156775150Y-103809800D01*
X114328575Y-122904250D02*
X114328575Y-120611900D01*
D27*
X174853600Y-102539800D02*
X175056800Y-102336600D01*
D25*
X168929050Y-98650425D02*
X171186475Y-100907850D01*
D27*
X72094725Y-120567450D02*
X72031225Y-120503950D01*
D25*
X174853600Y-108083350D02*
X174853600Y-102539800D01*
D27*
X127463550Y-122551825D02*
X127463550Y-122958225D01*
D25*
X92224225Y-81445100D02*
X92189300Y-81410175D01*
X157076775Y-107394375D02*
X156775150Y-107696000D01*
D28*
X47323375Y-99507325D02*
X51298825Y-99507325D01*
D25*
X170592750Y-95024575D02*
X168929050Y-96688275D01*
X114328575Y-122942350D02*
X114344450Y-122958225D01*
X74742675Y-123097925D02*
X74628375Y-122983625D01*
X201120375Y-85217000D02*
X199586850Y-86750525D01*
D27*
X92271850Y-98532950D02*
X92224225Y-98580575D01*
D25*
X91351100Y-118141750D02*
X93408500Y-116084350D01*
X114328575Y-120611900D02*
X114328575Y-122942350D01*
X91351100Y-122958225D02*
X91351100Y-118141750D01*
X74628375Y-122983625D02*
X74628375Y-120567450D01*
D28*
X51546475Y-96967325D02*
X53082825Y-95430975D01*
D25*
X69538850Y-120503950D02*
X72031225Y-120503950D01*
X129463800Y-120551575D02*
X127463550Y-122551825D01*
D28*
X134375525Y-90912950D02*
X134515225Y-90773250D01*
D25*
X93408500Y-116084350D02*
X93408500Y-109629575D01*
D28*
X52860575Y-97863025D02*
X52860575Y-95653225D01*
D25*
X101290400Y-72309075D02*
X103637350Y-72309075D01*
D27*
X236670850Y-105022650D02*
X236254925Y-105438575D01*
D25*
X92224225Y-108477050D02*
X92224225Y-98580575D01*
D28*
X47323375Y-94427325D02*
X52079175Y-94427325D01*
D25*
X74882375Y-122958225D02*
X74742675Y-123097925D01*
X199094725Y-73888600D02*
X201120375Y-75914250D01*
X171186475Y-100907850D02*
X171186475Y-102546150D01*
X170592750Y-93230700D02*
X170592750Y-95024575D01*
X208368900Y-81777800D02*
X208368900Y-94307025D01*
D27*
X52079175Y-94427325D02*
X53082825Y-95430975D01*
D25*
X66919475Y-120459500D02*
X69494400Y-120459500D01*
D28*
X134515225Y-90773250D02*
X134515225Y-82402025D01*
D25*
X91351100Y-122958225D02*
X74882375Y-122958225D01*
X92224225Y-98580575D02*
X92224225Y-81445100D01*
X92189300Y-81410175D02*
X101290400Y-72309075D01*
D27*
X156775150Y-107696000D02*
X157076775Y-107997625D01*
X52860575Y-95653225D02*
X53082825Y-95430975D01*
D25*
X208368900Y-98196400D02*
X210550125Y-100377625D01*
X171078525Y-82867500D02*
X171078525Y-92744925D01*
X157076775Y-106067225D02*
X157076775Y-107394375D01*
D27*
X134340600Y-95450025D02*
X134515225Y-95275400D01*
D28*
X134515225Y-82402025D02*
X131889500Y-79776300D01*
D25*
X201120375Y-75914250D02*
X201120375Y-85217000D01*
D27*
X114344450Y-122920125D02*
X114328575Y-122904250D01*
X90404950Y-98498025D02*
X92141675Y-98498025D01*
D25*
X168929050Y-96688275D02*
X168929050Y-98650425D01*
D27*
X236254925Y-105438575D02*
X236254925Y-108318275D01*
D25*
X74628375Y-120567450D02*
X72094725Y-120567450D01*
%TO.N,-12V*%
X132630525Y-99776300D02*
X131889500Y-99776300D01*
X140017500Y-92252800D02*
X140017500Y-92389325D01*
X116716175Y-104781350D02*
X117449600Y-104047925D01*
D27*
X116881275Y-104946450D02*
X116716175Y-104781350D01*
D25*
X109261275Y-107896025D02*
X109261275Y-103568500D01*
X116881275Y-107896025D02*
X116881275Y-104946450D01*
D27*
X107924600Y-102231825D02*
X107924600Y-102092125D01*
D25*
X109261275Y-103568500D02*
X107924600Y-102231825D01*
X117449600Y-104047925D02*
X117449600Y-102301675D01*
D27*
X117449600Y-102301675D02*
X117414675Y-102266750D01*
D25*
X140017500Y-92389325D02*
X132630525Y-99776300D01*
D27*
%TO.N,Net-(C3-Pad1)*%
X253120525Y-108734225D02*
X252701425Y-108315125D01*
X252701425Y-108315125D02*
X252701425Y-103797100D01*
%TO.N,Net-(C4-Pad2)*%
X233927650Y-89817575D02*
X235565950Y-89817575D01*
X244544850Y-102390575D02*
X244544850Y-98831400D01*
X233210100Y-89100025D02*
X233927650Y-89817575D01*
X252701425Y-110547150D02*
X244544850Y-102390575D01*
X244544850Y-98831400D02*
X244544850Y-95561150D01*
X230959025Y-91036775D02*
X230959025Y-89154000D01*
X256425700Y-118230650D02*
X256466975Y-118189375D01*
X252701425Y-116497100D02*
X254434975Y-118230650D01*
X236019975Y-89363550D02*
X236019975Y-86502875D01*
X252701425Y-116497100D02*
X252701425Y-110547150D01*
X256466975Y-117884575D02*
X257876675Y-116474875D01*
X229231825Y-92763975D02*
X230959025Y-91036775D01*
X243398675Y-86855300D02*
X243693950Y-86560025D01*
X229231825Y-94345125D02*
X229231825Y-92763975D01*
X244544850Y-95561150D02*
X243398675Y-94414975D01*
X235565950Y-89817575D02*
X236019975Y-89363550D01*
X256466975Y-118189375D02*
X256466975Y-117884575D01*
X231013000Y-89100025D02*
X233210100Y-89100025D01*
X254434975Y-118230650D02*
X256425700Y-118230650D01*
X230959025Y-89154000D02*
X231013000Y-89100025D01*
X243398675Y-94414975D02*
X243398675Y-86855300D01*
D25*
%TO.N,+5V*%
X231476550Y-93551375D02*
X231476550Y-101228525D01*
D27*
X164719000Y-88458675D02*
X164417375Y-88157050D01*
X240786500Y-97517800D02*
X239807750Y-96539050D01*
D25*
X231447975Y-119030750D02*
X231447975Y-110258225D01*
D27*
X164417375Y-76434950D02*
X165053423Y-75798902D01*
D25*
X139503150Y-101009450D02*
X143389350Y-97123250D01*
X232130600Y-109575600D02*
X232130600Y-102155625D01*
D27*
X129085975Y-93335475D02*
X128828800Y-93592650D01*
D25*
X126942850Y-107746800D02*
X126942850Y-111185325D01*
X126968250Y-85915500D02*
X128749425Y-85915500D01*
X232057575Y-92970350D02*
X231476550Y-93551375D01*
D27*
X128749425Y-85915500D02*
X129085975Y-86252050D01*
D25*
X164417375Y-88157050D02*
X164417375Y-76434950D01*
X229492175Y-120986550D02*
X231447975Y-119030750D01*
X231476550Y-101228525D02*
X232035350Y-101787325D01*
X233721275Y-100101400D02*
X231857550Y-101965125D01*
X139503150Y-111121825D02*
X139503150Y-101009450D01*
X128828800Y-93592650D02*
X127003175Y-93592650D01*
D27*
X232130600Y-102155625D02*
X231940100Y-101965125D01*
D25*
X231447975Y-110258225D02*
X232130600Y-109575600D01*
X231940100Y-101965125D02*
X229231825Y-101965125D01*
X232057575Y-90417650D02*
X232057575Y-92970350D01*
X164719000Y-108061125D02*
X164719000Y-88458675D01*
X129085975Y-86252050D02*
X129085975Y-93335475D01*
D27*
X239807750Y-96539050D02*
X239807750Y-92414725D01*
D25*
X143389350Y-97123250D02*
X143389350Y-89312750D01*
D27*
X233721275Y-99599750D02*
X233721275Y-100101400D01*
X240786500Y-98288000D02*
X240786500Y-97517800D01*
X231857550Y-101965125D02*
X232035350Y-101787325D01*
X126942850Y-111185325D02*
X126876175Y-111252000D01*
X231857550Y-101965125D02*
X229231825Y-101965125D01*
%TO.N,Net-(C7-Pad1)*%
X80940275Y-101961950D02*
X80940275Y-113687225D01*
X74929096Y-80918204D02*
X74929096Y-95950771D01*
X80940275Y-113687225D02*
X81108550Y-113855500D01*
X75491225Y-80356075D02*
X74929096Y-80918204D01*
X74929096Y-95950771D02*
X80940275Y-101961950D01*
%TO.N,Net-(C8-Pad1)*%
X75834875Y-107292775D02*
X75834875Y-115274725D01*
X69951225Y-101409125D02*
X75834875Y-107292775D01*
X69951225Y-80356075D02*
X69951225Y-101409125D01*
X75834875Y-115274725D02*
X75580875Y-115528725D01*
%TO.N,Net-(D3-K)*%
X216811225Y-86083775D02*
X216811225Y-83181825D01*
X216811225Y-83181825D02*
X216601675Y-82972275D01*
X238747300Y-107927775D02*
X242322350Y-104352725D01*
X242322350Y-104352725D02*
X242322350Y-97208975D01*
X218078050Y-97361375D02*
X217912950Y-97361375D01*
X238747300Y-108178600D02*
X238747300Y-107927775D01*
X215406825Y-94855250D02*
X215406825Y-87488175D01*
X242322350Y-97208975D02*
X241134900Y-96021525D01*
X215406825Y-87488175D02*
X216811225Y-86083775D01*
X217912950Y-97361375D02*
X215406825Y-94855250D01*
%TO.N,Net-(D3-A)*%
X234073700Y-111842550D02*
X233680000Y-111448850D01*
X234073700Y-111842550D02*
X232555000Y-113361250D01*
X233680000Y-111448850D02*
X233680000Y-108159550D01*
X232555000Y-113361250D02*
X232555000Y-122817475D01*
X224412175Y-112153700D02*
X223901000Y-112664875D01*
X232555000Y-122817475D02*
X232657650Y-122920125D01*
X224412175Y-105746550D02*
X224412175Y-112153700D01*
%TO.N,Net-(D4-K)*%
X241547650Y-108156375D02*
X243469850Y-106234175D01*
X219452825Y-83283425D02*
X219141675Y-82972275D01*
X243469850Y-106234175D02*
X243469850Y-95397900D01*
X242287425Y-94065725D02*
X242287425Y-93510100D01*
X241303175Y-108156375D02*
X241547650Y-108156375D01*
X243544725Y-95323025D02*
X242287425Y-94065725D01*
X219411550Y-92478225D02*
X218016675Y-91083350D01*
X243469850Y-95397900D02*
X243544725Y-95323025D01*
X220656150Y-92478225D02*
X219411550Y-92478225D01*
X218016675Y-87485000D02*
X219452825Y-86048850D01*
X219452825Y-86048850D02*
X219452825Y-83283425D01*
X218016675Y-91083350D02*
X218016675Y-87485000D01*
%TO.N,TXDATA_4*%
X221872175Y-105746550D02*
X221872175Y-112522000D01*
X77098525Y-112858550D02*
X77089000Y-112849025D01*
X77098525Y-120510300D02*
X77098525Y-112858550D01*
X221872175Y-112522000D02*
X221945200Y-112595025D01*
X77089000Y-112849025D02*
X77089000Y-110839250D01*
X77089000Y-110839250D02*
X78317725Y-109610525D01*
%TO.N,DTR_1*%
X229692200Y-115804950D02*
X229587425Y-115804950D01*
X230285925Y-115211225D02*
X229692200Y-115804950D01*
X230285925Y-112036225D02*
X230285925Y-115211225D01*
X229492175Y-111242475D02*
X230285925Y-112036225D01*
X79759175Y-120596025D02*
X79759175Y-111667925D01*
X229492175Y-105746550D02*
X229492175Y-111242475D01*
X79759175Y-111667925D02*
X79657575Y-111566325D01*
%TO.N,NET36*%
X96650175Y-88376125D02*
X96650175Y-98463100D01*
X202926950Y-103562150D02*
X202926950Y-112417225D01*
X182403750Y-86883875D02*
X182403750Y-99704525D01*
X182403750Y-99704525D02*
X183880125Y-101180900D01*
X183880125Y-101180900D02*
X183924575Y-101180900D01*
X202926950Y-112417225D02*
X206682975Y-116173250D01*
X94138750Y-85832950D02*
X94138750Y-85864700D01*
X182683150Y-86604475D02*
X182403750Y-86883875D01*
X183924575Y-101180900D02*
X183988075Y-101244400D01*
X94138750Y-85864700D02*
X96650175Y-88376125D01*
%TO.N,~{ROMCS}*%
X227853875Y-74707750D02*
X227853875Y-80848200D01*
X225566825Y-111622425D02*
X226006025Y-112061625D01*
X162264725Y-89639775D02*
X163417250Y-90792300D01*
X225566825Y-87653274D02*
X225566825Y-111622425D01*
X227034725Y-73888600D02*
X227853875Y-74707750D01*
X158997650Y-90925650D02*
X158997650Y-90849450D01*
X216792175Y-105746550D02*
X216792175Y-111833025D01*
X216792175Y-111833025D02*
X216782650Y-111842550D01*
X228105749Y-85114350D02*
X225566825Y-87653274D01*
X160207325Y-89639775D02*
X162264725Y-89639775D01*
X228176675Y-81380550D02*
X228176675Y-85114350D01*
X227749100Y-80952975D02*
X228176675Y-81380550D01*
X216792175Y-111833025D02*
X216792175Y-111721300D01*
X163417250Y-110956725D02*
X163626800Y-111166275D01*
X158997650Y-90849450D02*
X160207325Y-89639775D01*
X163417250Y-90792300D02*
X163417250Y-110956725D01*
X228176675Y-85114350D02*
X228105749Y-85114350D01*
X227853875Y-80848200D02*
X227749100Y-80952975D01*
%TO.N,Net-(D10-A)*%
X228868288Y-78398688D02*
X228868288Y-75807887D01*
X158997650Y-103625650D02*
X158997650Y-102939850D01*
X228176675Y-88120000D02*
X228447600Y-87849075D01*
X231028875Y-84953475D02*
X230854250Y-84778850D01*
X228447600Y-87849075D02*
X228447600Y-87534750D01*
X228176675Y-93159800D02*
X228176675Y-88120000D01*
X158997650Y-102939850D02*
X156600525Y-100542725D01*
X230854250Y-84778850D02*
X230854250Y-80384650D01*
X228106825Y-93229650D02*
X228176675Y-93159800D01*
X228258688Y-96105662D02*
X228106825Y-95953799D01*
X230854250Y-80384650D02*
X228868288Y-78398688D01*
X156600525Y-100542725D02*
X156600525Y-93703775D01*
X228106825Y-95953799D02*
X228106825Y-93229650D01*
X156591000Y-90925650D02*
X156591000Y-93694250D01*
X228447600Y-87534750D02*
X231028875Y-84953475D01*
X156591000Y-93694250D02*
X156600525Y-93703775D01*
%TO.N,Net-(D10-K)*%
X154009725Y-90925650D02*
X154009725Y-99310825D01*
X161617025Y-99101275D02*
X161871025Y-99355275D01*
X161617025Y-90925650D02*
X161617025Y-99101275D01*
X154009725Y-99310825D02*
X154089100Y-99390200D01*
%TO.N,Net-(D11-A)*%
X106689525Y-86242525D02*
X106689525Y-89522300D01*
X107003850Y-85928200D02*
X106689525Y-86242525D01*
%TO.N,+9V*%
X109778800Y-80346550D02*
X109778800Y-80130650D01*
D25*
X104257475Y-85867875D02*
X109778800Y-80346550D01*
D27*
%TO.N,Net-(Q1-C)*%
X130587750Y-102701725D02*
X130588800Y-102702775D01*
X130588800Y-117383975D02*
X130654425Y-117449600D01*
X169764075Y-110582075D02*
X169764075Y-120805575D01*
X169646600Y-110347125D02*
X169999025Y-110347125D01*
X169999025Y-110347125D02*
X169764075Y-110582075D01*
X125928175Y-95057650D02*
X127003175Y-96132650D01*
X130587750Y-99717225D02*
X130587750Y-102701725D01*
X125928175Y-92035575D02*
X125928175Y-95057650D01*
X130588800Y-102702775D02*
X130588800Y-117383975D01*
X126968250Y-90995500D02*
X125928175Y-92035575D01*
X167303450Y-108003975D02*
X169646600Y-110347125D01*
X127003175Y-96132650D02*
X130587750Y-99717225D01*
%TO.N,Net-(Q1-B)*%
X160717025Y-93038725D02*
X160474025Y-92795725D01*
X162207575Y-112496600D02*
X164766625Y-115055650D01*
X160717025Y-106507075D02*
X160717025Y-93038725D01*
X164766625Y-115055650D02*
X164719000Y-115103275D01*
X164719000Y-115103275D02*
X164719000Y-120761125D01*
X162207575Y-107997625D02*
X160717025Y-106507075D01*
X162207575Y-107997625D02*
X162207575Y-112496600D01*
%TO.N,Net-(Q2-C)*%
X128143000Y-117494050D02*
X128076325Y-117560725D01*
X127206375Y-98672650D02*
X128143000Y-99609275D01*
X127003175Y-98672650D02*
X127206375Y-98672650D01*
X128143000Y-99609275D02*
X128143000Y-117494050D01*
%TO.N,COMMSOUT_30*%
X204092175Y-117503575D02*
X204060425Y-117471825D01*
X139738100Y-115636675D02*
X139417425Y-115316000D01*
X120476425Y-88732775D02*
X120476425Y-117491925D01*
X143078200Y-122472450D02*
X142744825Y-122139075D01*
X162207575Y-120697625D02*
X162207575Y-116357400D01*
X47323375Y-104587325D02*
X59670600Y-104587325D01*
X118246525Y-85880575D02*
X120475375Y-88109425D01*
X120475375Y-88731725D02*
X120476425Y-88732775D01*
X140617575Y-122139075D02*
X139738100Y-121259600D01*
X162207575Y-116357400D02*
X162321875Y-116243100D01*
X139738100Y-121259600D02*
X139738100Y-115636675D01*
X204092175Y-120986550D02*
X204092175Y-117503575D01*
X142744825Y-122139075D02*
X140617575Y-122139075D01*
X120476425Y-117491925D02*
X120519825Y-117535325D01*
X120475375Y-88109425D02*
X120475375Y-88731725D01*
X59670600Y-104587325D02*
X61849000Y-106765725D01*
%TO.N,Net-(Q3-B)*%
X117292055Y-97457950D02*
X117084475Y-97665530D01*
X118246525Y-88420575D02*
X119321525Y-89495575D01*
X118499880Y-100815775D02*
X118522750Y-100815775D01*
X118049675Y-105778300D02*
X118049675Y-109839125D01*
X118522750Y-105305225D02*
X118049675Y-105778300D01*
X117084475Y-97665530D02*
X117084475Y-99400370D01*
X119321525Y-89495575D02*
X119321525Y-96626100D01*
X118489675Y-97457950D02*
X117292055Y-97457950D01*
X117084475Y-99400370D02*
X118499880Y-100815775D01*
X119321525Y-96626100D02*
X118489675Y-97457950D01*
X118049675Y-109839125D02*
X118008400Y-109880400D01*
X118522750Y-100815775D02*
X118522750Y-105305225D01*
%TO.N,Net-(Q3-C)*%
X124377450Y-107915075D02*
X124377450Y-93983175D01*
X124377450Y-93983175D02*
X123729750Y-93335475D01*
D25*
%TO.N,+12V*%
X235718350Y-72037575D02*
X222650050Y-72037575D01*
X237823375Y-83546950D02*
X237093125Y-82816700D01*
X233429175Y-105832275D02*
X233429175Y-103114475D01*
X237093125Y-82816700D02*
X237093125Y-73412350D01*
X237093125Y-73412350D02*
X235718350Y-72037575D01*
X219322650Y-68916550D02*
X219322650Y-61769625D01*
X118176675Y-93452950D02*
X114979450Y-96650175D01*
D27*
X114169825Y-104673400D02*
X114344450Y-104848025D01*
X114979450Y-96650175D02*
X114484150Y-96650175D01*
X121812050Y-102441375D02*
X121881900Y-102371525D01*
D25*
X114484150Y-96650175D02*
X114484150Y-97145475D01*
D27*
X121821575Y-104651175D02*
X121812050Y-104641650D01*
D25*
X235867575Y-91011375D02*
X237823375Y-89055575D01*
X114169825Y-97174050D02*
X114169825Y-104673400D01*
X114484150Y-97145475D02*
X114455575Y-97174050D01*
X237823375Y-89055575D02*
X237823375Y-83546950D01*
D27*
X121821575Y-104848025D02*
X121821575Y-104651175D01*
D25*
X233429175Y-103114475D02*
X235867575Y-100676075D01*
X121812050Y-104641650D02*
X121812050Y-102441375D01*
D26*
X219322650Y-61769625D02*
X219348050Y-61744225D01*
D27*
X114455575Y-97174050D02*
X114169825Y-97174050D01*
D25*
X219421075Y-68808600D02*
X219414725Y-68808600D01*
X121821575Y-107930950D02*
X121821575Y-104848025D01*
X222650050Y-72037575D02*
X219421075Y-68808600D01*
X235867575Y-100676075D02*
X235867575Y-91011375D01*
D27*
%TO.N,Net-(Q4-C)*%
X118176675Y-98532950D02*
X119484775Y-99841050D01*
X119481600Y-99844225D02*
X119481600Y-107759500D01*
X119351425Y-107889675D02*
X119351425Y-107997625D01*
X119481600Y-107759500D02*
X119351425Y-107889675D01*
X119484775Y-99841050D02*
X119481600Y-99844225D01*
X119351425Y-107997625D02*
X119402225Y-108048425D01*
%TO.N,Net-(Q4-B)*%
X116163725Y-97053400D02*
X117224175Y-95992950D01*
X115233450Y-118598950D02*
X115662075Y-118170325D01*
X116163725Y-102971600D02*
X116163725Y-97053400D01*
X115662075Y-118170325D02*
X115662075Y-103473250D01*
X115662075Y-103473250D02*
X116163725Y-102971600D01*
X117224175Y-95992950D02*
X118176675Y-95992950D01*
%TO.N,Net-(Q5-C)*%
X106749850Y-101298375D02*
X106749850Y-107867450D01*
X111163100Y-98532950D02*
X109356525Y-98532950D01*
X109356525Y-98532950D02*
X106670475Y-101219000D01*
X106670475Y-101219000D02*
X106749850Y-101298375D01*
%TO.N,Net-(Q5-B)*%
X102796975Y-106664125D02*
X102867875Y-106593225D01*
X104193975Y-120135650D02*
X104193975Y-120611900D01*
X102867875Y-106593225D02*
X102867875Y-95187550D01*
X102796975Y-106689525D02*
X102796975Y-106664125D01*
X101660325Y-107826175D02*
X101660325Y-117602000D01*
X101660325Y-107826175D02*
X102796975Y-106689525D01*
X102867875Y-95187550D02*
X102831900Y-95151575D01*
X101660325Y-117602000D02*
X104193975Y-120135650D01*
%TO.N,CTS_34*%
X114449225Y-117757575D02*
X114449225Y-117846475D01*
X111232950Y-88385650D02*
X113055400Y-90208100D01*
X113055400Y-90208100D02*
X113055400Y-106638725D01*
X114449225Y-117846475D02*
X111750475Y-120545225D01*
X213048850Y-116395500D02*
X213048850Y-112976025D01*
X214252175Y-117598825D02*
X213048850Y-116395500D01*
X114328575Y-107911900D02*
X114328575Y-117636925D01*
X214252175Y-120986550D02*
X214252175Y-117598825D01*
X113055400Y-106638725D02*
X114328575Y-107911900D01*
X114328575Y-117636925D02*
X114449225Y-117757575D01*
%TO.N,Net-(Q6-C)*%
X100292950Y-90956350D02*
X100390325Y-90858975D01*
X100225225Y-119091075D02*
X100180775Y-119091075D01*
X100180775Y-119091075D02*
X100292950Y-118978900D01*
X100292950Y-118978900D02*
X100292950Y-90956350D01*
X101660325Y-120526175D02*
X100225225Y-119091075D01*
%TO.N,ERASE_35*%
X125628400Y-116227225D02*
X125736350Y-116335175D01*
X125028325Y-90909775D02*
X125028325Y-95456375D01*
X125028325Y-95456375D02*
X125628400Y-96056450D01*
X125628400Y-96056450D02*
X125628400Y-116227225D01*
X122574050Y-88455500D02*
X125028325Y-90909775D01*
X125736350Y-116335175D02*
X126942850Y-117541675D01*
X126942850Y-117541675D02*
X126942850Y-120446800D01*
%TO.N,Net-(Q9-C)*%
X141382750Y-120650000D02*
X141395450Y-120637300D01*
X123161425Y-95913575D02*
X123161425Y-118687850D01*
X123161425Y-118687850D02*
X123075700Y-118773575D01*
X123139200Y-95913575D02*
X123161425Y-95913575D01*
X122574050Y-95348425D02*
X123139200Y-95913575D01*
X141395450Y-120637300D02*
X145824575Y-120637300D01*
X122574050Y-90995500D02*
X122574050Y-95348425D01*
%TO.N,~{IORQGE}*%
X197893525Y-75227400D02*
X197893525Y-87463850D01*
X199062975Y-88633300D02*
X199062975Y-95577025D01*
X196554725Y-73888600D02*
X197893525Y-75227400D01*
X197893525Y-87463850D02*
X199062975Y-88633300D01*
%TO.N,A0*%
X214061675Y-90592275D02*
X214363300Y-90290650D01*
X215476675Y-78500825D02*
X215458675Y-78482825D01*
X212866825Y-102538750D02*
X215667175Y-105339100D01*
X186394725Y-79651225D02*
X186410600Y-79667100D01*
X215476675Y-86211825D02*
X215476675Y-78500825D01*
X237788450Y-114401600D02*
X237847300Y-114342750D01*
X214061675Y-90592275D02*
X212991700Y-91662250D01*
X237847300Y-97470800D02*
X238229775Y-97088325D01*
X214363300Y-90290650D02*
X214363300Y-87325200D01*
X215667175Y-114832350D02*
X215677750Y-114842925D01*
X212866825Y-92393550D02*
X212866825Y-102538750D01*
X237847300Y-114342750D02*
X237847300Y-97470800D01*
X212991700Y-91662250D02*
X212991700Y-92268675D01*
X212991700Y-92268675D02*
X212866825Y-92393550D01*
X186394725Y-73888600D02*
X186394725Y-79651225D01*
X215667175Y-105339100D02*
X215667175Y-114832350D01*
X214363300Y-87325200D02*
X215476675Y-86211825D01*
%TO.N,RXDATA_33*%
X167303450Y-116846350D02*
X167452675Y-116697125D01*
X167303450Y-120703975D02*
X167303450Y-116846350D01*
%TO.N,Net-(R21-Pad2)*%
X173745525Y-95554800D02*
X172319950Y-96980375D01*
X172319950Y-96980375D02*
X172319950Y-107981750D01*
X173745525Y-87366475D02*
X173745525Y-95554800D01*
X103300650Y-76109075D02*
X96935925Y-82473800D01*
X173612175Y-87233125D02*
X173745525Y-87366475D01*
X96897825Y-82473800D02*
X96650175Y-82721450D01*
X96935925Y-82473800D02*
X96897825Y-82473800D01*
X103637350Y-76109075D02*
X103300650Y-76109075D01*
X96650175Y-82721450D02*
X96650175Y-85763100D01*
%TO.N,WRPROT_32*%
X154543125Y-107975400D02*
X154543125Y-118163975D01*
X154543125Y-118163975D02*
X157076775Y-120697625D01*
%TO.N,Net-(R22-Pad2)*%
X126317375Y-76469875D02*
X126317375Y-83305650D01*
X126317375Y-83305650D02*
X125758575Y-83864450D01*
X126678175Y-76109075D02*
X126317375Y-76469875D01*
X127378825Y-76109075D02*
X126678175Y-76109075D01*
%TO.N,Net-(R23-Pad2)*%
X101742875Y-85728175D02*
X111361975Y-76109075D01*
X111361975Y-76109075D02*
X113037350Y-76109075D01*
%TO.N,Net-(R24-Pad2)*%
X67608450Y-100847525D02*
X67487800Y-100847525D01*
X74628375Y-107867450D02*
X67608450Y-100847525D01*
X67487800Y-100847525D02*
X67181225Y-100540950D01*
X67181225Y-100540950D02*
X67181225Y-80356075D01*
%TO.N,Net-(R25-Pad2)*%
X79759175Y-102292150D02*
X79759175Y-107896025D01*
X72721225Y-80356075D02*
X72721225Y-95254200D01*
X72721225Y-95254200D02*
X79759175Y-102292150D01*
%TO.N,DATA2_38*%
X152066625Y-122580400D02*
X152066625Y-125698250D01*
X150161625Y-120675400D02*
X152066625Y-122580400D01*
%TO.N,Net-(SK4-Pin_A5)*%
X47323375Y-102047325D02*
X60760325Y-102047325D01*
X60760325Y-102047325D02*
X61791850Y-101015800D01*
%TO.N,Net-(U1-~{ROM_EN})*%
X151453850Y-103625650D02*
X154009725Y-103625650D01*
X148367750Y-106711750D02*
X151453850Y-103625650D01*
X148367750Y-124129800D02*
X148367750Y-106711750D01*
X213083775Y-120322975D02*
X213083775Y-124806075D01*
X211931250Y-119170450D02*
X213083775Y-120322975D01*
X148367750Y-124129800D02*
X149691725Y-125453775D01*
X214252175Y-105746550D02*
X214252175Y-109750225D01*
X214252175Y-109750225D02*
X211931250Y-112071150D01*
X149691725Y-125453775D02*
X149691725Y-125733175D01*
X211931250Y-112071150D02*
X211931250Y-119170450D01*
%TO.N,Net-(R34-Pad1)*%
X74106225Y-77516075D02*
X75973025Y-77516075D01*
X78263750Y-79806800D02*
X78263750Y-91074875D01*
X75973025Y-77516075D02*
X78263750Y-79806800D01*
X78263750Y-91074875D02*
X77812900Y-91525725D01*
%TO.N,DATA1_37*%
X174853600Y-120783350D02*
X174853600Y-124936250D01*
X60646025Y-112207325D02*
X61791850Y-111061500D01*
X47323375Y-112207325D02*
X60646025Y-112207325D01*
X174853600Y-124936250D02*
X175056800Y-125139450D01*
%TO.N,~{IORQ}*%
X206714725Y-68808600D02*
X205526125Y-69997200D01*
X206076550Y-81086325D02*
X206076550Y-105190925D01*
X206076550Y-105190925D02*
X206632175Y-105746550D01*
X205526125Y-80535900D02*
X206076550Y-81086325D01*
X205526125Y-69997200D02*
X205526125Y-80535900D01*
X206648050Y-61744225D02*
X206648050Y-68741925D01*
X206648050Y-68741925D02*
X206714725Y-68808600D01*
%TO.N,COMMSCLK_31*%
X47323375Y-109667325D02*
X60731750Y-109667325D01*
X60731750Y-109667325D02*
X61680725Y-108718350D01*
%TO.N,R{slash}W_29*%
X61763275Y-97837625D02*
X67938650Y-104013000D01*
X59188350Y-97837625D02*
X61763275Y-97837625D01*
X67938650Y-104013000D02*
X67938650Y-115484275D01*
%TO.N,A15*%
X166008050Y-61744225D02*
X166008050Y-68741925D01*
X166008050Y-68741925D02*
X166074725Y-68808600D01*
X167426125Y-99439850D02*
X167426125Y-70160000D01*
X168513125Y-100526850D02*
X167426125Y-99439850D01*
X167426125Y-70160000D02*
X166074725Y-68808600D01*
X168513125Y-101155500D02*
X168513125Y-100526850D01*
%TO.N,A13*%
X169966125Y-70160000D02*
X168614725Y-68808600D01*
X169249725Y-87757000D02*
X169249725Y-79940150D01*
X168548050Y-61744225D02*
X168548050Y-68741925D01*
X168548050Y-68741925D02*
X168614725Y-68808600D01*
X169144950Y-87861775D02*
X169249725Y-87757000D01*
X169249725Y-79940150D02*
X169966125Y-79223750D01*
X169966125Y-79223750D02*
X169966125Y-70160000D01*
%TO.N,D7*%
X171154725Y-68808600D02*
X172493525Y-70147400D01*
X182489475Y-101768275D02*
X182594250Y-101663500D01*
X182489475Y-119729250D02*
X182489475Y-101768275D01*
X181232175Y-120986550D02*
X182489475Y-119729250D01*
X182594250Y-101663500D02*
X181238525Y-100307775D01*
X171088050Y-68741925D02*
X171154725Y-68808600D01*
X172493525Y-70147400D02*
X172493525Y-94806550D01*
X181238525Y-92963500D02*
X181238525Y-98107500D01*
X181238525Y-100307775D02*
X181238525Y-98107500D01*
D25*
X171088050Y-61744225D02*
X171088050Y-68741925D01*
D27*
X181213125Y-92938100D02*
X181238525Y-92963500D01*
X172493525Y-94806550D02*
X172389800Y-94910275D01*
%TO.N,D0*%
X177586125Y-74681200D02*
X177586125Y-81755100D01*
X178698525Y-82867500D02*
X179873275Y-84042250D01*
X178774725Y-68808600D02*
X177485675Y-70097650D01*
X179943125Y-84042250D02*
X179943125Y-116960650D01*
X178708050Y-61744225D02*
X178708050Y-68741925D01*
X178708050Y-68741925D02*
X178774725Y-68808600D01*
X177586125Y-81755100D02*
X178698525Y-82867500D01*
X177485675Y-70097650D02*
X177485675Y-74580750D01*
X179873275Y-84042250D02*
X179943125Y-84042250D01*
X177485675Y-74580750D02*
X177586125Y-74681200D01*
%TO.N,D1*%
X177396775Y-117528975D02*
X177573525Y-117352225D01*
X181248050Y-68741925D02*
X181314725Y-68808600D01*
X177573525Y-84282500D02*
X176158525Y-82867500D01*
X180041550Y-80987900D02*
X179974875Y-81054575D01*
X177573525Y-117352225D02*
X177573525Y-84282500D01*
X180041550Y-70081775D02*
X180041550Y-80987900D01*
X181248050Y-61744225D02*
X181248050Y-68741925D01*
X181314725Y-68808600D02*
X180041550Y-70081775D01*
%TO.N,D2*%
X174882175Y-99231450D02*
X174952025Y-99301300D01*
X182666125Y-69997200D02*
X182666125Y-79728575D01*
X183854725Y-68808600D02*
X182666125Y-69997200D01*
X182666125Y-79728575D02*
X182508525Y-79886175D01*
X173662975Y-116820950D02*
X174952025Y-118110000D01*
X183788050Y-61744225D02*
X183788050Y-68741925D01*
X183788050Y-68741925D02*
X183854725Y-68808600D01*
X174952025Y-99301300D02*
X173662975Y-100590350D01*
X173618525Y-82867500D02*
X174882175Y-84131150D01*
X173662975Y-100590350D02*
X173662975Y-116820950D01*
X174882175Y-84131150D02*
X174882175Y-99231450D01*
%TO.N,D6*%
X183772175Y-120986550D02*
X185070750Y-119687975D01*
X185280300Y-96002475D02*
X185043325Y-95765500D01*
X185070750Y-96212025D02*
X185280300Y-96002475D01*
X185043325Y-95765500D02*
X185043325Y-70160000D01*
X185043325Y-70160000D02*
X186394725Y-68808600D01*
X186328050Y-68741925D02*
X186394725Y-68808600D01*
X185070750Y-119687975D02*
X185070750Y-96212025D01*
X186328050Y-61744225D02*
X186328050Y-68741925D01*
%TO.N,D5*%
X188868050Y-61744225D02*
X188868050Y-68741925D01*
X187566300Y-96129475D02*
X187661550Y-96224725D01*
X187661550Y-119637175D02*
X186312175Y-120986550D01*
X187661550Y-96224725D02*
X187661550Y-119637175D01*
X187626625Y-70116700D02*
X188934725Y-68808600D01*
X187566300Y-96129475D02*
X187626625Y-96069150D01*
X188868050Y-68741925D02*
X188934725Y-68808600D01*
X187626625Y-96069150D02*
X187626625Y-70116700D01*
%TO.N,D3*%
X190273525Y-94774800D02*
X190273525Y-70009800D01*
X191408050Y-61744225D02*
X191408050Y-68741925D01*
X191408050Y-68741925D02*
X191474725Y-68808600D01*
X190103125Y-94945200D02*
X190273525Y-94774800D01*
X190103125Y-119697500D02*
X191392175Y-120986550D01*
X190103125Y-94945200D02*
X190103125Y-119697500D01*
X190273525Y-70009800D02*
X191474725Y-68808600D01*
%TO.N,D4*%
X191874775Y-122237500D02*
X190103125Y-122237500D01*
X194014725Y-68808600D02*
X192813525Y-70009800D01*
X192712975Y-121399300D02*
X191874775Y-122237500D01*
X192712975Y-96135825D02*
X192712975Y-121399300D01*
X190103125Y-122237500D02*
X188852175Y-120986550D01*
X193948050Y-61744225D02*
X193948050Y-68741925D01*
X192813525Y-96035275D02*
X192712975Y-96135825D01*
X192813525Y-70009800D02*
X192813525Y-96035275D01*
X193948050Y-68741925D02*
X194014725Y-68808600D01*
%TO.N,~{INT}*%
X196488050Y-68741925D02*
X196554725Y-68808600D01*
X196488050Y-61744225D02*
X196488050Y-68741925D01*
%TO.N,~{NMI}*%
X199028050Y-61744225D02*
X199028050Y-68741925D01*
X199028050Y-68741925D02*
X199094725Y-68808600D01*
%TO.N,~{HALT}*%
X201568050Y-61744225D02*
X201568050Y-68741925D01*
X201568050Y-68741925D02*
X201634725Y-68808600D01*
%TO.N,~{MREQ}*%
X204108050Y-61744225D02*
X204108050Y-68741925D01*
X204174725Y-68808600D02*
X202986125Y-69997200D01*
X202986125Y-69997200D02*
X202986125Y-79812000D01*
X205419325Y-104419400D02*
X204092175Y-105746550D01*
X202986125Y-79812000D02*
X205482825Y-82308700D01*
X205419325Y-103984425D02*
X205419325Y-104419400D01*
X204108050Y-68741925D02*
X204174725Y-68808600D01*
X205482825Y-103920925D02*
X205419325Y-103984425D01*
X205482825Y-82308700D02*
X205482825Y-103920925D01*
%TO.N,~{RD}*%
X208066125Y-69997200D02*
X208066125Y-75341600D01*
X208781650Y-105746550D02*
X209172175Y-105746550D01*
X209188050Y-61744225D02*
X209188050Y-68741925D01*
X209188050Y-68741925D02*
X209254725Y-68808600D01*
X206736950Y-103701850D02*
X208781650Y-105746550D01*
X206736950Y-76806425D02*
X206736950Y-103701850D01*
X209254725Y-68808600D02*
X208066125Y-69997200D01*
X208066125Y-75341600D02*
X208133950Y-75409425D01*
X208133950Y-75409425D02*
X206736950Y-76806425D01*
%TO.N,~{WR}*%
X211213700Y-75523725D02*
X211213700Y-98526600D01*
X210606125Y-69997200D02*
X210606125Y-74916150D01*
X210606125Y-74916150D02*
X211213700Y-75523725D01*
X211213700Y-98526600D02*
X211712175Y-99025075D01*
X211794725Y-68808600D02*
X210606125Y-69997200D01*
X211712175Y-99025075D02*
X211712175Y-105746550D01*
X211728050Y-68741925D02*
X211794725Y-68808600D01*
X211728050Y-61744225D02*
X211728050Y-68741925D01*
D26*
%TO.N,-5V*%
X214268050Y-68891150D02*
X214242650Y-68916550D01*
D25*
X214268050Y-61744225D02*
X214268050Y-68891150D01*
D27*
%TO.N,~{WAIT}*%
X212048725Y-125901450D02*
X210585050Y-124437775D01*
X216808050Y-61744225D02*
X216827100Y-61744225D01*
X211734400Y-75898375D02*
X213074250Y-74558525D01*
X210585050Y-124437775D02*
X210585050Y-111388525D01*
X216874725Y-61722000D02*
X216874725Y-68808600D01*
X212782150Y-109051725D02*
X212921850Y-109051725D01*
X212397975Y-103257350D02*
X212397975Y-97824925D01*
X210585050Y-111388525D02*
X210515200Y-111318675D01*
X212188425Y-125761750D02*
X212048725Y-125901450D01*
X226952175Y-120986550D02*
X222176975Y-125761750D01*
X212921850Y-104409875D02*
X213061550Y-104270175D01*
X210515200Y-111318675D02*
X212782150Y-109051725D01*
X213074250Y-74558525D02*
X213074250Y-72609075D01*
X216808050Y-68875275D02*
X216808050Y-61744225D01*
X212502750Y-103711375D02*
X212502750Y-103362125D01*
X216862025Y-61709300D02*
X216874725Y-61722000D01*
X216827100Y-61744225D02*
X216862025Y-61709300D01*
X212397975Y-97824925D02*
X211734400Y-97161350D01*
X213074250Y-72609075D02*
X216808050Y-68875275D01*
X222176975Y-125761750D02*
X212188425Y-125761750D01*
X213061550Y-104270175D02*
X212502750Y-103711375D01*
X212921850Y-109051725D02*
X212921850Y-104409875D01*
X211734400Y-97161350D02*
X211734400Y-75898375D01*
X212502750Y-103362125D02*
X212397975Y-103257350D01*
%TO.N,~{M1}*%
X224428050Y-68741925D02*
X224494725Y-68808600D01*
X226555300Y-75901550D02*
X226533075Y-75923775D01*
X227218875Y-80359250D02*
X225450400Y-82127725D01*
X224520125Y-90293825D02*
X224221675Y-90592275D01*
X224520125Y-87369650D02*
X224520125Y-90293825D01*
X226533075Y-75923775D02*
X226323525Y-75923775D01*
X227218875Y-76819125D02*
X227218875Y-80359250D01*
X224428050Y-61744225D02*
X224428050Y-68741925D01*
X225450400Y-86439375D02*
X224520125Y-87369650D01*
X225450400Y-82127725D02*
X225450400Y-86439375D01*
X226323525Y-75923775D02*
X227218875Y-76819125D01*
%TO.N,~{RFSH}*%
X226968050Y-68741925D02*
X227034725Y-68808600D01*
X226968050Y-61744225D02*
X226968050Y-68741925D01*
%TO.N,A8*%
X196478525Y-105740200D02*
X196472175Y-105746550D01*
X196478525Y-98107500D02*
X196478525Y-105740200D01*
X231098725Y-76257150D02*
X231098725Y-78679675D01*
X197824725Y-89185750D02*
X197824725Y-95592900D01*
X232133775Y-79714725D02*
X232133775Y-83165950D01*
X230746300Y-75904725D02*
X231098725Y-76257150D01*
X229508050Y-68741925D02*
X229574725Y-68808600D01*
X229508050Y-61744225D02*
X229508050Y-68741925D01*
X197824725Y-95592900D02*
X196478525Y-96939100D01*
X196478525Y-96939100D02*
X196478525Y-98107500D01*
X231098725Y-78679675D02*
X232133775Y-79714725D01*
X197754875Y-89115900D02*
X197824725Y-89185750D01*
%TO.N,A10*%
X232048050Y-68741925D02*
X232114725Y-68808600D01*
X186318525Y-87318850D02*
X186318525Y-98107500D01*
X233945850Y-86291000D02*
X233508550Y-86728300D01*
X233945850Y-76297575D02*
X233945850Y-86291000D01*
X232048050Y-61744225D02*
X232048050Y-68741925D01*
X186318525Y-98107500D02*
X186318525Y-103174800D01*
X233508550Y-86728300D02*
X233486325Y-86728300D01*
X233397425Y-75749150D02*
X233945850Y-76297575D01*
X186318525Y-103174800D02*
X186397900Y-103254175D01*
%TO.N,A14*%
X166789100Y-74602975D02*
X166074725Y-73888600D01*
X166592250Y-100491925D02*
X166789100Y-100295075D01*
X166789100Y-100295075D02*
X166789100Y-74602975D01*
%TO.N,A12*%
X169021125Y-74295000D02*
X168614725Y-73888600D01*
X168548050Y-93583125D02*
X168006579Y-93041654D01*
X169021125Y-76438125D02*
X169021125Y-74295000D01*
X168006579Y-93041654D02*
X168006579Y-77452671D01*
X188852175Y-100631625D02*
X188852175Y-105746550D01*
X191398525Y-92983050D02*
X191398525Y-98107500D01*
X168006579Y-77452671D02*
X169021125Y-76438125D01*
%TO.N,A1*%
X218016675Y-86066850D02*
X218016675Y-79029975D01*
X188934725Y-79584550D02*
X188934725Y-73888600D01*
X188928375Y-79590900D02*
X188934725Y-79584550D01*
X218016675Y-79029975D02*
X218039950Y-79006700D01*
X218144725Y-86194900D02*
X218016675Y-86066850D01*
X216811225Y-90382725D02*
X216811225Y-87528400D01*
X216601675Y-90592275D02*
X216811225Y-90382725D01*
X216811225Y-87528400D02*
X218144725Y-86194900D01*
%TO.N,A2*%
X191474725Y-79305150D02*
X191131825Y-79648050D01*
X223096675Y-81031300D02*
X223096675Y-85980050D01*
X221922975Y-90350975D02*
X221681675Y-90592275D01*
X221922975Y-87153750D02*
X221922975Y-90350975D01*
X222951675Y-80886300D02*
X223096675Y-81031300D01*
X223096675Y-85980050D02*
X221922975Y-87153750D01*
X191474725Y-73888600D02*
X191474725Y-79305150D01*
%TO.N,A3*%
X201552175Y-105746550D02*
X201552175Y-102669975D01*
X204085825Y-100136325D02*
X204085825Y-85448775D01*
X194014725Y-80124300D02*
X193821050Y-80317975D01*
X204085825Y-85448775D02*
X204120750Y-85413850D01*
X194014725Y-73888600D02*
X194014725Y-80124300D01*
X201552175Y-102669975D02*
X204085825Y-100136325D01*
%TO.N,~{RESET}*%
X226952175Y-105746550D02*
X226952175Y-111877475D01*
X220110050Y-72145525D02*
X216077800Y-72145525D01*
X241106325Y-87810975D02*
X241106325Y-76628625D01*
X222243650Y-75882500D02*
X220766125Y-74404975D01*
X240214150Y-113242725D02*
X240403175Y-113053700D01*
X240403175Y-113053700D02*
X240403175Y-107408550D01*
X216077800Y-72145525D02*
X214334725Y-73888600D01*
X240403175Y-107408550D02*
X242865275Y-104946450D01*
X242865275Y-96446975D02*
X241084100Y-94665800D01*
X220766125Y-72801600D02*
X220110050Y-72145525D01*
X241017425Y-76539725D02*
X241106325Y-76628625D01*
X242865275Y-104946450D02*
X242865275Y-96446975D01*
X220766125Y-74404975D02*
X220766125Y-72801600D01*
X223189800Y-75882500D02*
X222243650Y-75882500D01*
X241084100Y-87833200D02*
X241106325Y-87810975D01*
X226952175Y-111877475D02*
X228155500Y-113080800D01*
X241084100Y-94665800D02*
X241084100Y-87833200D01*
%TO.N,A7*%
X219862400Y-78416150D02*
X219862400Y-78143100D01*
X220065600Y-78482825D02*
X219929075Y-78482825D01*
X216874725Y-75155425D02*
X216874725Y-73888600D01*
X219929075Y-78482825D02*
X219862400Y-78416150D01*
X219862400Y-78143100D02*
X216874725Y-75155425D01*
X199018525Y-77752575D02*
X199018525Y-82867500D01*
X199005825Y-77739875D02*
X199018525Y-77752575D01*
%TO.N,A6*%
X221183200Y-77193775D02*
X221319725Y-77193775D01*
X219414725Y-73888600D02*
X219414725Y-75425300D01*
X220556675Y-89177275D02*
X219141675Y-90592275D01*
X221319725Y-79844900D02*
X220556675Y-80607950D01*
X220556675Y-80607950D02*
X220556675Y-89177275D01*
X219414725Y-75425300D02*
X221183200Y-77193775D01*
X196478525Y-82867500D02*
X196478525Y-92957650D01*
X196478525Y-92957650D02*
X196586475Y-93065600D01*
X221319725Y-77193775D02*
X221319725Y-79844900D01*
%TO.N,A5*%
X224669350Y-77228700D02*
X222091250Y-79806800D01*
X221951550Y-80457675D02*
X221951550Y-82702400D01*
X222961200Y-74088625D02*
X224669350Y-75796775D01*
X222551625Y-73888600D02*
X222751650Y-74088625D01*
X222091250Y-79806800D02*
X222091250Y-80317975D01*
X222751650Y-74088625D02*
X222961200Y-74088625D01*
X224669350Y-75796775D02*
X224669350Y-77228700D01*
X221954725Y-73888600D02*
X222551625Y-73888600D01*
X221951550Y-82702400D02*
X221681675Y-82972275D01*
X222091250Y-80317975D02*
X221951550Y-80457675D01*
%TO.N,A4*%
X200526650Y-94624525D02*
X202342750Y-92808425D01*
X225593275Y-80219550D02*
X225593275Y-79686150D01*
X236972475Y-102114350D02*
X236972475Y-95859600D01*
X235178600Y-109296200D02*
X235129925Y-109247525D01*
X199012175Y-105632250D02*
X200526650Y-104117775D01*
X200920350Y-115903375D02*
X200955275Y-115938300D01*
X236991525Y-92106750D02*
X239214025Y-89884250D01*
X225158300Y-74552175D02*
X224494725Y-73888600D01*
X236991525Y-95840550D02*
X236991525Y-92106750D01*
X225593275Y-79686150D02*
X225158300Y-79251175D01*
X200793350Y-107527725D02*
X200920350Y-107527725D01*
X200920350Y-107527725D02*
X200920350Y-115903375D01*
X239214025Y-79825850D02*
X239248950Y-79790925D01*
X235129925Y-109247525D02*
X235129925Y-103956900D01*
X199012175Y-105746550D02*
X200793350Y-107527725D01*
X202342750Y-84747100D02*
X204155675Y-82934175D01*
X199012175Y-105746550D02*
X199012175Y-105632250D01*
X239214025Y-89884250D02*
X239214025Y-79825850D01*
X202342750Y-92808425D02*
X202342750Y-84747100D01*
X236972475Y-95859600D02*
X236991525Y-95840550D01*
X235178600Y-115852575D02*
X235178600Y-109296200D01*
X235129925Y-103956900D02*
X236972475Y-102114350D01*
X234632500Y-116398675D02*
X235178600Y-115852575D01*
X225158300Y-79251175D02*
X225158300Y-74552175D01*
X200526650Y-104117775D02*
X200526650Y-94624525D01*
%TO.N,A9*%
X195208525Y-89150825D02*
X193938525Y-90420825D01*
X232835450Y-84867750D02*
X232800525Y-84867750D01*
X233495850Y-84207350D02*
X232835450Y-84867750D01*
X233495850Y-79076550D02*
X233495850Y-84207350D01*
X193932175Y-105746550D02*
X193932175Y-98113850D01*
X232114725Y-77695425D02*
X233495850Y-79076550D01*
X232114725Y-73888600D02*
X232114725Y-77695425D01*
X193938525Y-90420825D02*
X193938525Y-98107500D01*
X193932175Y-98113850D02*
X193938525Y-98107500D01*
%TO.N,A11*%
X234654725Y-88572975D02*
X234683300Y-88601550D01*
X234654725Y-73888600D02*
X234654725Y-88572975D01*
X183762650Y-89115900D02*
X183778525Y-89131775D01*
X183778525Y-89131775D02*
X183778525Y-98107500D01*
%TO.N,NCA4*%
X173628050Y-61744225D02*
X173628050Y-68741925D01*
X173628050Y-68741925D02*
X173694725Y-68808600D01*
%TO.N,Net-(U1-CLOCK)*%
X219332175Y-105479850D02*
X219332175Y-105746550D01*
X213991825Y-101965125D02*
X214315675Y-101965125D01*
X214315675Y-101965125D02*
X216166700Y-103816150D01*
X217668475Y-103816150D02*
X219332175Y-105479850D01*
X216166700Y-103816150D02*
X217668475Y-103816150D01*
%TO.N,Net-(U4-Pad13)*%
X228367175Y-111317625D02*
X229739825Y-112690275D01*
X229739825Y-112690275D02*
X229739825Y-114017425D01*
X228367175Y-103640475D02*
X228367175Y-111317625D01*
X228377750Y-115379500D02*
X228377750Y-119075200D01*
X229739825Y-114017425D02*
X228377750Y-115379500D01*
X226691825Y-101965125D02*
X228367175Y-103640475D01*
X217477975Y-94345125D02*
X220486825Y-97353975D01*
X220486825Y-97353975D02*
X220486825Y-118705850D01*
X216531825Y-94345125D02*
X217477975Y-94345125D01*
X220486825Y-118705850D02*
X220668850Y-118887875D01*
%TO.N,NCA28*%
X234588050Y-61744225D02*
X234588050Y-68741925D01*
X234588050Y-68741925D02*
X234654725Y-68808600D01*
%TD*%
M02*
