%TF.GenerationSoftware,KiCad,Pcbnew,7.0.8*%
%TF.CreationDate,2023-10-30T18:51:19+00:00*%
%TF.ProjectId,Interface 1 Recreated,496e7465-7266-4616-9365-203120526563,rev?*%
%TF.SameCoordinates,Original*%
%TF.FileFunction,Soldermask,Top*%
%TF.FilePolarity,Negative*%
%FSLAX46Y46*%
G04 Gerber Fmt 4.6, Leading zero omitted, Abs format (unit mm)*
G04 Created by KiCad (PCBNEW 7.0.8) date 2023-10-30 18:51:19*
%MOMM*%
%LPD*%
G01*
G04 APERTURE LIST*
%ADD10C,1.600000*%
%ADD11O,1.600000X1.600000*%
%ADD12C,1.727200*%
%ADD13R,1.150000X1.150000*%
%ADD14C,1.150000*%
%ADD15R,1.500000X1.500000*%
%ADD16C,1.500000*%
%ADD17R,1.600000X1.600000*%
%ADD18R,4.300000X3.500000*%
%ADD19R,7.620000X1.524000*%
%ADD20C,2.200000*%
%ADD21O,2.200000X2.200000*%
%ADD22C,4.000000*%
%ADD23R,1.524000X7.620000*%
G04 APERTURE END LIST*
D10*
%TO.C,R33*%
X157076775Y-107997625D03*
D11*
X157076775Y-120697625D03*
%TD*%
D10*
%TO.C,R18*%
X106749850Y-107867450D03*
D11*
X106749850Y-120567450D03*
%TD*%
D12*
%TO.C,SK5*%
X166074725Y-68808600D03*
X168614725Y-68808600D03*
X171154725Y-68808600D03*
X173694725Y-68808600D03*
X178774725Y-68808600D03*
X181314725Y-68808600D03*
X183854725Y-68808600D03*
X186394725Y-68808600D03*
X188934725Y-68808600D03*
X191474725Y-68808600D03*
X194014725Y-68808600D03*
X196554725Y-68808600D03*
X199094725Y-68808600D03*
X201634725Y-68808600D03*
X204174725Y-68808600D03*
X206714725Y-68808600D03*
X209254725Y-68808600D03*
X211794725Y-68808600D03*
X214334725Y-68808600D03*
X216874725Y-68808600D03*
X219414725Y-68808600D03*
X221954725Y-68808600D03*
X224494725Y-68808600D03*
X227034725Y-68808600D03*
X229574725Y-68808600D03*
X232114725Y-68808600D03*
X234654725Y-68808600D03*
X166074725Y-73888600D03*
X168614725Y-73888600D03*
X171154725Y-73888600D03*
X173694725Y-73888600D03*
X178774725Y-73888600D03*
X181314725Y-73888600D03*
X183854725Y-73888600D03*
X186394725Y-73888600D03*
X188934725Y-73888600D03*
X191474725Y-73888600D03*
X194014725Y-73888600D03*
X196554725Y-73888600D03*
X199094725Y-73888600D03*
X201634725Y-73888600D03*
X204174725Y-73888600D03*
X206714725Y-73888600D03*
X209254725Y-73888600D03*
X211794725Y-73888600D03*
X214334725Y-73888600D03*
X216874725Y-73888600D03*
X219414725Y-73888600D03*
X221954725Y-73888600D03*
X224494725Y-73888600D03*
X227034725Y-73888600D03*
X229574725Y-73888600D03*
X232114725Y-73888600D03*
X234654725Y-73888600D03*
%TD*%
D10*
%TO.C,R7*%
X172319950Y-120681750D03*
D11*
X172319950Y-107981750D03*
%TD*%
D13*
%TO.C,D8*%
X94138750Y-85832950D03*
D14*
X94138750Y-98532950D03*
%TD*%
D10*
%TO.C,R28*%
X72031225Y-107803950D03*
D11*
X72031225Y-120503950D03*
%TD*%
D10*
%TO.C,R14*%
X104193975Y-107911900D03*
D11*
X104193975Y-120611900D03*
%TD*%
D15*
%TO.C,Q5*%
X111163100Y-98532950D03*
D16*
X111163100Y-95992950D03*
X111163100Y-93452950D03*
%TD*%
D10*
%TO.C,C3*%
X260346825Y-116544725D03*
D11*
X260346825Y-103844725D03*
%TD*%
D10*
%TO.C,R22*%
X99056825Y-98463100D03*
D11*
X99056825Y-85763100D03*
%TD*%
D10*
%TO.C,C5*%
X236254925Y-120818275D03*
D11*
X236254925Y-108318275D03*
%TD*%
D13*
%TO.C,D3*%
X238747300Y-108178600D03*
D14*
X238747300Y-120878600D03*
%TD*%
D15*
%TO.C,Q9*%
X122574050Y-90995500D03*
D16*
X122574050Y-88455500D03*
X122574050Y-85915500D03*
%TD*%
D10*
%TO.C,R32*%
X154009725Y-103625650D03*
D11*
X154009725Y-90925650D03*
%TD*%
D10*
%TO.C,R3*%
X164719000Y-108061125D03*
D11*
X164719000Y-120761125D03*
%TD*%
D13*
%TO.C,D10*%
X161617025Y-90925650D03*
D14*
X161617025Y-103625650D03*
%TD*%
D10*
%TO.C,R15*%
X101660325Y-107826175D03*
D11*
X101660325Y-120526175D03*
%TD*%
D17*
%TO.C,U1*%
X229492175Y-105746550D03*
D11*
X226952175Y-105746550D03*
X224412175Y-105746550D03*
X221872175Y-105746550D03*
X219332175Y-105746550D03*
X216792175Y-105746550D03*
X214252175Y-105746550D03*
X211712175Y-105746550D03*
X209172175Y-105746550D03*
X206632175Y-105746550D03*
X204092175Y-105746550D03*
X201552175Y-105746550D03*
X199012175Y-105746550D03*
X196472175Y-105746550D03*
X193932175Y-105746550D03*
X191392175Y-105746550D03*
X188852175Y-105746550D03*
X186312175Y-105746550D03*
X183772175Y-105746550D03*
X181232175Y-105746550D03*
X181232175Y-120986550D03*
X183772175Y-120986550D03*
X186312175Y-120986550D03*
X188852175Y-120986550D03*
X191392175Y-120986550D03*
X193932175Y-120986550D03*
X196472175Y-120986550D03*
X199012175Y-120986550D03*
X201552175Y-120986550D03*
X204092175Y-120986550D03*
X206632175Y-120986550D03*
X209172175Y-120986550D03*
X211712175Y-120986550D03*
X214252175Y-120986550D03*
X216792175Y-120986550D03*
X219332175Y-120986550D03*
X221872175Y-120986550D03*
X224412175Y-120986550D03*
X226952175Y-120986550D03*
X229492175Y-120986550D03*
%TD*%
D10*
%TO.C,R10*%
X129463800Y-120551575D03*
D11*
X129463800Y-107851575D03*
%TD*%
D10*
%TO.C,R13*%
X119351425Y-107889675D03*
D11*
X119351425Y-120589675D03*
%TD*%
D10*
%TO.C,C8*%
X96678750Y-120529350D03*
D11*
X96678750Y-107829350D03*
%TD*%
D10*
%TO.C,R12*%
X124377450Y-120615075D03*
D11*
X124377450Y-107915075D03*
%TD*%
D17*
%TO.C,U4*%
X229231825Y-94345125D03*
D11*
X226691825Y-94345125D03*
X224151825Y-94345125D03*
X221611825Y-94345125D03*
X219071825Y-94345125D03*
X216531825Y-94345125D03*
X213991825Y-94345125D03*
X213991825Y-101965125D03*
X216531825Y-101965125D03*
X219071825Y-101965125D03*
X221611825Y-101965125D03*
X224151825Y-101965125D03*
X226691825Y-101965125D03*
X229231825Y-101965125D03*
%TD*%
D15*
%TO.C,Q6*%
X111232950Y-90925650D03*
D16*
X111232950Y-88385650D03*
X111232950Y-85845650D03*
%TD*%
D10*
%TO.C,R24*%
X77098525Y-120510300D03*
D11*
X77098525Y-107810300D03*
%TD*%
D10*
%TO.C,R8*%
X134467600Y-120596025D03*
D11*
X134467600Y-107896025D03*
%TD*%
D13*
%TO.C,D4*%
X241303175Y-108156375D03*
D14*
X241303175Y-120856375D03*
%TD*%
D10*
%TO.C,R23*%
X101742875Y-98428175D03*
D11*
X101742875Y-85728175D03*
%TD*%
D10*
%TO.C,R27*%
X150161625Y-107975400D03*
D11*
X150161625Y-120675400D03*
%TD*%
D10*
%TO.C,R34*%
X104257475Y-98567875D03*
D11*
X104257475Y-85867875D03*
%TD*%
D17*
%TO.C,U2*%
X199018525Y-82867500D03*
D11*
X196478525Y-82867500D03*
X193938525Y-82867500D03*
X191398525Y-82867500D03*
X188858525Y-82867500D03*
X186318525Y-82867500D03*
X183778525Y-82867500D03*
X181238525Y-82867500D03*
X178698525Y-82867500D03*
X176158525Y-82867500D03*
X173618525Y-82867500D03*
X171078525Y-82867500D03*
X171078525Y-98107500D03*
X173618525Y-98107500D03*
X176158525Y-98107500D03*
X178698525Y-98107500D03*
X181238525Y-98107500D03*
X183778525Y-98107500D03*
X186318525Y-98107500D03*
X188858525Y-98107500D03*
X191398525Y-98107500D03*
X193938525Y-98107500D03*
X196478525Y-98107500D03*
X199018525Y-98107500D03*
%TD*%
D13*
%TO.C,D9*%
X158997650Y-90925650D03*
D14*
X158997650Y-103625650D03*
%TD*%
D10*
%TO.C,R6*%
X167303450Y-108003975D03*
D11*
X167303450Y-120703975D03*
%TD*%
D10*
%TO.C,C4*%
X257876675Y-103774875D03*
D11*
X257876675Y-116474875D03*
%TD*%
D13*
%TO.C,D1*%
X137121900Y-79552800D03*
D14*
X137121900Y-92252800D03*
%TD*%
D18*
%TO.C,SK3*%
X103637350Y-72309075D03*
X103637350Y-76109075D03*
X113037350Y-76109075D03*
%TD*%
D10*
%TO.C,R2*%
X239807750Y-92414725D03*
D11*
X239807750Y-105114725D03*
%TD*%
D10*
%TO.C,R30*%
X145824575Y-120637300D03*
D11*
X145824575Y-107937300D03*
%TD*%
D10*
%TO.C,R1*%
X233680000Y-120859550D03*
D11*
X233680000Y-108159550D03*
%TD*%
D18*
%TO.C,SK2*%
X117978825Y-72309075D03*
X117978825Y-76109075D03*
X127378825Y-76109075D03*
%TD*%
D19*
%TO.C,SK4*%
X47323375Y-112207325D03*
X47323375Y-109667325D03*
X47323375Y-104587325D03*
X47323375Y-102047325D03*
X47323375Y-99507325D03*
X47323375Y-96967325D03*
X47323375Y-94427325D03*
%TD*%
D15*
%TO.C,Q11*%
X240783325Y-97773650D03*
D16*
X240783325Y-100313650D03*
X240783325Y-102853650D03*
%TD*%
D10*
%TO.C,C1*%
X145253075Y-99895025D03*
D11*
X145253075Y-79895025D03*
%TD*%
D10*
%TO.C,R9*%
X154543125Y-107975400D03*
D11*
X154543125Y-120675400D03*
%TD*%
D10*
%TO.C,R31*%
X156591000Y-90925650D03*
D11*
X156591000Y-103625650D03*
%TD*%
D10*
%TO.C,R36*%
X174853600Y-108083350D03*
D11*
X174853600Y-120783350D03*
%TD*%
D10*
%TO.C,R5*%
X169764075Y-108105575D03*
D11*
X169764075Y-120805575D03*
%TD*%
D10*
%TO.C,R17*%
X116881275Y-120596025D03*
D11*
X116881275Y-107896025D03*
%TD*%
D15*
%TO.C,Q10*%
X233721275Y-99599750D03*
D16*
X233721275Y-97059750D03*
X233721275Y-94519750D03*
%TD*%
D10*
%TO.C,R21*%
X96650175Y-98463100D03*
D11*
X96650175Y-85763100D03*
%TD*%
D10*
%TO.C,C2*%
X131889500Y-79776300D03*
D11*
X131889500Y-99776300D03*
%TD*%
D10*
%TO.C,R11*%
X121821575Y-107930950D03*
D11*
X121821575Y-120630950D03*
%TD*%
D20*
%TO.C,L1*%
X76698475Y-83972400D03*
D21*
X76698475Y-104292400D03*
%TD*%
D13*
%TO.C,D2*%
X140017500Y-79552800D03*
D14*
X140017500Y-92252800D03*
%TD*%
D10*
%TO.C,C7*%
X99167950Y-120551575D03*
D11*
X99167950Y-107851575D03*
%TD*%
D22*
%TO.C,SK1*%
X82451225Y-78936075D03*
X57451225Y-78936075D03*
D17*
X64411225Y-80356075D03*
D10*
X67181225Y-80356075D03*
X69951225Y-80356075D03*
X72721225Y-80356075D03*
X75491225Y-80356075D03*
X65796225Y-77516075D03*
X68566225Y-77516075D03*
X71336225Y-77516075D03*
X74106225Y-77516075D03*
%TD*%
D16*
%TO.C,X1*%
X244544850Y-98831400D03*
X244544850Y-93931400D03*
%TD*%
D15*
%TO.C,Q3*%
X118246525Y-90960575D03*
D16*
X118246525Y-88420575D03*
X118246525Y-85880575D03*
%TD*%
D10*
%TO.C,R16*%
X111750475Y-107845225D03*
D11*
X111750475Y-120545225D03*
%TD*%
D15*
%TO.C,Q1*%
X126968250Y-90995500D03*
D16*
X126968250Y-88455500D03*
X126968250Y-85915500D03*
%TD*%
D13*
%TO.C,D7*%
X69538850Y-107803950D03*
D14*
X69538850Y-120503950D03*
%TD*%
D17*
%TO.C,U3*%
X229301675Y-82972275D03*
D11*
X226761675Y-82972275D03*
X224221675Y-82972275D03*
X221681675Y-82972275D03*
X219141675Y-82972275D03*
X216601675Y-82972275D03*
X214061675Y-82972275D03*
X214061675Y-90592275D03*
X216601675Y-90592275D03*
X219141675Y-90592275D03*
X221681675Y-90592275D03*
X224221675Y-90592275D03*
X226761675Y-90592275D03*
X229301675Y-90592275D03*
%TD*%
D10*
%TO.C,R25*%
X79759175Y-120596025D03*
D11*
X79759175Y-107896025D03*
%TD*%
D13*
%TO.C,D11*%
X90404950Y-98498025D03*
D14*
X90404950Y-85798025D03*
%TD*%
D10*
%TO.C,R29*%
X74628375Y-107867450D03*
D11*
X74628375Y-120567450D03*
%TD*%
D10*
%TO.C,NoFit1*%
X255620837Y-103805037D03*
D11*
X255620837Y-116505037D03*
%TD*%
D10*
%TO.C,R26*%
X126942850Y-107746800D03*
D11*
X126942850Y-120446800D03*
%TD*%
D23*
%TO.C,SK6*%
X166008050Y-61744225D03*
X168548050Y-61744225D03*
X171088050Y-61744225D03*
X173628050Y-61744225D03*
X178708050Y-61744225D03*
X181248050Y-61744225D03*
X183788050Y-61744225D03*
X186328050Y-61744225D03*
X188868050Y-61744225D03*
X191408050Y-61744225D03*
X193948050Y-61744225D03*
X196488050Y-61744225D03*
X199028050Y-61744225D03*
X201568050Y-61744225D03*
X204108050Y-61744225D03*
X206648050Y-61744225D03*
X209188050Y-61744225D03*
X211728050Y-61744225D03*
X214268050Y-61744225D03*
X216808050Y-61744225D03*
X219348050Y-61744225D03*
X221888050Y-61744225D03*
X224428050Y-61744225D03*
X226968050Y-61744225D03*
X229508050Y-61744225D03*
X232048050Y-61744225D03*
X234588050Y-61744225D03*
%TD*%
D13*
%TO.C,D6*%
X66919475Y-107759500D03*
D14*
X66919475Y-120459500D03*
%TD*%
D10*
%TO.C,R19*%
X114328575Y-107911900D03*
D11*
X114328575Y-120611900D03*
%TD*%
D15*
%TO.C,Q2*%
X127003175Y-98672650D03*
D16*
X127003175Y-96132650D03*
X127003175Y-93592650D03*
%TD*%
D10*
%TO.C,R35*%
X252701425Y-103797100D03*
D11*
X252701425Y-116497100D03*
%TD*%
D10*
%TO.C,R20*%
X109261275Y-120596025D03*
D11*
X109261275Y-107896025D03*
%TD*%
D10*
%TO.C,C6*%
X208368900Y-101777800D03*
D11*
X208368900Y-81777800D03*
%TD*%
D10*
%TO.C,R4*%
X162207575Y-107997625D03*
D11*
X162207575Y-120697625D03*
%TD*%
D15*
%TO.C,Q4*%
X118176675Y-98532950D03*
D16*
X118176675Y-95992950D03*
X118176675Y-93452950D03*
%TD*%
M02*
