%TF.GenerationSoftware,KiCad,Pcbnew,7.0.8*%
%TF.CreationDate,2023-10-30T18:51:19+00:00*%
%TF.ProjectId,Interface 1 Recreated,496e7465-7266-4616-9365-203120526563,rev?*%
%TF.SameCoordinates,Original*%
%TF.FileFunction,Other,User*%
%FSLAX46Y46*%
G04 Gerber Fmt 4.6, Leading zero omitted, Abs format (unit mm)*
G04 Created by KiCad (PCBNEW 7.0.8) date 2023-10-30 18:51:19*
%MOMM*%
%LPD*%
G01*
G04 APERTURE LIST*
%ADD10C,0.050000*%
G04 APERTURE END LIST*
D10*
%TO.C,R33*%
X158226775Y-106947625D02*
X155926775Y-106947625D01*
X155926775Y-106947625D02*
X155926775Y-121747625D01*
X158226775Y-121747625D02*
X158226775Y-106947625D01*
X155926775Y-121747625D02*
X158226775Y-121747625D01*
%TO.C,R18*%
X107899850Y-106817450D02*
X105599850Y-106817450D01*
X105599850Y-106817450D02*
X105599850Y-121617450D01*
X107899850Y-121617450D02*
X107899850Y-106817450D01*
X105599850Y-121617450D02*
X107899850Y-121617450D01*
%TO.C,R7*%
X171169950Y-121731750D02*
X173469950Y-121731750D01*
X173469950Y-121731750D02*
X173469950Y-106931750D01*
X171169950Y-106931750D02*
X171169950Y-121731750D01*
X173469950Y-106931750D02*
X171169950Y-106931750D01*
%TO.C,D8*%
X95288750Y-85007950D02*
X95288750Y-99357950D01*
X92988750Y-85007950D02*
X95288750Y-85007950D01*
X95288750Y-99357950D02*
X92988750Y-99357950D01*
X92988750Y-99357950D02*
X92988750Y-85007950D01*
%TO.C,R28*%
X73181225Y-106753950D02*
X70881225Y-106753950D01*
X70881225Y-106753950D02*
X70881225Y-121553950D01*
X73181225Y-121553950D02*
X73181225Y-106753950D01*
X70881225Y-121553950D02*
X73181225Y-121553950D01*
%TO.C,R14*%
X105343975Y-106861900D02*
X103043975Y-106861900D01*
X103043975Y-106861900D02*
X103043975Y-121661900D01*
X105343975Y-121661900D02*
X105343975Y-106861900D01*
X103043975Y-121661900D02*
X105343975Y-121661900D01*
%TO.C,Q5*%
X108413100Y-99532950D02*
X113013100Y-99532950D01*
X108413100Y-99532950D02*
X108413100Y-92432950D01*
X113013100Y-92432950D02*
X113013100Y-99532950D01*
X113013100Y-92432950D02*
X108413100Y-92432950D01*
%TO.C,C3*%
X259196825Y-117594725D02*
X261496825Y-117594725D01*
X261496825Y-117594725D02*
X261496825Y-102794725D01*
X259196825Y-102794725D02*
X259196825Y-117594725D01*
X261496825Y-102794725D02*
X259196825Y-102794725D01*
%TO.C,R22*%
X97906825Y-99513100D02*
X100206825Y-99513100D01*
X100206825Y-99513100D02*
X100206825Y-84713100D01*
X97906825Y-84713100D02*
X97906825Y-99513100D01*
X100206825Y-84713100D02*
X97906825Y-84713100D01*
%TO.C,C5*%
X234704925Y-121868275D02*
X237804925Y-121868275D01*
X237804925Y-121868275D02*
X237804925Y-107268275D01*
X234704925Y-107268275D02*
X234704925Y-121868275D01*
X237804925Y-107268275D02*
X234704925Y-107268275D01*
%TO.C,D3*%
X239897300Y-107353600D02*
X239897300Y-121703600D01*
X237597300Y-107353600D02*
X239897300Y-107353600D01*
X239897300Y-121703600D02*
X237597300Y-121703600D01*
X237597300Y-121703600D02*
X237597300Y-107353600D01*
%TO.C,Q9*%
X119824050Y-91995500D02*
X124424050Y-91995500D01*
X119824050Y-91995500D02*
X119824050Y-84895500D01*
X124424050Y-84895500D02*
X124424050Y-91995500D01*
X124424050Y-84895500D02*
X119824050Y-84895500D01*
%TO.C,R32*%
X152859725Y-104675650D02*
X155159725Y-104675650D01*
X155159725Y-104675650D02*
X155159725Y-89875650D01*
X152859725Y-89875650D02*
X152859725Y-104675650D01*
X155159725Y-89875650D02*
X152859725Y-89875650D01*
%TO.C,R3*%
X165869000Y-107011125D02*
X163569000Y-107011125D01*
X163569000Y-107011125D02*
X163569000Y-121811125D01*
X165869000Y-121811125D02*
X165869000Y-107011125D01*
X163569000Y-121811125D02*
X165869000Y-121811125D01*
%TO.C,D10*%
X162767025Y-90100650D02*
X162767025Y-104450650D01*
X160467025Y-90100650D02*
X162767025Y-90100650D01*
X162767025Y-104450650D02*
X160467025Y-104450650D01*
X160467025Y-104450650D02*
X160467025Y-90100650D01*
%TO.C,R15*%
X102810325Y-106776175D02*
X100510325Y-106776175D01*
X100510325Y-106776175D02*
X100510325Y-121576175D01*
X102810325Y-121576175D02*
X102810325Y-106776175D01*
X100510325Y-121576175D02*
X102810325Y-121576175D01*
%TO.C,U1*%
X231042175Y-104696550D02*
X179692175Y-104696550D01*
X179692175Y-104696550D02*
X179692175Y-122046550D01*
X231042175Y-122046550D02*
X231042175Y-104696550D01*
X179692175Y-122046550D02*
X231042175Y-122046550D01*
%TO.C,R10*%
X128313800Y-121601575D02*
X130613800Y-121601575D01*
X130613800Y-121601575D02*
X130613800Y-106801575D01*
X128313800Y-106801575D02*
X128313800Y-121601575D01*
X130613800Y-106801575D02*
X128313800Y-106801575D01*
%TO.C,R13*%
X120501425Y-106839675D02*
X118201425Y-106839675D01*
X118201425Y-106839675D02*
X118201425Y-121639675D01*
X120501425Y-121639675D02*
X120501425Y-106839675D01*
X118201425Y-121639675D02*
X120501425Y-121639675D01*
%TO.C,C8*%
X95528750Y-121579350D02*
X97828750Y-121579350D01*
X97828750Y-121579350D02*
X97828750Y-106779350D01*
X95528750Y-106779350D02*
X95528750Y-121579350D01*
X97828750Y-106779350D02*
X95528750Y-106779350D01*
%TO.C,R12*%
X123227450Y-121665075D02*
X125527450Y-121665075D01*
X125527450Y-121665075D02*
X125527450Y-106865075D01*
X123227450Y-106865075D02*
X123227450Y-121665075D01*
X125527450Y-106865075D02*
X123227450Y-106865075D01*
%TO.C,U4*%
X230781825Y-93245125D02*
X212431825Y-93245125D01*
X212431825Y-93245125D02*
X212431825Y-103045125D01*
X230781825Y-103045125D02*
X230781825Y-93245125D01*
X212431825Y-103045125D02*
X230781825Y-103045125D01*
%TO.C,Q6*%
X108482950Y-91925650D02*
X113082950Y-91925650D01*
X108482950Y-91925650D02*
X108482950Y-84825650D01*
X113082950Y-84825650D02*
X113082950Y-91925650D01*
X113082950Y-84825650D02*
X108482950Y-84825650D01*
%TO.C,R24*%
X75948525Y-121560300D02*
X78248525Y-121560300D01*
X78248525Y-121560300D02*
X78248525Y-106760300D01*
X75948525Y-106760300D02*
X75948525Y-121560300D01*
X78248525Y-106760300D02*
X75948525Y-106760300D01*
%TO.C,R8*%
X133317600Y-121646025D02*
X135617600Y-121646025D01*
X135617600Y-121646025D02*
X135617600Y-106846025D01*
X133317600Y-106846025D02*
X133317600Y-121646025D01*
X135617600Y-106846025D02*
X133317600Y-106846025D01*
%TO.C,D4*%
X242453175Y-107331375D02*
X242453175Y-121681375D01*
X240153175Y-107331375D02*
X242453175Y-107331375D01*
X242453175Y-121681375D02*
X240153175Y-121681375D01*
X240153175Y-121681375D02*
X240153175Y-107331375D01*
%TO.C,R23*%
X100592875Y-99478175D02*
X102892875Y-99478175D01*
X102892875Y-99478175D02*
X102892875Y-84678175D01*
X100592875Y-84678175D02*
X100592875Y-99478175D01*
X102892875Y-84678175D02*
X100592875Y-84678175D01*
%TO.C,R27*%
X151311625Y-106925400D02*
X149011625Y-106925400D01*
X149011625Y-106925400D02*
X149011625Y-121725400D01*
X151311625Y-121725400D02*
X151311625Y-106925400D01*
X149011625Y-121725400D02*
X151311625Y-121725400D01*
%TO.C,R34*%
X103107475Y-99617875D02*
X105407475Y-99617875D01*
X105407475Y-99617875D02*
X105407475Y-84817875D01*
X103107475Y-84817875D02*
X103107475Y-99617875D01*
X105407475Y-84817875D02*
X103107475Y-84817875D01*
%TO.C,U2*%
X200568525Y-81817500D02*
X169518525Y-81817500D01*
X169518525Y-81817500D02*
X169518525Y-99167500D01*
X200568525Y-99167500D02*
X200568525Y-81817500D01*
X169518525Y-99167500D02*
X200568525Y-99167500D01*
%TO.C,D9*%
X160147650Y-90100650D02*
X160147650Y-104450650D01*
X157847650Y-90100650D02*
X160147650Y-90100650D01*
X160147650Y-104450650D02*
X157847650Y-104450650D01*
X157847650Y-104450650D02*
X157847650Y-90100650D01*
%TO.C,R6*%
X168453450Y-106953975D02*
X166153450Y-106953975D01*
X166153450Y-106953975D02*
X166153450Y-121753975D01*
X168453450Y-121753975D02*
X168453450Y-106953975D01*
X166153450Y-121753975D02*
X168453450Y-121753975D01*
%TO.C,C4*%
X259026675Y-102724875D02*
X256726675Y-102724875D01*
X256726675Y-102724875D02*
X256726675Y-117524875D01*
X259026675Y-117524875D02*
X259026675Y-102724875D01*
X256726675Y-117524875D02*
X259026675Y-117524875D01*
%TO.C,D1*%
X138271900Y-78727800D02*
X138271900Y-93077800D01*
X135971900Y-78727800D02*
X138271900Y-78727800D01*
X138271900Y-93077800D02*
X135971900Y-93077800D01*
X135971900Y-93077800D02*
X135971900Y-78727800D01*
%TO.C,SK3*%
X101087350Y-66609075D02*
X115587350Y-66609075D01*
X101087350Y-78609075D02*
X101087350Y-66609075D01*
X101087350Y-78609075D02*
X115587350Y-78609075D01*
X115587350Y-66609075D02*
X115597350Y-78609075D01*
%TO.C,R2*%
X240957750Y-91364725D02*
X238657750Y-91364725D01*
X238657750Y-91364725D02*
X238657750Y-106164725D01*
X240957750Y-106164725D02*
X240957750Y-91364725D01*
X238657750Y-106164725D02*
X240957750Y-106164725D01*
%TO.C,R30*%
X144674575Y-121687300D02*
X146974575Y-121687300D01*
X146974575Y-121687300D02*
X146974575Y-106887300D01*
X144674575Y-106887300D02*
X144674575Y-121687300D01*
X146974575Y-106887300D02*
X144674575Y-106887300D01*
%TO.C,R1*%
X232530000Y-121909550D02*
X234830000Y-121909550D01*
X234830000Y-121909550D02*
X234830000Y-107109550D01*
X232530000Y-107109550D02*
X232530000Y-121909550D01*
X234830000Y-107109550D02*
X232530000Y-107109550D01*
%TO.C,SK2*%
X115428825Y-66609075D02*
X129928825Y-66609075D01*
X115428825Y-78609075D02*
X115428825Y-66609075D01*
X115428825Y-78609075D02*
X129928825Y-78609075D01*
X129928825Y-66609075D02*
X129938825Y-78609075D01*
%TO.C,Q11*%
X243533325Y-96773650D02*
X238933325Y-96773650D01*
X243533325Y-96773650D02*
X243533325Y-103873650D01*
X238933325Y-103873650D02*
X238933325Y-96773650D01*
X238933325Y-103873650D02*
X243533325Y-103873650D01*
%TO.C,C1*%
X141753075Y-100945025D02*
X148753075Y-100945025D01*
X148753075Y-100945025D02*
X148753075Y-78845025D01*
X141753075Y-78845025D02*
X141753075Y-100945025D01*
X148753075Y-78845025D02*
X141753075Y-78845025D01*
%TO.C,R9*%
X155693125Y-106925400D02*
X153393125Y-106925400D01*
X153393125Y-106925400D02*
X153393125Y-121725400D01*
X155693125Y-121725400D02*
X155693125Y-106925400D01*
X153393125Y-121725400D02*
X155693125Y-121725400D01*
%TO.C,R31*%
X157741000Y-89875650D02*
X155441000Y-89875650D01*
X155441000Y-89875650D02*
X155441000Y-104675650D01*
X157741000Y-104675650D02*
X157741000Y-89875650D01*
X155441000Y-104675650D02*
X157741000Y-104675650D01*
%TO.C,R36*%
X176003600Y-107033350D02*
X173703600Y-107033350D01*
X173703600Y-107033350D02*
X173703600Y-121833350D01*
X176003600Y-121833350D02*
X176003600Y-107033350D01*
X173703600Y-121833350D02*
X176003600Y-121833350D01*
%TO.C,R5*%
X170914075Y-107055575D02*
X168614075Y-107055575D01*
X168614075Y-107055575D02*
X168614075Y-121855575D01*
X170914075Y-121855575D02*
X170914075Y-107055575D01*
X168614075Y-121855575D02*
X170914075Y-121855575D01*
%TO.C,R17*%
X115731275Y-121646025D02*
X118031275Y-121646025D01*
X118031275Y-121646025D02*
X118031275Y-106846025D01*
X115731275Y-106846025D02*
X115731275Y-121646025D01*
X118031275Y-106846025D02*
X115731275Y-106846025D01*
%TO.C,Q10*%
X230971275Y-100599750D02*
X235571275Y-100599750D01*
X230971275Y-100599750D02*
X230971275Y-93499750D01*
X235571275Y-93499750D02*
X235571275Y-100599750D01*
X235571275Y-93499750D02*
X230971275Y-93499750D01*
%TO.C,R21*%
X95500175Y-99513100D02*
X97800175Y-99513100D01*
X97800175Y-99513100D02*
X97800175Y-84713100D01*
X95500175Y-84713100D02*
X95500175Y-99513100D01*
X97800175Y-84713100D02*
X95500175Y-84713100D01*
%TO.C,C2*%
X135389500Y-78726300D02*
X128389500Y-78726300D01*
X128389500Y-78726300D02*
X128389500Y-100826300D01*
X135389500Y-100826300D02*
X135389500Y-78726300D01*
X128389500Y-100826300D02*
X135389500Y-100826300D01*
%TO.C,R11*%
X122971575Y-106880950D02*
X120671575Y-106880950D01*
X120671575Y-106880950D02*
X120671575Y-121680950D01*
X122971575Y-121680950D02*
X122971575Y-106880950D01*
X120671575Y-121680950D02*
X122971575Y-121680950D01*
%TO.C,L1*%
X79848475Y-82622400D02*
X73548475Y-82622400D01*
X73548475Y-82622400D02*
X73548475Y-105642400D01*
X79848475Y-105642400D02*
X79848475Y-82622400D01*
X73548475Y-105642400D02*
X79848475Y-105642400D01*
%TO.C,D2*%
X141167500Y-78727800D02*
X141167500Y-93077800D01*
X138867500Y-78727800D02*
X141167500Y-78727800D01*
X141167500Y-93077800D02*
X138867500Y-93077800D01*
X138867500Y-93077800D02*
X138867500Y-78727800D01*
%TO.C,C7*%
X98017950Y-121601575D02*
X100317950Y-121601575D01*
X100317950Y-121601575D02*
X100317950Y-106801575D01*
X98017950Y-106801575D02*
X98017950Y-121601575D01*
X100317950Y-106801575D02*
X98017950Y-106801575D01*
%TO.C,SK1*%
X85911225Y-82656075D02*
X85911225Y-55856075D01*
X85911225Y-55856075D02*
X54011225Y-55856075D01*
X54011225Y-82656075D02*
X85911225Y-82656075D01*
X54011225Y-55856075D02*
X54011225Y-82656075D01*
%TO.C,X1*%
X243544850Y-102931400D02*
X260844850Y-102931400D01*
X260844850Y-102931400D02*
X260844850Y-89831400D01*
X243544850Y-89831400D02*
X243544850Y-102931400D01*
X260844850Y-89831400D02*
X243544850Y-89831400D01*
%TO.C,Q3*%
X115496525Y-91960575D02*
X120096525Y-91960575D01*
X115496525Y-91960575D02*
X115496525Y-84860575D01*
X120096525Y-84860575D02*
X120096525Y-91960575D01*
X120096525Y-84860575D02*
X115496525Y-84860575D01*
%TO.C,R16*%
X112900475Y-106795225D02*
X110600475Y-106795225D01*
X110600475Y-106795225D02*
X110600475Y-121595225D01*
X112900475Y-121595225D02*
X112900475Y-106795225D01*
X110600475Y-121595225D02*
X112900475Y-121595225D01*
%TO.C,Q1*%
X124218250Y-91995500D02*
X128818250Y-91995500D01*
X124218250Y-91995500D02*
X124218250Y-84895500D01*
X128818250Y-84895500D02*
X128818250Y-91995500D01*
X128818250Y-84895500D02*
X124218250Y-84895500D01*
%TO.C,D7*%
X70688850Y-106978950D02*
X70688850Y-121328950D01*
X68388850Y-106978950D02*
X70688850Y-106978950D01*
X70688850Y-121328950D02*
X68388850Y-121328950D01*
X68388850Y-121328950D02*
X68388850Y-106978950D01*
%TO.C,U3*%
X230851675Y-81872275D02*
X212501675Y-81872275D01*
X212501675Y-81872275D02*
X212501675Y-91672275D01*
X230851675Y-91672275D02*
X230851675Y-81872275D01*
X212501675Y-91672275D02*
X230851675Y-91672275D01*
%TO.C,R25*%
X78609175Y-121646025D02*
X80909175Y-121646025D01*
X80909175Y-121646025D02*
X80909175Y-106846025D01*
X78609175Y-106846025D02*
X78609175Y-121646025D01*
X80909175Y-106846025D02*
X78609175Y-106846025D01*
%TO.C,D11*%
X89254950Y-99323025D02*
X89254950Y-84973025D01*
X91554950Y-99323025D02*
X89254950Y-99323025D01*
X89254950Y-84973025D02*
X91554950Y-84973025D01*
X91554950Y-84973025D02*
X91554950Y-99323025D01*
%TO.C,R29*%
X75778375Y-106817450D02*
X73478375Y-106817450D01*
X73478375Y-106817450D02*
X73478375Y-121617450D01*
X75778375Y-121617450D02*
X75778375Y-106817450D01*
X73478375Y-121617450D02*
X75778375Y-121617450D01*
%TO.C,NoFit1*%
X256770837Y-102755037D02*
X254470837Y-102755037D01*
X254470837Y-102755037D02*
X254470837Y-117555037D01*
X256770837Y-117555037D02*
X256770837Y-102755037D01*
X254470837Y-117555037D02*
X256770837Y-117555037D01*
%TO.C,R26*%
X128092850Y-106696800D02*
X125792850Y-106696800D01*
X125792850Y-106696800D02*
X125792850Y-121496800D01*
X128092850Y-121496800D02*
X128092850Y-106696800D01*
X125792850Y-121496800D02*
X128092850Y-121496800D01*
%TO.C,D6*%
X68069475Y-106934500D02*
X68069475Y-121284500D01*
X65769475Y-106934500D02*
X68069475Y-106934500D01*
X68069475Y-121284500D02*
X65769475Y-121284500D01*
X65769475Y-121284500D02*
X65769475Y-106934500D01*
%TO.C,R19*%
X115478575Y-106861900D02*
X113178575Y-106861900D01*
X113178575Y-106861900D02*
X113178575Y-121661900D01*
X115478575Y-121661900D02*
X115478575Y-106861900D01*
X113178575Y-121661900D02*
X115478575Y-121661900D01*
%TO.C,Q2*%
X124253175Y-99672650D02*
X128853175Y-99672650D01*
X124253175Y-99672650D02*
X124253175Y-92572650D01*
X128853175Y-92572650D02*
X128853175Y-99672650D01*
X128853175Y-92572650D02*
X124253175Y-92572650D01*
%TO.C,R35*%
X253851425Y-102747100D02*
X251551425Y-102747100D01*
X251551425Y-102747100D02*
X251551425Y-117547100D01*
X253851425Y-117547100D02*
X253851425Y-102747100D01*
X251551425Y-117547100D02*
X253851425Y-117547100D01*
%TO.C,R20*%
X108111275Y-121646025D02*
X110411275Y-121646025D01*
X110411275Y-121646025D02*
X110411275Y-106846025D01*
X108111275Y-106846025D02*
X108111275Y-121646025D01*
X110411275Y-106846025D02*
X108111275Y-106846025D01*
%TO.C,C6*%
X204868900Y-102827800D02*
X211868900Y-102827800D01*
X211868900Y-102827800D02*
X211868900Y-80727800D01*
X204868900Y-80727800D02*
X204868900Y-102827800D01*
X211868900Y-80727800D02*
X204868900Y-80727800D01*
%TO.C,R4*%
X163357575Y-106947625D02*
X161057575Y-106947625D01*
X161057575Y-106947625D02*
X161057575Y-121747625D01*
X163357575Y-121747625D02*
X163357575Y-106947625D01*
X161057575Y-121747625D02*
X163357575Y-121747625D01*
%TO.C,Q4*%
X115426675Y-99532950D02*
X120026675Y-99532950D01*
X115426675Y-99532950D02*
X115426675Y-92432950D01*
X120026675Y-92432950D02*
X120026675Y-99532950D01*
X120026675Y-92432950D02*
X115426675Y-92432950D01*
%TD*%
M02*
