%TF.GenerationSoftware,KiCad,Pcbnew,9.0.5*%
%TF.CreationDate,2025-10-21T21:52:18+01:00*%
%TF.ProjectId,Interface 1 Recreated,496e7465-7266-4616-9365-203120526563,rev?*%
%TF.SameCoordinates,Original*%
%TF.FileFunction,Profile,NP*%
%FSLAX46Y46*%
G04 Gerber Fmt 4.6, Leading zero omitted, Abs format (unit mm)*
G04 Created by KiCad (PCBNEW 9.0.5) date 2025-10-21 21:52:18*
%MOMM*%
%LPD*%
G01*
G04 APERTURE LIST*
%TA.AperFunction,Profile*%
%ADD10C,0.200000*%
%TD*%
%TA.AperFunction,Profile*%
%ADD11C,0.100000*%
%TD*%
G04 APERTURE END LIST*
D10*
X141000000Y-67000000D02*
X141000000Y-71500000D01*
D11*
X250186020Y-112531525D02*
G75*
G02*
X245291780Y-112531525I-2447120J0D01*
G01*
X245291780Y-112531525D02*
G75*
G02*
X250186020Y-112531525I2447120J0D01*
G01*
D10*
X251400000Y-120000000D02*
X265400000Y-120000000D01*
X251400000Y-120000000D02*
X251400000Y-129500000D01*
X237500000Y-57000000D02*
X177000000Y-57000000D01*
X45000000Y-67000000D02*
X45000000Y-83250000D01*
X60000000Y-129500000D02*
X251400000Y-129500000D01*
X51000000Y-108000000D02*
X43000000Y-108000000D01*
D11*
X90261270Y-112169575D02*
G75*
G02*
X85367030Y-112169575I-2447120J0D01*
G01*
X85367030Y-112169575D02*
G75*
G02*
X90261270Y-112169575I2447120J0D01*
G01*
D10*
X255500000Y-67000000D02*
X237500000Y-67000000D01*
X265400000Y-76000000D02*
X255500000Y-76000000D01*
D11*
X246563530Y-71673070D02*
G75*
G02*
X243199642Y-71673070I-1681944J0D01*
G01*
X243199642Y-71673070D02*
G75*
G02*
X246563530Y-71673070I1681944J0D01*
G01*
D10*
X43000000Y-108000000D02*
X43000000Y-114000000D01*
X163000000Y-67000000D02*
X150000000Y-67000000D01*
X57900000Y-114000000D02*
G75*
G02*
X60000000Y-116500000I-200000J-2300000D01*
G01*
X255500000Y-67000000D02*
X255500000Y-76000000D01*
D11*
X52279551Y-71383525D02*
G75*
G02*
X47385311Y-71383525I-2447120J0D01*
G01*
X47385311Y-71383525D02*
G75*
G02*
X52279551Y-71383525I2447120J0D01*
G01*
D10*
X150000000Y-71500000D02*
G75*
G02*
X141000000Y-71500000I-4500000J4D01*
G01*
X60000000Y-116500000D02*
X60000000Y-129500000D01*
X177000000Y-65300000D02*
X175000000Y-65300000D01*
X177000000Y-57000000D02*
X177000000Y-65300000D01*
D11*
X157880969Y-71523225D02*
G75*
G02*
X153923081Y-71523225I-1978944J0D01*
G01*
X153923081Y-71523225D02*
G75*
G02*
X157880969Y-71523225I1978944J0D01*
G01*
D10*
X53000000Y-91750000D02*
X43000000Y-91750000D01*
X53000000Y-83250000D02*
X45000000Y-83250000D01*
X141000000Y-67000000D02*
X45000000Y-67000000D01*
X175000000Y-65300000D02*
X175000000Y-57000000D01*
X265400000Y-120000000D02*
X265400000Y-76000000D01*
X43000000Y-91750000D02*
X43000000Y-106000000D01*
X237500000Y-67000000D02*
X237500000Y-57000000D01*
X150000000Y-67000000D02*
X150000000Y-71500000D01*
X163000000Y-57000000D02*
X163000000Y-67000000D01*
X175000000Y-57000000D02*
X163000000Y-57000000D01*
X43000000Y-114000000D02*
X57900000Y-114000000D01*
X51000000Y-106000000D02*
X51000000Y-108000000D01*
X53000000Y-83250000D02*
G75*
G02*
X53000000Y-91750000I0J-4250000D01*
G01*
X43000000Y-106000000D02*
X51000000Y-106000000D01*
M02*
