%TF.GenerationSoftware,KiCad,Pcbnew,9.0.5*%
%TF.CreationDate,2025-10-21T21:52:18+01:00*%
%TF.ProjectId,Interface 1 Recreated,496e7465-7266-4616-9365-203120526563,rev?*%
%TF.SameCoordinates,Original*%
%TF.FileFunction,AssemblyDrawing,Top*%
%FSLAX46Y46*%
G04 Gerber Fmt 4.6, Leading zero omitted, Abs format (unit mm)*
G04 Created by KiCad (PCBNEW 9.0.5) date 2025-10-21 21:52:18*
%MOMM*%
%LPD*%
G01*
G04 APERTURE LIST*
%ADD10C,0.150000*%
%ADD11C,0.254000*%
%ADD12C,0.100000*%
G04 APERTURE END LIST*
D10*
X194075669Y-56119044D02*
X194742335Y-56119044D01*
X194742335Y-56119044D02*
X194075669Y-57119044D01*
X194075669Y-57119044D02*
X194742335Y-57119044D01*
X195028050Y-56119044D02*
X195694716Y-57119044D01*
X195694716Y-56119044D02*
X195028050Y-57119044D01*
X196837574Y-56595234D02*
X197170907Y-56595234D01*
X197313764Y-57119044D02*
X196837574Y-57119044D01*
X196837574Y-57119044D02*
X196837574Y-56119044D01*
X196837574Y-56119044D02*
X197313764Y-56119044D01*
X197647098Y-57119044D02*
X198170907Y-56452377D01*
X197647098Y-56452377D02*
X198170907Y-57119044D01*
X198551860Y-56452377D02*
X198551860Y-57452377D01*
X198551860Y-56499996D02*
X198647098Y-56452377D01*
X198647098Y-56452377D02*
X198837574Y-56452377D01*
X198837574Y-56452377D02*
X198932812Y-56499996D01*
X198932812Y-56499996D02*
X198980431Y-56547615D01*
X198980431Y-56547615D02*
X199028050Y-56642853D01*
X199028050Y-56642853D02*
X199028050Y-56928567D01*
X199028050Y-56928567D02*
X198980431Y-57023805D01*
X198980431Y-57023805D02*
X198932812Y-57071425D01*
X198932812Y-57071425D02*
X198837574Y-57119044D01*
X198837574Y-57119044D02*
X198647098Y-57119044D01*
X198647098Y-57119044D02*
X198551860Y-57071425D01*
X199885193Y-57119044D02*
X199885193Y-56595234D01*
X199885193Y-56595234D02*
X199837574Y-56499996D01*
X199837574Y-56499996D02*
X199742336Y-56452377D01*
X199742336Y-56452377D02*
X199551860Y-56452377D01*
X199551860Y-56452377D02*
X199456622Y-56499996D01*
X199885193Y-57071425D02*
X199789955Y-57119044D01*
X199789955Y-57119044D02*
X199551860Y-57119044D01*
X199551860Y-57119044D02*
X199456622Y-57071425D01*
X199456622Y-57071425D02*
X199409003Y-56976186D01*
X199409003Y-56976186D02*
X199409003Y-56880948D01*
X199409003Y-56880948D02*
X199456622Y-56785710D01*
X199456622Y-56785710D02*
X199551860Y-56738091D01*
X199551860Y-56738091D02*
X199789955Y-56738091D01*
X199789955Y-56738091D02*
X199885193Y-56690472D01*
X200361384Y-56452377D02*
X200361384Y-57119044D01*
X200361384Y-56547615D02*
X200409003Y-56499996D01*
X200409003Y-56499996D02*
X200504241Y-56452377D01*
X200504241Y-56452377D02*
X200647098Y-56452377D01*
X200647098Y-56452377D02*
X200742336Y-56499996D01*
X200742336Y-56499996D02*
X200789955Y-56595234D01*
X200789955Y-56595234D02*
X200789955Y-57119044D01*
X201218527Y-57071425D02*
X201313765Y-57119044D01*
X201313765Y-57119044D02*
X201504241Y-57119044D01*
X201504241Y-57119044D02*
X201599479Y-57071425D01*
X201599479Y-57071425D02*
X201647098Y-56976186D01*
X201647098Y-56976186D02*
X201647098Y-56928567D01*
X201647098Y-56928567D02*
X201599479Y-56833329D01*
X201599479Y-56833329D02*
X201504241Y-56785710D01*
X201504241Y-56785710D02*
X201361384Y-56785710D01*
X201361384Y-56785710D02*
X201266146Y-56738091D01*
X201266146Y-56738091D02*
X201218527Y-56642853D01*
X201218527Y-56642853D02*
X201218527Y-56595234D01*
X201218527Y-56595234D02*
X201266146Y-56499996D01*
X201266146Y-56499996D02*
X201361384Y-56452377D01*
X201361384Y-56452377D02*
X201504241Y-56452377D01*
X201504241Y-56452377D02*
X201599479Y-56499996D01*
X202075670Y-57119044D02*
X202075670Y-56452377D01*
X202075670Y-56119044D02*
X202028051Y-56166663D01*
X202028051Y-56166663D02*
X202075670Y-56214282D01*
X202075670Y-56214282D02*
X202123289Y-56166663D01*
X202123289Y-56166663D02*
X202075670Y-56119044D01*
X202075670Y-56119044D02*
X202075670Y-56214282D01*
X202694717Y-57119044D02*
X202599479Y-57071425D01*
X202599479Y-57071425D02*
X202551860Y-57023805D01*
X202551860Y-57023805D02*
X202504241Y-56928567D01*
X202504241Y-56928567D02*
X202504241Y-56642853D01*
X202504241Y-56642853D02*
X202551860Y-56547615D01*
X202551860Y-56547615D02*
X202599479Y-56499996D01*
X202599479Y-56499996D02*
X202694717Y-56452377D01*
X202694717Y-56452377D02*
X202837574Y-56452377D01*
X202837574Y-56452377D02*
X202932812Y-56499996D01*
X202932812Y-56499996D02*
X202980431Y-56547615D01*
X202980431Y-56547615D02*
X203028050Y-56642853D01*
X203028050Y-56642853D02*
X203028050Y-56928567D01*
X203028050Y-56928567D02*
X202980431Y-57023805D01*
X202980431Y-57023805D02*
X202932812Y-57071425D01*
X202932812Y-57071425D02*
X202837574Y-57119044D01*
X202837574Y-57119044D02*
X202694717Y-57119044D01*
X203456622Y-56452377D02*
X203456622Y-57119044D01*
X203456622Y-56547615D02*
X203504241Y-56499996D01*
X203504241Y-56499996D02*
X203599479Y-56452377D01*
X203599479Y-56452377D02*
X203742336Y-56452377D01*
X203742336Y-56452377D02*
X203837574Y-56499996D01*
X203837574Y-56499996D02*
X203885193Y-56595234D01*
X203885193Y-56595234D02*
X203885193Y-57119044D01*
X194404248Y-70803419D02*
X195070914Y-70803419D01*
X195070914Y-70803419D02*
X194404248Y-71803419D01*
X194404248Y-71803419D02*
X195070914Y-71803419D01*
X195356629Y-70803419D02*
X196023295Y-71803419D01*
X196023295Y-70803419D02*
X195356629Y-71803419D01*
X197118534Y-71755800D02*
X197261391Y-71803419D01*
X197261391Y-71803419D02*
X197499486Y-71803419D01*
X197499486Y-71803419D02*
X197594724Y-71755800D01*
X197594724Y-71755800D02*
X197642343Y-71708180D01*
X197642343Y-71708180D02*
X197689962Y-71612942D01*
X197689962Y-71612942D02*
X197689962Y-71517704D01*
X197689962Y-71517704D02*
X197642343Y-71422466D01*
X197642343Y-71422466D02*
X197594724Y-71374847D01*
X197594724Y-71374847D02*
X197499486Y-71327228D01*
X197499486Y-71327228D02*
X197309010Y-71279609D01*
X197309010Y-71279609D02*
X197213772Y-71231990D01*
X197213772Y-71231990D02*
X197166153Y-71184371D01*
X197166153Y-71184371D02*
X197118534Y-71089133D01*
X197118534Y-71089133D02*
X197118534Y-70993895D01*
X197118534Y-70993895D02*
X197166153Y-70898657D01*
X197166153Y-70898657D02*
X197213772Y-70851038D01*
X197213772Y-70851038D02*
X197309010Y-70803419D01*
X197309010Y-70803419D02*
X197547105Y-70803419D01*
X197547105Y-70803419D02*
X197689962Y-70851038D01*
X198118534Y-71136752D02*
X198118534Y-72136752D01*
X198118534Y-71184371D02*
X198213772Y-71136752D01*
X198213772Y-71136752D02*
X198404248Y-71136752D01*
X198404248Y-71136752D02*
X198499486Y-71184371D01*
X198499486Y-71184371D02*
X198547105Y-71231990D01*
X198547105Y-71231990D02*
X198594724Y-71327228D01*
X198594724Y-71327228D02*
X198594724Y-71612942D01*
X198594724Y-71612942D02*
X198547105Y-71708180D01*
X198547105Y-71708180D02*
X198499486Y-71755800D01*
X198499486Y-71755800D02*
X198404248Y-71803419D01*
X198404248Y-71803419D02*
X198213772Y-71803419D01*
X198213772Y-71803419D02*
X198118534Y-71755800D01*
X199404248Y-71755800D02*
X199309010Y-71803419D01*
X199309010Y-71803419D02*
X199118534Y-71803419D01*
X199118534Y-71803419D02*
X199023296Y-71755800D01*
X199023296Y-71755800D02*
X198975677Y-71660561D01*
X198975677Y-71660561D02*
X198975677Y-71279609D01*
X198975677Y-71279609D02*
X199023296Y-71184371D01*
X199023296Y-71184371D02*
X199118534Y-71136752D01*
X199118534Y-71136752D02*
X199309010Y-71136752D01*
X199309010Y-71136752D02*
X199404248Y-71184371D01*
X199404248Y-71184371D02*
X199451867Y-71279609D01*
X199451867Y-71279609D02*
X199451867Y-71374847D01*
X199451867Y-71374847D02*
X198975677Y-71470085D01*
X200309010Y-71755800D02*
X200213772Y-71803419D01*
X200213772Y-71803419D02*
X200023296Y-71803419D01*
X200023296Y-71803419D02*
X199928058Y-71755800D01*
X199928058Y-71755800D02*
X199880439Y-71708180D01*
X199880439Y-71708180D02*
X199832820Y-71612942D01*
X199832820Y-71612942D02*
X199832820Y-71327228D01*
X199832820Y-71327228D02*
X199880439Y-71231990D01*
X199880439Y-71231990D02*
X199928058Y-71184371D01*
X199928058Y-71184371D02*
X200023296Y-71136752D01*
X200023296Y-71136752D02*
X200213772Y-71136752D01*
X200213772Y-71136752D02*
X200309010Y-71184371D01*
X200594725Y-71136752D02*
X200975677Y-71136752D01*
X200737582Y-70803419D02*
X200737582Y-71660561D01*
X200737582Y-71660561D02*
X200785201Y-71755800D01*
X200785201Y-71755800D02*
X200880439Y-71803419D01*
X200880439Y-71803419D02*
X200975677Y-71803419D01*
X201309011Y-71803419D02*
X201309011Y-71136752D01*
X201309011Y-71327228D02*
X201356630Y-71231990D01*
X201356630Y-71231990D02*
X201404249Y-71184371D01*
X201404249Y-71184371D02*
X201499487Y-71136752D01*
X201499487Y-71136752D02*
X201594725Y-71136752D01*
X202356630Y-71136752D02*
X202356630Y-71803419D01*
X201928059Y-71136752D02*
X201928059Y-71660561D01*
X201928059Y-71660561D02*
X201975678Y-71755800D01*
X201975678Y-71755800D02*
X202070916Y-71803419D01*
X202070916Y-71803419D02*
X202213773Y-71803419D01*
X202213773Y-71803419D02*
X202309011Y-71755800D01*
X202309011Y-71755800D02*
X202356630Y-71708180D01*
X202832821Y-71803419D02*
X202832821Y-71136752D01*
X202832821Y-71231990D02*
X202880440Y-71184371D01*
X202880440Y-71184371D02*
X202975678Y-71136752D01*
X202975678Y-71136752D02*
X203118535Y-71136752D01*
X203118535Y-71136752D02*
X203213773Y-71184371D01*
X203213773Y-71184371D02*
X203261392Y-71279609D01*
X203261392Y-71279609D02*
X203261392Y-71803419D01*
X203261392Y-71279609D02*
X203309011Y-71184371D01*
X203309011Y-71184371D02*
X203404249Y-71136752D01*
X203404249Y-71136752D02*
X203547106Y-71136752D01*
X203547106Y-71136752D02*
X203642345Y-71184371D01*
X203642345Y-71184371D02*
X203689964Y-71279609D01*
X203689964Y-71279609D02*
X203689964Y-71803419D01*
X113884109Y-98350092D02*
X113931728Y-98207235D01*
X113931728Y-98207235D02*
X113979347Y-98159616D01*
X113979347Y-98159616D02*
X114074585Y-98111997D01*
X114074585Y-98111997D02*
X114217442Y-98111997D01*
X114217442Y-98111997D02*
X114312680Y-98159616D01*
X114312680Y-98159616D02*
X114360300Y-98207235D01*
X114360300Y-98207235D02*
X114407919Y-98302473D01*
X114407919Y-98302473D02*
X114407919Y-98683425D01*
X114407919Y-98683425D02*
X113407919Y-98683425D01*
X113407919Y-98683425D02*
X113407919Y-98350092D01*
X113407919Y-98350092D02*
X113455538Y-98254854D01*
X113455538Y-98254854D02*
X113503157Y-98207235D01*
X113503157Y-98207235D02*
X113598395Y-98159616D01*
X113598395Y-98159616D02*
X113693633Y-98159616D01*
X113693633Y-98159616D02*
X113788871Y-98207235D01*
X113788871Y-98207235D02*
X113836490Y-98254854D01*
X113836490Y-98254854D02*
X113884109Y-98350092D01*
X113884109Y-98350092D02*
X113884109Y-98683425D01*
X114312680Y-97111997D02*
X114360300Y-97159616D01*
X114360300Y-97159616D02*
X114407919Y-97302473D01*
X114407919Y-97302473D02*
X114407919Y-97397711D01*
X114407919Y-97397711D02*
X114360300Y-97540568D01*
X114360300Y-97540568D02*
X114265061Y-97635806D01*
X114265061Y-97635806D02*
X114169823Y-97683425D01*
X114169823Y-97683425D02*
X113979347Y-97731044D01*
X113979347Y-97731044D02*
X113836490Y-97731044D01*
X113836490Y-97731044D02*
X113646014Y-97683425D01*
X113646014Y-97683425D02*
X113550776Y-97635806D01*
X113550776Y-97635806D02*
X113455538Y-97540568D01*
X113455538Y-97540568D02*
X113407919Y-97397711D01*
X113407919Y-97397711D02*
X113407919Y-97302473D01*
X113407919Y-97302473D02*
X113455538Y-97159616D01*
X113455538Y-97159616D02*
X113503157Y-97111997D01*
X113503157Y-96731044D02*
X113455538Y-96683425D01*
X113455538Y-96683425D02*
X113407919Y-96588187D01*
X113407919Y-96588187D02*
X113407919Y-96350092D01*
X113407919Y-96350092D02*
X113455538Y-96254854D01*
X113455538Y-96254854D02*
X113503157Y-96207235D01*
X113503157Y-96207235D02*
X113598395Y-96159616D01*
X113598395Y-96159616D02*
X113693633Y-96159616D01*
X113693633Y-96159616D02*
X113836490Y-96207235D01*
X113836490Y-96207235D02*
X114407919Y-96778663D01*
X114407919Y-96778663D02*
X114407919Y-96159616D01*
X114407919Y-95207235D02*
X114407919Y-95778663D01*
X114407919Y-95492949D02*
X113407919Y-95492949D01*
X113407919Y-95492949D02*
X113550776Y-95588187D01*
X113550776Y-95588187D02*
X113646014Y-95683425D01*
X113646014Y-95683425D02*
X113693633Y-95778663D01*
X113407919Y-94873901D02*
X113407919Y-94254854D01*
X113407919Y-94254854D02*
X113788871Y-94588187D01*
X113788871Y-94588187D02*
X113788871Y-94445330D01*
X113788871Y-94445330D02*
X113836490Y-94350092D01*
X113836490Y-94350092D02*
X113884109Y-94302473D01*
X113884109Y-94302473D02*
X113979347Y-94254854D01*
X113979347Y-94254854D02*
X114217442Y-94254854D01*
X114217442Y-94254854D02*
X114312680Y-94302473D01*
X114312680Y-94302473D02*
X114360300Y-94350092D01*
X114360300Y-94350092D02*
X114407919Y-94445330D01*
X114407919Y-94445330D02*
X114407919Y-94731044D01*
X114407919Y-94731044D02*
X114360300Y-94826282D01*
X114360300Y-94826282D02*
X114312680Y-94873901D01*
X114312680Y-93254854D02*
X114360300Y-93302473D01*
X114360300Y-93302473D02*
X114407919Y-93445330D01*
X114407919Y-93445330D02*
X114407919Y-93540568D01*
X114407919Y-93540568D02*
X114360300Y-93683425D01*
X114360300Y-93683425D02*
X114265061Y-93778663D01*
X114265061Y-93778663D02*
X114169823Y-93826282D01*
X114169823Y-93826282D02*
X113979347Y-93873901D01*
X113979347Y-93873901D02*
X113836490Y-93873901D01*
X113836490Y-93873901D02*
X113646014Y-93826282D01*
X113646014Y-93826282D02*
X113550776Y-93778663D01*
X113550776Y-93778663D02*
X113455538Y-93683425D01*
X113455538Y-93683425D02*
X113407919Y-93540568D01*
X113407919Y-93540568D02*
X113407919Y-93445330D01*
X113407919Y-93445330D02*
X113455538Y-93302473D01*
X113455538Y-93302473D02*
X113503157Y-93254854D01*
X111713157Y-96088188D02*
X111665538Y-96183426D01*
X111665538Y-96183426D02*
X111570300Y-96278664D01*
X111570300Y-96278664D02*
X111427442Y-96421521D01*
X111427442Y-96421521D02*
X111379823Y-96516759D01*
X111379823Y-96516759D02*
X111379823Y-96611997D01*
X111617919Y-96564378D02*
X111570300Y-96659616D01*
X111570300Y-96659616D02*
X111475061Y-96754854D01*
X111475061Y-96754854D02*
X111284585Y-96802473D01*
X111284585Y-96802473D02*
X110951252Y-96802473D01*
X110951252Y-96802473D02*
X110760776Y-96754854D01*
X110760776Y-96754854D02*
X110665538Y-96659616D01*
X110665538Y-96659616D02*
X110617919Y-96564378D01*
X110617919Y-96564378D02*
X110617919Y-96373902D01*
X110617919Y-96373902D02*
X110665538Y-96278664D01*
X110665538Y-96278664D02*
X110760776Y-96183426D01*
X110760776Y-96183426D02*
X110951252Y-96135807D01*
X110951252Y-96135807D02*
X111284585Y-96135807D01*
X111284585Y-96135807D02*
X111475061Y-96183426D01*
X111475061Y-96183426D02*
X111570300Y-96278664D01*
X111570300Y-96278664D02*
X111617919Y-96373902D01*
X111617919Y-96373902D02*
X111617919Y-96564378D01*
X110617919Y-95231045D02*
X110617919Y-95707235D01*
X110617919Y-95707235D02*
X111094109Y-95754854D01*
X111094109Y-95754854D02*
X111046490Y-95707235D01*
X111046490Y-95707235D02*
X110998871Y-95611997D01*
X110998871Y-95611997D02*
X110998871Y-95373902D01*
X110998871Y-95373902D02*
X111046490Y-95278664D01*
X111046490Y-95278664D02*
X111094109Y-95231045D01*
X111094109Y-95231045D02*
X111189347Y-95183426D01*
X111189347Y-95183426D02*
X111427442Y-95183426D01*
X111427442Y-95183426D02*
X111522680Y-95231045D01*
X111522680Y-95231045D02*
X111570300Y-95278664D01*
X111570300Y-95278664D02*
X111617919Y-95373902D01*
X111617919Y-95373902D02*
X111617919Y-95611997D01*
X111617919Y-95611997D02*
X111570300Y-95707235D01*
X111570300Y-95707235D02*
X111522680Y-95754854D01*
D11*
X260908140Y-110222241D02*
X260968617Y-110282717D01*
X260968617Y-110282717D02*
X261029093Y-110464146D01*
X261029093Y-110464146D02*
X261029093Y-110585098D01*
X261029093Y-110585098D02*
X260968617Y-110766527D01*
X260968617Y-110766527D02*
X260847664Y-110887479D01*
X260847664Y-110887479D02*
X260726712Y-110947956D01*
X260726712Y-110947956D02*
X260484807Y-111008432D01*
X260484807Y-111008432D02*
X260303378Y-111008432D01*
X260303378Y-111008432D02*
X260061474Y-110947956D01*
X260061474Y-110947956D02*
X259940521Y-110887479D01*
X259940521Y-110887479D02*
X259819569Y-110766527D01*
X259819569Y-110766527D02*
X259759093Y-110585098D01*
X259759093Y-110585098D02*
X259759093Y-110464146D01*
X259759093Y-110464146D02*
X259819569Y-110282717D01*
X259819569Y-110282717D02*
X259880045Y-110222241D01*
X259759093Y-109798908D02*
X259759093Y-109012717D01*
X259759093Y-109012717D02*
X260242902Y-109436051D01*
X260242902Y-109436051D02*
X260242902Y-109254622D01*
X260242902Y-109254622D02*
X260303378Y-109133670D01*
X260303378Y-109133670D02*
X260363855Y-109073194D01*
X260363855Y-109073194D02*
X260484807Y-109012717D01*
X260484807Y-109012717D02*
X260787188Y-109012717D01*
X260787188Y-109012717D02*
X260908140Y-109073194D01*
X260908140Y-109073194D02*
X260968617Y-109133670D01*
X260968617Y-109133670D02*
X261029093Y-109254622D01*
X261029093Y-109254622D02*
X261029093Y-109617479D01*
X261029093Y-109617479D02*
X260968617Y-109738432D01*
X260968617Y-109738432D02*
X260908140Y-109798908D01*
D10*
X125295059Y-90812642D02*
X125342678Y-90669785D01*
X125342678Y-90669785D02*
X125390297Y-90622166D01*
X125390297Y-90622166D02*
X125485535Y-90574547D01*
X125485535Y-90574547D02*
X125628392Y-90574547D01*
X125628392Y-90574547D02*
X125723630Y-90622166D01*
X125723630Y-90622166D02*
X125771250Y-90669785D01*
X125771250Y-90669785D02*
X125818869Y-90765023D01*
X125818869Y-90765023D02*
X125818869Y-91145975D01*
X125818869Y-91145975D02*
X124818869Y-91145975D01*
X124818869Y-91145975D02*
X124818869Y-90812642D01*
X124818869Y-90812642D02*
X124866488Y-90717404D01*
X124866488Y-90717404D02*
X124914107Y-90669785D01*
X124914107Y-90669785D02*
X125009345Y-90622166D01*
X125009345Y-90622166D02*
X125104583Y-90622166D01*
X125104583Y-90622166D02*
X125199821Y-90669785D01*
X125199821Y-90669785D02*
X125247440Y-90717404D01*
X125247440Y-90717404D02*
X125295059Y-90812642D01*
X125295059Y-90812642D02*
X125295059Y-91145975D01*
X125723630Y-89574547D02*
X125771250Y-89622166D01*
X125771250Y-89622166D02*
X125818869Y-89765023D01*
X125818869Y-89765023D02*
X125818869Y-89860261D01*
X125818869Y-89860261D02*
X125771250Y-90003118D01*
X125771250Y-90003118D02*
X125676011Y-90098356D01*
X125676011Y-90098356D02*
X125580773Y-90145975D01*
X125580773Y-90145975D02*
X125390297Y-90193594D01*
X125390297Y-90193594D02*
X125247440Y-90193594D01*
X125247440Y-90193594D02*
X125056964Y-90145975D01*
X125056964Y-90145975D02*
X124961726Y-90098356D01*
X124961726Y-90098356D02*
X124866488Y-90003118D01*
X124866488Y-90003118D02*
X124818869Y-89860261D01*
X124818869Y-89860261D02*
X124818869Y-89765023D01*
X124818869Y-89765023D02*
X124866488Y-89622166D01*
X124866488Y-89622166D02*
X124914107Y-89574547D01*
X125818869Y-88622166D02*
X125818869Y-89193594D01*
X125818869Y-88907880D02*
X124818869Y-88907880D01*
X124818869Y-88907880D02*
X124961726Y-89003118D01*
X124961726Y-89003118D02*
X125056964Y-89098356D01*
X125056964Y-89098356D02*
X125104583Y-89193594D01*
X125247440Y-88050737D02*
X125199821Y-88145975D01*
X125199821Y-88145975D02*
X125152202Y-88193594D01*
X125152202Y-88193594D02*
X125056964Y-88241213D01*
X125056964Y-88241213D02*
X125009345Y-88241213D01*
X125009345Y-88241213D02*
X124914107Y-88193594D01*
X124914107Y-88193594D02*
X124866488Y-88145975D01*
X124866488Y-88145975D02*
X124818869Y-88050737D01*
X124818869Y-88050737D02*
X124818869Y-87860261D01*
X124818869Y-87860261D02*
X124866488Y-87765023D01*
X124866488Y-87765023D02*
X124914107Y-87717404D01*
X124914107Y-87717404D02*
X125009345Y-87669785D01*
X125009345Y-87669785D02*
X125056964Y-87669785D01*
X125056964Y-87669785D02*
X125152202Y-87717404D01*
X125152202Y-87717404D02*
X125199821Y-87765023D01*
X125199821Y-87765023D02*
X125247440Y-87860261D01*
X125247440Y-87860261D02*
X125247440Y-88050737D01*
X125247440Y-88050737D02*
X125295059Y-88145975D01*
X125295059Y-88145975D02*
X125342678Y-88193594D01*
X125342678Y-88193594D02*
X125437916Y-88241213D01*
X125437916Y-88241213D02*
X125628392Y-88241213D01*
X125628392Y-88241213D02*
X125723630Y-88193594D01*
X125723630Y-88193594D02*
X125771250Y-88145975D01*
X125771250Y-88145975D02*
X125818869Y-88050737D01*
X125818869Y-88050737D02*
X125818869Y-87860261D01*
X125818869Y-87860261D02*
X125771250Y-87765023D01*
X125771250Y-87765023D02*
X125723630Y-87717404D01*
X125723630Y-87717404D02*
X125628392Y-87669785D01*
X125628392Y-87669785D02*
X125437916Y-87669785D01*
X125437916Y-87669785D02*
X125342678Y-87717404D01*
X125342678Y-87717404D02*
X125295059Y-87765023D01*
X125295059Y-87765023D02*
X125247440Y-87860261D01*
X125152202Y-86812642D02*
X125818869Y-86812642D01*
X124771250Y-87050737D02*
X125485535Y-87288832D01*
X125485535Y-87288832D02*
X125485535Y-86669785D01*
X125723630Y-85717404D02*
X125771250Y-85765023D01*
X125771250Y-85765023D02*
X125818869Y-85907880D01*
X125818869Y-85907880D02*
X125818869Y-86003118D01*
X125818869Y-86003118D02*
X125771250Y-86145975D01*
X125771250Y-86145975D02*
X125676011Y-86241213D01*
X125676011Y-86241213D02*
X125580773Y-86288832D01*
X125580773Y-86288832D02*
X125390297Y-86336451D01*
X125390297Y-86336451D02*
X125247440Y-86336451D01*
X125247440Y-86336451D02*
X125056964Y-86288832D01*
X125056964Y-86288832D02*
X124961726Y-86241213D01*
X124961726Y-86241213D02*
X124866488Y-86145975D01*
X124866488Y-86145975D02*
X124818869Y-86003118D01*
X124818869Y-86003118D02*
X124818869Y-85907880D01*
X124818869Y-85907880D02*
X124866488Y-85765023D01*
X124866488Y-85765023D02*
X124914107Y-85717404D01*
X123124107Y-88550738D02*
X123076488Y-88645976D01*
X123076488Y-88645976D02*
X122981250Y-88741214D01*
X122981250Y-88741214D02*
X122838392Y-88884071D01*
X122838392Y-88884071D02*
X122790773Y-88979309D01*
X122790773Y-88979309D02*
X122790773Y-89074547D01*
X123028869Y-89026928D02*
X122981250Y-89122166D01*
X122981250Y-89122166D02*
X122886011Y-89217404D01*
X122886011Y-89217404D02*
X122695535Y-89265023D01*
X122695535Y-89265023D02*
X122362202Y-89265023D01*
X122362202Y-89265023D02*
X122171726Y-89217404D01*
X122171726Y-89217404D02*
X122076488Y-89122166D01*
X122076488Y-89122166D02*
X122028869Y-89026928D01*
X122028869Y-89026928D02*
X122028869Y-88836452D01*
X122028869Y-88836452D02*
X122076488Y-88741214D01*
X122076488Y-88741214D02*
X122171726Y-88645976D01*
X122171726Y-88645976D02*
X122362202Y-88598357D01*
X122362202Y-88598357D02*
X122695535Y-88598357D01*
X122695535Y-88598357D02*
X122886011Y-88645976D01*
X122886011Y-88645976D02*
X122981250Y-88741214D01*
X122981250Y-88741214D02*
X123028869Y-88836452D01*
X123028869Y-88836452D02*
X123028869Y-89026928D01*
X123028869Y-88122166D02*
X123028869Y-87931690D01*
X123028869Y-87931690D02*
X122981250Y-87836452D01*
X122981250Y-87836452D02*
X122933630Y-87788833D01*
X122933630Y-87788833D02*
X122790773Y-87693595D01*
X122790773Y-87693595D02*
X122600297Y-87645976D01*
X122600297Y-87645976D02*
X122219345Y-87645976D01*
X122219345Y-87645976D02*
X122124107Y-87693595D01*
X122124107Y-87693595D02*
X122076488Y-87741214D01*
X122076488Y-87741214D02*
X122028869Y-87836452D01*
X122028869Y-87836452D02*
X122028869Y-88026928D01*
X122028869Y-88026928D02*
X122076488Y-88122166D01*
X122076488Y-88122166D02*
X122124107Y-88169785D01*
X122124107Y-88169785D02*
X122219345Y-88217404D01*
X122219345Y-88217404D02*
X122457440Y-88217404D01*
X122457440Y-88217404D02*
X122552678Y-88169785D01*
X122552678Y-88169785D02*
X122600297Y-88122166D01*
X122600297Y-88122166D02*
X122647916Y-88026928D01*
X122647916Y-88026928D02*
X122647916Y-87836452D01*
X122647916Y-87836452D02*
X122600297Y-87741214D01*
X122600297Y-87741214D02*
X122552678Y-87693595D01*
X122552678Y-87693595D02*
X122457440Y-87645976D01*
X179356994Y-116485597D02*
X179356994Y-116961787D01*
X179356994Y-116961787D02*
X178356994Y-116961787D01*
X179071279Y-116199882D02*
X179071279Y-115723692D01*
X179356994Y-116295120D02*
X178356994Y-115961787D01*
X178356994Y-115961787D02*
X179356994Y-115628454D01*
X179356994Y-114771311D02*
X179356994Y-115342739D01*
X179356994Y-115057025D02*
X178356994Y-115057025D01*
X178356994Y-115057025D02*
X178499851Y-115152263D01*
X178499851Y-115152263D02*
X178595089Y-115247501D01*
X178595089Y-115247501D02*
X178642708Y-115342739D01*
X178356994Y-113866549D02*
X178356994Y-114342739D01*
X178356994Y-114342739D02*
X178833184Y-114390358D01*
X178833184Y-114390358D02*
X178785565Y-114342739D01*
X178785565Y-114342739D02*
X178737946Y-114247501D01*
X178737946Y-114247501D02*
X178737946Y-114009406D01*
X178737946Y-114009406D02*
X178785565Y-113914168D01*
X178785565Y-113914168D02*
X178833184Y-113866549D01*
X178833184Y-113866549D02*
X178928422Y-113818930D01*
X178928422Y-113818930D02*
X179166517Y-113818930D01*
X179166517Y-113818930D02*
X179261755Y-113866549D01*
X179261755Y-113866549D02*
X179309375Y-113914168D01*
X179309375Y-113914168D02*
X179356994Y-114009406D01*
X179356994Y-114009406D02*
X179356994Y-114247501D01*
X179356994Y-114247501D02*
X179309375Y-114342739D01*
X179309375Y-114342739D02*
X179261755Y-114390358D01*
X178976041Y-113390358D02*
X178976041Y-112628454D01*
X178356994Y-112247501D02*
X178356994Y-111628454D01*
X178356994Y-111628454D02*
X178737946Y-111961787D01*
X178737946Y-111961787D02*
X178737946Y-111818930D01*
X178737946Y-111818930D02*
X178785565Y-111723692D01*
X178785565Y-111723692D02*
X178833184Y-111676073D01*
X178833184Y-111676073D02*
X178928422Y-111628454D01*
X178928422Y-111628454D02*
X179166517Y-111628454D01*
X179166517Y-111628454D02*
X179261755Y-111676073D01*
X179261755Y-111676073D02*
X179309375Y-111723692D01*
X179309375Y-111723692D02*
X179356994Y-111818930D01*
X179356994Y-111818930D02*
X179356994Y-112104644D01*
X179356994Y-112104644D02*
X179309375Y-112199882D01*
X179309375Y-112199882D02*
X179261755Y-112247501D01*
X178356994Y-111009406D02*
X178356994Y-110914168D01*
X178356994Y-110914168D02*
X178404613Y-110818930D01*
X178404613Y-110818930D02*
X178452232Y-110771311D01*
X178452232Y-110771311D02*
X178547470Y-110723692D01*
X178547470Y-110723692D02*
X178737946Y-110676073D01*
X178737946Y-110676073D02*
X178976041Y-110676073D01*
X178976041Y-110676073D02*
X179166517Y-110723692D01*
X179166517Y-110723692D02*
X179261755Y-110771311D01*
X179261755Y-110771311D02*
X179309375Y-110818930D01*
X179309375Y-110818930D02*
X179356994Y-110914168D01*
X179356994Y-110914168D02*
X179356994Y-111009406D01*
X179356994Y-111009406D02*
X179309375Y-111104644D01*
X179309375Y-111104644D02*
X179261755Y-111152263D01*
X179261755Y-111152263D02*
X179166517Y-111199882D01*
X179166517Y-111199882D02*
X178976041Y-111247501D01*
X178976041Y-111247501D02*
X178737946Y-111247501D01*
X178737946Y-111247501D02*
X178547470Y-111199882D01*
X178547470Y-111199882D02*
X178452232Y-111152263D01*
X178452232Y-111152263D02*
X178404613Y-111104644D01*
X178404613Y-111104644D02*
X178356994Y-111009406D01*
X178452232Y-110295120D02*
X178404613Y-110247501D01*
X178404613Y-110247501D02*
X178356994Y-110152263D01*
X178356994Y-110152263D02*
X178356994Y-109914168D01*
X178356994Y-109914168D02*
X178404613Y-109818930D01*
X178404613Y-109818930D02*
X178452232Y-109771311D01*
X178452232Y-109771311D02*
X178547470Y-109723692D01*
X178547470Y-109723692D02*
X178642708Y-109723692D01*
X178642708Y-109723692D02*
X178785565Y-109771311D01*
X178785565Y-109771311D02*
X179356994Y-110342739D01*
X179356994Y-110342739D02*
X179356994Y-109723692D01*
X204816994Y-114128454D02*
X205626517Y-114128454D01*
X205626517Y-114128454D02*
X205721755Y-114080835D01*
X205721755Y-114080835D02*
X205769375Y-114033216D01*
X205769375Y-114033216D02*
X205816994Y-113937978D01*
X205816994Y-113937978D02*
X205816994Y-113747502D01*
X205816994Y-113747502D02*
X205769375Y-113652264D01*
X205769375Y-113652264D02*
X205721755Y-113604645D01*
X205721755Y-113604645D02*
X205626517Y-113557026D01*
X205626517Y-113557026D02*
X204816994Y-113557026D01*
X205816994Y-112557026D02*
X205816994Y-113128454D01*
X205816994Y-112842740D02*
X204816994Y-112842740D01*
X204816994Y-112842740D02*
X204959851Y-112937978D01*
X204959851Y-112937978D02*
X205055089Y-113033216D01*
X205055089Y-113033216D02*
X205102708Y-113128454D01*
X211116644Y-100940838D02*
X211116644Y-100274172D01*
X211116644Y-100274172D02*
X212116644Y-100702743D01*
X211449977Y-99464648D02*
X212116644Y-99464648D01*
X211069025Y-99702743D02*
X211783310Y-99940838D01*
X211783310Y-99940838D02*
X211783310Y-99321791D01*
X212116644Y-98940838D02*
X211116644Y-98940838D01*
X211592834Y-98940838D02*
X211592834Y-98369410D01*
X212116644Y-98369410D02*
X211116644Y-98369410D01*
X212021405Y-97321791D02*
X212069025Y-97369410D01*
X212069025Y-97369410D02*
X212116644Y-97512267D01*
X212116644Y-97512267D02*
X212116644Y-97607505D01*
X212116644Y-97607505D02*
X212069025Y-97750362D01*
X212069025Y-97750362D02*
X211973786Y-97845600D01*
X211973786Y-97845600D02*
X211878548Y-97893219D01*
X211878548Y-97893219D02*
X211688072Y-97940838D01*
X211688072Y-97940838D02*
X211545215Y-97940838D01*
X211545215Y-97940838D02*
X211354739Y-97893219D01*
X211354739Y-97893219D02*
X211259501Y-97845600D01*
X211259501Y-97845600D02*
X211164263Y-97750362D01*
X211164263Y-97750362D02*
X211116644Y-97607505D01*
X211116644Y-97607505D02*
X211116644Y-97512267D01*
X211116644Y-97512267D02*
X211164263Y-97369410D01*
X211164263Y-97369410D02*
X211211882Y-97321791D01*
X211116644Y-96702743D02*
X211116644Y-96607505D01*
X211116644Y-96607505D02*
X211164263Y-96512267D01*
X211164263Y-96512267D02*
X211211882Y-96464648D01*
X211211882Y-96464648D02*
X211307120Y-96417029D01*
X211307120Y-96417029D02*
X211497596Y-96369410D01*
X211497596Y-96369410D02*
X211735691Y-96369410D01*
X211735691Y-96369410D02*
X211926167Y-96417029D01*
X211926167Y-96417029D02*
X212021405Y-96464648D01*
X212021405Y-96464648D02*
X212069025Y-96512267D01*
X212069025Y-96512267D02*
X212116644Y-96607505D01*
X212116644Y-96607505D02*
X212116644Y-96702743D01*
X212116644Y-96702743D02*
X212069025Y-96797981D01*
X212069025Y-96797981D02*
X212021405Y-96845600D01*
X212021405Y-96845600D02*
X211926167Y-96893219D01*
X211926167Y-96893219D02*
X211735691Y-96940838D01*
X211735691Y-96940838D02*
X211497596Y-96940838D01*
X211497596Y-96940838D02*
X211307120Y-96893219D01*
X211307120Y-96893219D02*
X211211882Y-96845600D01*
X211211882Y-96845600D02*
X211164263Y-96797981D01*
X211164263Y-96797981D02*
X211116644Y-96702743D01*
X211449977Y-95512267D02*
X212116644Y-95512267D01*
X211069025Y-95750362D02*
X211783310Y-95988457D01*
X211783310Y-95988457D02*
X211783310Y-95369410D01*
X221066644Y-98917029D02*
X221876167Y-98917029D01*
X221876167Y-98917029D02*
X221971405Y-98869410D01*
X221971405Y-98869410D02*
X222019025Y-98821791D01*
X222019025Y-98821791D02*
X222066644Y-98726553D01*
X222066644Y-98726553D02*
X222066644Y-98536077D01*
X222066644Y-98536077D02*
X222019025Y-98440839D01*
X222019025Y-98440839D02*
X221971405Y-98393220D01*
X221971405Y-98393220D02*
X221876167Y-98345601D01*
X221876167Y-98345601D02*
X221066644Y-98345601D01*
X221399977Y-97440839D02*
X222066644Y-97440839D01*
X221019025Y-97678934D02*
X221733310Y-97917029D01*
X221733310Y-97917029D02*
X221733310Y-97297982D01*
X113953959Y-90742792D02*
X114001578Y-90599935D01*
X114001578Y-90599935D02*
X114049197Y-90552316D01*
X114049197Y-90552316D02*
X114144435Y-90504697D01*
X114144435Y-90504697D02*
X114287292Y-90504697D01*
X114287292Y-90504697D02*
X114382530Y-90552316D01*
X114382530Y-90552316D02*
X114430150Y-90599935D01*
X114430150Y-90599935D02*
X114477769Y-90695173D01*
X114477769Y-90695173D02*
X114477769Y-91076125D01*
X114477769Y-91076125D02*
X113477769Y-91076125D01*
X113477769Y-91076125D02*
X113477769Y-90742792D01*
X113477769Y-90742792D02*
X113525388Y-90647554D01*
X113525388Y-90647554D02*
X113573007Y-90599935D01*
X113573007Y-90599935D02*
X113668245Y-90552316D01*
X113668245Y-90552316D02*
X113763483Y-90552316D01*
X113763483Y-90552316D02*
X113858721Y-90599935D01*
X113858721Y-90599935D02*
X113906340Y-90647554D01*
X113906340Y-90647554D02*
X113953959Y-90742792D01*
X113953959Y-90742792D02*
X113953959Y-91076125D01*
X114382530Y-89504697D02*
X114430150Y-89552316D01*
X114430150Y-89552316D02*
X114477769Y-89695173D01*
X114477769Y-89695173D02*
X114477769Y-89790411D01*
X114477769Y-89790411D02*
X114430150Y-89933268D01*
X114430150Y-89933268D02*
X114334911Y-90028506D01*
X114334911Y-90028506D02*
X114239673Y-90076125D01*
X114239673Y-90076125D02*
X114049197Y-90123744D01*
X114049197Y-90123744D02*
X113906340Y-90123744D01*
X113906340Y-90123744D02*
X113715864Y-90076125D01*
X113715864Y-90076125D02*
X113620626Y-90028506D01*
X113620626Y-90028506D02*
X113525388Y-89933268D01*
X113525388Y-89933268D02*
X113477769Y-89790411D01*
X113477769Y-89790411D02*
X113477769Y-89695173D01*
X113477769Y-89695173D02*
X113525388Y-89552316D01*
X113525388Y-89552316D02*
X113573007Y-89504697D01*
X114477769Y-88552316D02*
X114477769Y-89123744D01*
X114477769Y-88838030D02*
X113477769Y-88838030D01*
X113477769Y-88838030D02*
X113620626Y-88933268D01*
X113620626Y-88933268D02*
X113715864Y-89028506D01*
X113715864Y-89028506D02*
X113763483Y-89123744D01*
X113906340Y-87980887D02*
X113858721Y-88076125D01*
X113858721Y-88076125D02*
X113811102Y-88123744D01*
X113811102Y-88123744D02*
X113715864Y-88171363D01*
X113715864Y-88171363D02*
X113668245Y-88171363D01*
X113668245Y-88171363D02*
X113573007Y-88123744D01*
X113573007Y-88123744D02*
X113525388Y-88076125D01*
X113525388Y-88076125D02*
X113477769Y-87980887D01*
X113477769Y-87980887D02*
X113477769Y-87790411D01*
X113477769Y-87790411D02*
X113525388Y-87695173D01*
X113525388Y-87695173D02*
X113573007Y-87647554D01*
X113573007Y-87647554D02*
X113668245Y-87599935D01*
X113668245Y-87599935D02*
X113715864Y-87599935D01*
X113715864Y-87599935D02*
X113811102Y-87647554D01*
X113811102Y-87647554D02*
X113858721Y-87695173D01*
X113858721Y-87695173D02*
X113906340Y-87790411D01*
X113906340Y-87790411D02*
X113906340Y-87980887D01*
X113906340Y-87980887D02*
X113953959Y-88076125D01*
X113953959Y-88076125D02*
X114001578Y-88123744D01*
X114001578Y-88123744D02*
X114096816Y-88171363D01*
X114096816Y-88171363D02*
X114287292Y-88171363D01*
X114287292Y-88171363D02*
X114382530Y-88123744D01*
X114382530Y-88123744D02*
X114430150Y-88076125D01*
X114430150Y-88076125D02*
X114477769Y-87980887D01*
X114477769Y-87980887D02*
X114477769Y-87790411D01*
X114477769Y-87790411D02*
X114430150Y-87695173D01*
X114430150Y-87695173D02*
X114382530Y-87647554D01*
X114382530Y-87647554D02*
X114287292Y-87599935D01*
X114287292Y-87599935D02*
X114096816Y-87599935D01*
X114096816Y-87599935D02*
X114001578Y-87647554D01*
X114001578Y-87647554D02*
X113953959Y-87695173D01*
X113953959Y-87695173D02*
X113906340Y-87790411D01*
X113811102Y-86742792D02*
X114477769Y-86742792D01*
X113430150Y-86980887D02*
X114144435Y-87218982D01*
X114144435Y-87218982D02*
X114144435Y-86599935D01*
X114382530Y-85647554D02*
X114430150Y-85695173D01*
X114430150Y-85695173D02*
X114477769Y-85838030D01*
X114477769Y-85838030D02*
X114477769Y-85933268D01*
X114477769Y-85933268D02*
X114430150Y-86076125D01*
X114430150Y-86076125D02*
X114334911Y-86171363D01*
X114334911Y-86171363D02*
X114239673Y-86218982D01*
X114239673Y-86218982D02*
X114049197Y-86266601D01*
X114049197Y-86266601D02*
X113906340Y-86266601D01*
X113906340Y-86266601D02*
X113715864Y-86218982D01*
X113715864Y-86218982D02*
X113620626Y-86171363D01*
X113620626Y-86171363D02*
X113525388Y-86076125D01*
X113525388Y-86076125D02*
X113477769Y-85933268D01*
X113477769Y-85933268D02*
X113477769Y-85838030D01*
X113477769Y-85838030D02*
X113525388Y-85695173D01*
X113525388Y-85695173D02*
X113573007Y-85647554D01*
X111783007Y-88480888D02*
X111735388Y-88576126D01*
X111735388Y-88576126D02*
X111640150Y-88671364D01*
X111640150Y-88671364D02*
X111497292Y-88814221D01*
X111497292Y-88814221D02*
X111449673Y-88909459D01*
X111449673Y-88909459D02*
X111449673Y-89004697D01*
X111687769Y-88957078D02*
X111640150Y-89052316D01*
X111640150Y-89052316D02*
X111544911Y-89147554D01*
X111544911Y-89147554D02*
X111354435Y-89195173D01*
X111354435Y-89195173D02*
X111021102Y-89195173D01*
X111021102Y-89195173D02*
X110830626Y-89147554D01*
X110830626Y-89147554D02*
X110735388Y-89052316D01*
X110735388Y-89052316D02*
X110687769Y-88957078D01*
X110687769Y-88957078D02*
X110687769Y-88766602D01*
X110687769Y-88766602D02*
X110735388Y-88671364D01*
X110735388Y-88671364D02*
X110830626Y-88576126D01*
X110830626Y-88576126D02*
X111021102Y-88528507D01*
X111021102Y-88528507D02*
X111354435Y-88528507D01*
X111354435Y-88528507D02*
X111544911Y-88576126D01*
X111544911Y-88576126D02*
X111640150Y-88671364D01*
X111640150Y-88671364D02*
X111687769Y-88766602D01*
X111687769Y-88766602D02*
X111687769Y-88957078D01*
X110687769Y-87671364D02*
X110687769Y-87861840D01*
X110687769Y-87861840D02*
X110735388Y-87957078D01*
X110735388Y-87957078D02*
X110783007Y-88004697D01*
X110783007Y-88004697D02*
X110925864Y-88099935D01*
X110925864Y-88099935D02*
X111116340Y-88147554D01*
X111116340Y-88147554D02*
X111497292Y-88147554D01*
X111497292Y-88147554D02*
X111592530Y-88099935D01*
X111592530Y-88099935D02*
X111640150Y-88052316D01*
X111640150Y-88052316D02*
X111687769Y-87957078D01*
X111687769Y-87957078D02*
X111687769Y-87766602D01*
X111687769Y-87766602D02*
X111640150Y-87671364D01*
X111640150Y-87671364D02*
X111592530Y-87623745D01*
X111592530Y-87623745D02*
X111497292Y-87576126D01*
X111497292Y-87576126D02*
X111259197Y-87576126D01*
X111259197Y-87576126D02*
X111163959Y-87623745D01*
X111163959Y-87623745D02*
X111116340Y-87671364D01*
X111116340Y-87671364D02*
X111068721Y-87766602D01*
X111068721Y-87766602D02*
X111068721Y-87957078D01*
X111068721Y-87957078D02*
X111116340Y-88052316D01*
X111116340Y-88052316D02*
X111163959Y-88099935D01*
X111163959Y-88099935D02*
X111259197Y-88147554D01*
X168203344Y-93725594D02*
X168203344Y-93154166D01*
X169203344Y-93439880D02*
X168203344Y-93439880D01*
X169203344Y-92820832D02*
X168203344Y-92820832D01*
X168203344Y-92820832D02*
X168917629Y-92487499D01*
X168917629Y-92487499D02*
X168203344Y-92154166D01*
X168203344Y-92154166D02*
X169203344Y-92154166D01*
X169155725Y-91725594D02*
X169203344Y-91582737D01*
X169203344Y-91582737D02*
X169203344Y-91344642D01*
X169203344Y-91344642D02*
X169155725Y-91249404D01*
X169155725Y-91249404D02*
X169108105Y-91201785D01*
X169108105Y-91201785D02*
X169012867Y-91154166D01*
X169012867Y-91154166D02*
X168917629Y-91154166D01*
X168917629Y-91154166D02*
X168822391Y-91201785D01*
X168822391Y-91201785D02*
X168774772Y-91249404D01*
X168774772Y-91249404D02*
X168727153Y-91344642D01*
X168727153Y-91344642D02*
X168679534Y-91535118D01*
X168679534Y-91535118D02*
X168631915Y-91630356D01*
X168631915Y-91630356D02*
X168584296Y-91677975D01*
X168584296Y-91677975D02*
X168489058Y-91725594D01*
X168489058Y-91725594D02*
X168393820Y-91725594D01*
X168393820Y-91725594D02*
X168298582Y-91677975D01*
X168298582Y-91677975D02*
X168250963Y-91630356D01*
X168250963Y-91630356D02*
X168203344Y-91535118D01*
X168203344Y-91535118D02*
X168203344Y-91297023D01*
X168203344Y-91297023D02*
X168250963Y-91154166D01*
X168536677Y-90297023D02*
X169203344Y-90297023D01*
X168155725Y-90535118D02*
X168870010Y-90773213D01*
X168870010Y-90773213D02*
X168870010Y-90154166D01*
X168203344Y-89868451D02*
X168203344Y-89201785D01*
X168203344Y-89201785D02*
X169203344Y-89630356D01*
X168203344Y-88392261D02*
X168203344Y-88582737D01*
X168203344Y-88582737D02*
X168250963Y-88677975D01*
X168250963Y-88677975D02*
X168298582Y-88725594D01*
X168298582Y-88725594D02*
X168441439Y-88820832D01*
X168441439Y-88820832D02*
X168631915Y-88868451D01*
X168631915Y-88868451D02*
X169012867Y-88868451D01*
X169012867Y-88868451D02*
X169108105Y-88820832D01*
X169108105Y-88820832D02*
X169155725Y-88773213D01*
X169155725Y-88773213D02*
X169203344Y-88677975D01*
X169203344Y-88677975D02*
X169203344Y-88487499D01*
X169203344Y-88487499D02*
X169155725Y-88392261D01*
X169155725Y-88392261D02*
X169108105Y-88344642D01*
X169108105Y-88344642D02*
X169012867Y-88297023D01*
X169012867Y-88297023D02*
X168774772Y-88297023D01*
X168774772Y-88297023D02*
X168679534Y-88344642D01*
X168679534Y-88344642D02*
X168631915Y-88392261D01*
X168631915Y-88392261D02*
X168584296Y-88487499D01*
X168584296Y-88487499D02*
X168584296Y-88677975D01*
X168584296Y-88677975D02*
X168631915Y-88773213D01*
X168631915Y-88773213D02*
X168679534Y-88820832D01*
X168679534Y-88820832D02*
X168774772Y-88868451D01*
X168536677Y-87439880D02*
X169203344Y-87439880D01*
X168155725Y-87677975D02*
X168870010Y-87916070D01*
X168870010Y-87916070D02*
X168870010Y-87297023D01*
X184503344Y-91249404D02*
X185312867Y-91249404D01*
X185312867Y-91249404D02*
X185408105Y-91201785D01*
X185408105Y-91201785D02*
X185455725Y-91154166D01*
X185455725Y-91154166D02*
X185503344Y-91058928D01*
X185503344Y-91058928D02*
X185503344Y-90868452D01*
X185503344Y-90868452D02*
X185455725Y-90773214D01*
X185455725Y-90773214D02*
X185408105Y-90725595D01*
X185408105Y-90725595D02*
X185312867Y-90677976D01*
X185312867Y-90677976D02*
X184503344Y-90677976D01*
X184598582Y-90249404D02*
X184550963Y-90201785D01*
X184550963Y-90201785D02*
X184503344Y-90106547D01*
X184503344Y-90106547D02*
X184503344Y-89868452D01*
X184503344Y-89868452D02*
X184550963Y-89773214D01*
X184550963Y-89773214D02*
X184598582Y-89725595D01*
X184598582Y-89725595D02*
X184693820Y-89677976D01*
X184693820Y-89677976D02*
X184789058Y-89677976D01*
X184789058Y-89677976D02*
X184931915Y-89725595D01*
X184931915Y-89725595D02*
X185503344Y-90297023D01*
X185503344Y-90297023D02*
X185503344Y-89677976D01*
D11*
X258310990Y-109812666D02*
X258371467Y-109873142D01*
X258371467Y-109873142D02*
X258431943Y-110054571D01*
X258431943Y-110054571D02*
X258431943Y-110175523D01*
X258431943Y-110175523D02*
X258371467Y-110356952D01*
X258371467Y-110356952D02*
X258250514Y-110477904D01*
X258250514Y-110477904D02*
X258129562Y-110538381D01*
X258129562Y-110538381D02*
X257887657Y-110598857D01*
X257887657Y-110598857D02*
X257706228Y-110598857D01*
X257706228Y-110598857D02*
X257464324Y-110538381D01*
X257464324Y-110538381D02*
X257343371Y-110477904D01*
X257343371Y-110477904D02*
X257222419Y-110356952D01*
X257222419Y-110356952D02*
X257161943Y-110175523D01*
X257161943Y-110175523D02*
X257161943Y-110054571D01*
X257161943Y-110054571D02*
X257222419Y-109873142D01*
X257222419Y-109873142D02*
X257282895Y-109812666D01*
X257585276Y-108724095D02*
X258431943Y-108724095D01*
X257101467Y-109026476D02*
X258008609Y-109328857D01*
X258008609Y-109328857D02*
X258008609Y-108542666D01*
D10*
X108346873Y-83538894D02*
X108346873Y-82538894D01*
X108346873Y-82538894D02*
X108918301Y-83538894D01*
X108918301Y-83538894D02*
X108918301Y-82538894D01*
X109775444Y-83491275D02*
X109680206Y-83538894D01*
X109680206Y-83538894D02*
X109489730Y-83538894D01*
X109489730Y-83538894D02*
X109394492Y-83491275D01*
X109394492Y-83491275D02*
X109346873Y-83396036D01*
X109346873Y-83396036D02*
X109346873Y-83015084D01*
X109346873Y-83015084D02*
X109394492Y-82919846D01*
X109394492Y-82919846D02*
X109489730Y-82872227D01*
X109489730Y-82872227D02*
X109680206Y-82872227D01*
X109680206Y-82872227D02*
X109775444Y-82919846D01*
X109775444Y-82919846D02*
X109823063Y-83015084D01*
X109823063Y-83015084D02*
X109823063Y-83110322D01*
X109823063Y-83110322D02*
X109346873Y-83205560D01*
X110108778Y-82872227D02*
X110489730Y-82872227D01*
X110251635Y-82538894D02*
X110251635Y-83396036D01*
X110251635Y-83396036D02*
X110299254Y-83491275D01*
X110299254Y-83491275D02*
X110394492Y-83538894D01*
X110394492Y-83538894D02*
X110489730Y-83538894D01*
X110727826Y-82872227D02*
X110918302Y-83538894D01*
X110918302Y-83538894D02*
X111108778Y-83062703D01*
X111108778Y-83062703D02*
X111299254Y-83538894D01*
X111299254Y-83538894D02*
X111489730Y-82872227D01*
X112013540Y-83538894D02*
X111918302Y-83491275D01*
X111918302Y-83491275D02*
X111870683Y-83443655D01*
X111870683Y-83443655D02*
X111823064Y-83348417D01*
X111823064Y-83348417D02*
X111823064Y-83062703D01*
X111823064Y-83062703D02*
X111870683Y-82967465D01*
X111870683Y-82967465D02*
X111918302Y-82919846D01*
X111918302Y-82919846D02*
X112013540Y-82872227D01*
X112013540Y-82872227D02*
X112156397Y-82872227D01*
X112156397Y-82872227D02*
X112251635Y-82919846D01*
X112251635Y-82919846D02*
X112299254Y-82967465D01*
X112299254Y-82967465D02*
X112346873Y-83062703D01*
X112346873Y-83062703D02*
X112346873Y-83348417D01*
X112346873Y-83348417D02*
X112299254Y-83443655D01*
X112299254Y-83443655D02*
X112251635Y-83491275D01*
X112251635Y-83491275D02*
X112156397Y-83538894D01*
X112156397Y-83538894D02*
X112013540Y-83538894D01*
X112775445Y-83538894D02*
X112775445Y-82872227D01*
X112775445Y-83062703D02*
X112823064Y-82967465D01*
X112823064Y-82967465D02*
X112870683Y-82919846D01*
X112870683Y-82919846D02*
X112965921Y-82872227D01*
X112965921Y-82872227D02*
X113061159Y-82872227D01*
X113394493Y-83538894D02*
X113394493Y-82538894D01*
X113489731Y-83157941D02*
X113775445Y-83538894D01*
X113775445Y-82872227D02*
X113394493Y-83253179D01*
X107075445Y-80016275D02*
X107218302Y-80063894D01*
X107218302Y-80063894D02*
X107456397Y-80063894D01*
X107456397Y-80063894D02*
X107551635Y-80016275D01*
X107551635Y-80016275D02*
X107599254Y-79968655D01*
X107599254Y-79968655D02*
X107646873Y-79873417D01*
X107646873Y-79873417D02*
X107646873Y-79778179D01*
X107646873Y-79778179D02*
X107599254Y-79682941D01*
X107599254Y-79682941D02*
X107551635Y-79635322D01*
X107551635Y-79635322D02*
X107456397Y-79587703D01*
X107456397Y-79587703D02*
X107265921Y-79540084D01*
X107265921Y-79540084D02*
X107170683Y-79492465D01*
X107170683Y-79492465D02*
X107123064Y-79444846D01*
X107123064Y-79444846D02*
X107075445Y-79349608D01*
X107075445Y-79349608D02*
X107075445Y-79254370D01*
X107075445Y-79254370D02*
X107123064Y-79159132D01*
X107123064Y-79159132D02*
X107170683Y-79111513D01*
X107170683Y-79111513D02*
X107265921Y-79063894D01*
X107265921Y-79063894D02*
X107504016Y-79063894D01*
X107504016Y-79063894D02*
X107646873Y-79111513D01*
X108075445Y-80063894D02*
X108075445Y-79063894D01*
X108646873Y-80063894D02*
X108218302Y-79492465D01*
X108646873Y-79063894D02*
X108075445Y-79635322D01*
X108980207Y-79063894D02*
X109599254Y-79063894D01*
X109599254Y-79063894D02*
X109265921Y-79444846D01*
X109265921Y-79444846D02*
X109408778Y-79444846D01*
X109408778Y-79444846D02*
X109504016Y-79492465D01*
X109504016Y-79492465D02*
X109551635Y-79540084D01*
X109551635Y-79540084D02*
X109599254Y-79635322D01*
X109599254Y-79635322D02*
X109599254Y-79873417D01*
X109599254Y-79873417D02*
X109551635Y-79968655D01*
X109551635Y-79968655D02*
X109504016Y-80016275D01*
X109504016Y-80016275D02*
X109408778Y-80063894D01*
X109408778Y-80063894D02*
X109123064Y-80063894D01*
X109123064Y-80063894D02*
X109027826Y-80016275D01*
X109027826Y-80016275D02*
X108980207Y-79968655D01*
X122688348Y-83538894D02*
X122688348Y-82538894D01*
X122688348Y-82538894D02*
X123259776Y-83538894D01*
X123259776Y-83538894D02*
X123259776Y-82538894D01*
X124116919Y-83491275D02*
X124021681Y-83538894D01*
X124021681Y-83538894D02*
X123831205Y-83538894D01*
X123831205Y-83538894D02*
X123735967Y-83491275D01*
X123735967Y-83491275D02*
X123688348Y-83396036D01*
X123688348Y-83396036D02*
X123688348Y-83015084D01*
X123688348Y-83015084D02*
X123735967Y-82919846D01*
X123735967Y-82919846D02*
X123831205Y-82872227D01*
X123831205Y-82872227D02*
X124021681Y-82872227D01*
X124021681Y-82872227D02*
X124116919Y-82919846D01*
X124116919Y-82919846D02*
X124164538Y-83015084D01*
X124164538Y-83015084D02*
X124164538Y-83110322D01*
X124164538Y-83110322D02*
X123688348Y-83205560D01*
X124450253Y-82872227D02*
X124831205Y-82872227D01*
X124593110Y-82538894D02*
X124593110Y-83396036D01*
X124593110Y-83396036D02*
X124640729Y-83491275D01*
X124640729Y-83491275D02*
X124735967Y-83538894D01*
X124735967Y-83538894D02*
X124831205Y-83538894D01*
X125069301Y-82872227D02*
X125259777Y-83538894D01*
X125259777Y-83538894D02*
X125450253Y-83062703D01*
X125450253Y-83062703D02*
X125640729Y-83538894D01*
X125640729Y-83538894D02*
X125831205Y-82872227D01*
X126355015Y-83538894D02*
X126259777Y-83491275D01*
X126259777Y-83491275D02*
X126212158Y-83443655D01*
X126212158Y-83443655D02*
X126164539Y-83348417D01*
X126164539Y-83348417D02*
X126164539Y-83062703D01*
X126164539Y-83062703D02*
X126212158Y-82967465D01*
X126212158Y-82967465D02*
X126259777Y-82919846D01*
X126259777Y-82919846D02*
X126355015Y-82872227D01*
X126355015Y-82872227D02*
X126497872Y-82872227D01*
X126497872Y-82872227D02*
X126593110Y-82919846D01*
X126593110Y-82919846D02*
X126640729Y-82967465D01*
X126640729Y-82967465D02*
X126688348Y-83062703D01*
X126688348Y-83062703D02*
X126688348Y-83348417D01*
X126688348Y-83348417D02*
X126640729Y-83443655D01*
X126640729Y-83443655D02*
X126593110Y-83491275D01*
X126593110Y-83491275D02*
X126497872Y-83538894D01*
X126497872Y-83538894D02*
X126355015Y-83538894D01*
X127116920Y-83538894D02*
X127116920Y-82872227D01*
X127116920Y-83062703D02*
X127164539Y-82967465D01*
X127164539Y-82967465D02*
X127212158Y-82919846D01*
X127212158Y-82919846D02*
X127307396Y-82872227D01*
X127307396Y-82872227D02*
X127402634Y-82872227D01*
X127735968Y-83538894D02*
X127735968Y-82538894D01*
X127831206Y-83157941D02*
X128116920Y-83538894D01*
X128116920Y-82872227D02*
X127735968Y-83253179D01*
X121416920Y-80016275D02*
X121559777Y-80063894D01*
X121559777Y-80063894D02*
X121797872Y-80063894D01*
X121797872Y-80063894D02*
X121893110Y-80016275D01*
X121893110Y-80016275D02*
X121940729Y-79968655D01*
X121940729Y-79968655D02*
X121988348Y-79873417D01*
X121988348Y-79873417D02*
X121988348Y-79778179D01*
X121988348Y-79778179D02*
X121940729Y-79682941D01*
X121940729Y-79682941D02*
X121893110Y-79635322D01*
X121893110Y-79635322D02*
X121797872Y-79587703D01*
X121797872Y-79587703D02*
X121607396Y-79540084D01*
X121607396Y-79540084D02*
X121512158Y-79492465D01*
X121512158Y-79492465D02*
X121464539Y-79444846D01*
X121464539Y-79444846D02*
X121416920Y-79349608D01*
X121416920Y-79349608D02*
X121416920Y-79254370D01*
X121416920Y-79254370D02*
X121464539Y-79159132D01*
X121464539Y-79159132D02*
X121512158Y-79111513D01*
X121512158Y-79111513D02*
X121607396Y-79063894D01*
X121607396Y-79063894D02*
X121845491Y-79063894D01*
X121845491Y-79063894D02*
X121988348Y-79111513D01*
X122416920Y-80063894D02*
X122416920Y-79063894D01*
X122988348Y-80063894D02*
X122559777Y-79492465D01*
X122988348Y-79063894D02*
X122416920Y-79635322D01*
X123369301Y-79159132D02*
X123416920Y-79111513D01*
X123416920Y-79111513D02*
X123512158Y-79063894D01*
X123512158Y-79063894D02*
X123750253Y-79063894D01*
X123750253Y-79063894D02*
X123845491Y-79111513D01*
X123845491Y-79111513D02*
X123893110Y-79159132D01*
X123893110Y-79159132D02*
X123940729Y-79254370D01*
X123940729Y-79254370D02*
X123940729Y-79349608D01*
X123940729Y-79349608D02*
X123893110Y-79492465D01*
X123893110Y-79492465D02*
X123321682Y-80063894D01*
X123321682Y-80063894D02*
X123940729Y-80063894D01*
X42698194Y-105618753D02*
X41698194Y-105618753D01*
X41698194Y-105618753D02*
X42412479Y-105285420D01*
X42412479Y-105285420D02*
X41698194Y-104952087D01*
X41698194Y-104952087D02*
X42698194Y-104952087D01*
X42698194Y-104475896D02*
X42031527Y-104475896D01*
X41698194Y-104475896D02*
X41745813Y-104523515D01*
X41745813Y-104523515D02*
X41793432Y-104475896D01*
X41793432Y-104475896D02*
X41745813Y-104428277D01*
X41745813Y-104428277D02*
X41698194Y-104475896D01*
X41698194Y-104475896D02*
X41793432Y-104475896D01*
X42650575Y-103571135D02*
X42698194Y-103666373D01*
X42698194Y-103666373D02*
X42698194Y-103856849D01*
X42698194Y-103856849D02*
X42650575Y-103952087D01*
X42650575Y-103952087D02*
X42602955Y-103999706D01*
X42602955Y-103999706D02*
X42507717Y-104047325D01*
X42507717Y-104047325D02*
X42222003Y-104047325D01*
X42222003Y-104047325D02*
X42126765Y-103999706D01*
X42126765Y-103999706D02*
X42079146Y-103952087D01*
X42079146Y-103952087D02*
X42031527Y-103856849D01*
X42031527Y-103856849D02*
X42031527Y-103666373D01*
X42031527Y-103666373D02*
X42079146Y-103571135D01*
X42698194Y-103142563D02*
X42031527Y-103142563D01*
X42222003Y-103142563D02*
X42126765Y-103094944D01*
X42126765Y-103094944D02*
X42079146Y-103047325D01*
X42079146Y-103047325D02*
X42031527Y-102952087D01*
X42031527Y-102952087D02*
X42031527Y-102856849D01*
X42698194Y-102380658D02*
X42650575Y-102475896D01*
X42650575Y-102475896D02*
X42602955Y-102523515D01*
X42602955Y-102523515D02*
X42507717Y-102571134D01*
X42507717Y-102571134D02*
X42222003Y-102571134D01*
X42222003Y-102571134D02*
X42126765Y-102523515D01*
X42126765Y-102523515D02*
X42079146Y-102475896D01*
X42079146Y-102475896D02*
X42031527Y-102380658D01*
X42031527Y-102380658D02*
X42031527Y-102237801D01*
X42031527Y-102237801D02*
X42079146Y-102142563D01*
X42079146Y-102142563D02*
X42126765Y-102094944D01*
X42126765Y-102094944D02*
X42222003Y-102047325D01*
X42222003Y-102047325D02*
X42507717Y-102047325D01*
X42507717Y-102047325D02*
X42602955Y-102094944D01*
X42602955Y-102094944D02*
X42650575Y-102142563D01*
X42650575Y-102142563D02*
X42698194Y-102237801D01*
X42698194Y-102237801D02*
X42698194Y-102380658D01*
X42698194Y-101190182D02*
X41698194Y-101190182D01*
X42650575Y-101190182D02*
X42698194Y-101285420D01*
X42698194Y-101285420D02*
X42698194Y-101475896D01*
X42698194Y-101475896D02*
X42650575Y-101571134D01*
X42650575Y-101571134D02*
X42602955Y-101618753D01*
X42602955Y-101618753D02*
X42507717Y-101666372D01*
X42507717Y-101666372D02*
X42222003Y-101666372D01*
X42222003Y-101666372D02*
X42126765Y-101618753D01*
X42126765Y-101618753D02*
X42079146Y-101571134D01*
X42079146Y-101571134D02*
X42031527Y-101475896D01*
X42031527Y-101475896D02*
X42031527Y-101285420D01*
X42031527Y-101285420D02*
X42079146Y-101190182D01*
X42698194Y-100713991D02*
X42031527Y-100713991D01*
X42222003Y-100713991D02*
X42126765Y-100666372D01*
X42126765Y-100666372D02*
X42079146Y-100618753D01*
X42079146Y-100618753D02*
X42031527Y-100523515D01*
X42031527Y-100523515D02*
X42031527Y-100428277D01*
X42698194Y-100094943D02*
X42031527Y-100094943D01*
X41698194Y-100094943D02*
X41745813Y-100142562D01*
X41745813Y-100142562D02*
X41793432Y-100094943D01*
X41793432Y-100094943D02*
X41745813Y-100047324D01*
X41745813Y-100047324D02*
X41698194Y-100094943D01*
X41698194Y-100094943D02*
X41793432Y-100094943D01*
X42031527Y-99713991D02*
X42698194Y-99475896D01*
X42698194Y-99475896D02*
X42031527Y-99237801D01*
X42650575Y-98475896D02*
X42698194Y-98571134D01*
X42698194Y-98571134D02*
X42698194Y-98761610D01*
X42698194Y-98761610D02*
X42650575Y-98856848D01*
X42650575Y-98856848D02*
X42555336Y-98904467D01*
X42555336Y-98904467D02*
X42174384Y-98904467D01*
X42174384Y-98904467D02*
X42079146Y-98856848D01*
X42079146Y-98856848D02*
X42031527Y-98761610D01*
X42031527Y-98761610D02*
X42031527Y-98571134D01*
X42031527Y-98571134D02*
X42079146Y-98475896D01*
X42079146Y-98475896D02*
X42174384Y-98428277D01*
X42174384Y-98428277D02*
X42269622Y-98428277D01*
X42269622Y-98428277D02*
X42364860Y-98904467D01*
X237924334Y-102170792D02*
X237971953Y-102027935D01*
X237971953Y-102027935D02*
X238019572Y-101980316D01*
X238019572Y-101980316D02*
X238114810Y-101932697D01*
X238114810Y-101932697D02*
X238257667Y-101932697D01*
X238257667Y-101932697D02*
X238352905Y-101980316D01*
X238352905Y-101980316D02*
X238400525Y-102027935D01*
X238400525Y-102027935D02*
X238448144Y-102123173D01*
X238448144Y-102123173D02*
X238448144Y-102504125D01*
X238448144Y-102504125D02*
X237448144Y-102504125D01*
X237448144Y-102504125D02*
X237448144Y-102170792D01*
X237448144Y-102170792D02*
X237495763Y-102075554D01*
X237495763Y-102075554D02*
X237543382Y-102027935D01*
X237543382Y-102027935D02*
X237638620Y-101980316D01*
X237638620Y-101980316D02*
X237733858Y-101980316D01*
X237733858Y-101980316D02*
X237829096Y-102027935D01*
X237829096Y-102027935D02*
X237876715Y-102075554D01*
X237876715Y-102075554D02*
X237924334Y-102170792D01*
X237924334Y-102170792D02*
X237924334Y-102504125D01*
X238352905Y-100932697D02*
X238400525Y-100980316D01*
X238400525Y-100980316D02*
X238448144Y-101123173D01*
X238448144Y-101123173D02*
X238448144Y-101218411D01*
X238448144Y-101218411D02*
X238400525Y-101361268D01*
X238400525Y-101361268D02*
X238305286Y-101456506D01*
X238305286Y-101456506D02*
X238210048Y-101504125D01*
X238210048Y-101504125D02*
X238019572Y-101551744D01*
X238019572Y-101551744D02*
X237876715Y-101551744D01*
X237876715Y-101551744D02*
X237686239Y-101504125D01*
X237686239Y-101504125D02*
X237591001Y-101456506D01*
X237591001Y-101456506D02*
X237495763Y-101361268D01*
X237495763Y-101361268D02*
X237448144Y-101218411D01*
X237448144Y-101218411D02*
X237448144Y-101123173D01*
X237448144Y-101123173D02*
X237495763Y-100980316D01*
X237495763Y-100980316D02*
X237543382Y-100932697D01*
X238448144Y-99980316D02*
X238448144Y-100551744D01*
X238448144Y-100266030D02*
X237448144Y-100266030D01*
X237448144Y-100266030D02*
X237591001Y-100361268D01*
X237591001Y-100361268D02*
X237686239Y-100456506D01*
X237686239Y-100456506D02*
X237733858Y-100551744D01*
X237876715Y-99408887D02*
X237829096Y-99504125D01*
X237829096Y-99504125D02*
X237781477Y-99551744D01*
X237781477Y-99551744D02*
X237686239Y-99599363D01*
X237686239Y-99599363D02*
X237638620Y-99599363D01*
X237638620Y-99599363D02*
X237543382Y-99551744D01*
X237543382Y-99551744D02*
X237495763Y-99504125D01*
X237495763Y-99504125D02*
X237448144Y-99408887D01*
X237448144Y-99408887D02*
X237448144Y-99218411D01*
X237448144Y-99218411D02*
X237495763Y-99123173D01*
X237495763Y-99123173D02*
X237543382Y-99075554D01*
X237543382Y-99075554D02*
X237638620Y-99027935D01*
X237638620Y-99027935D02*
X237686239Y-99027935D01*
X237686239Y-99027935D02*
X237781477Y-99075554D01*
X237781477Y-99075554D02*
X237829096Y-99123173D01*
X237829096Y-99123173D02*
X237876715Y-99218411D01*
X237876715Y-99218411D02*
X237876715Y-99408887D01*
X237876715Y-99408887D02*
X237924334Y-99504125D01*
X237924334Y-99504125D02*
X237971953Y-99551744D01*
X237971953Y-99551744D02*
X238067191Y-99599363D01*
X238067191Y-99599363D02*
X238257667Y-99599363D01*
X238257667Y-99599363D02*
X238352905Y-99551744D01*
X238352905Y-99551744D02*
X238400525Y-99504125D01*
X238400525Y-99504125D02*
X238448144Y-99408887D01*
X238448144Y-99408887D02*
X238448144Y-99218411D01*
X238448144Y-99218411D02*
X238400525Y-99123173D01*
X238400525Y-99123173D02*
X238352905Y-99075554D01*
X238352905Y-99075554D02*
X238257667Y-99027935D01*
X238257667Y-99027935D02*
X238067191Y-99027935D01*
X238067191Y-99027935D02*
X237971953Y-99075554D01*
X237971953Y-99075554D02*
X237924334Y-99123173D01*
X237924334Y-99123173D02*
X237876715Y-99218411D01*
X237448144Y-98694601D02*
X237448144Y-98075554D01*
X237448144Y-98075554D02*
X237829096Y-98408887D01*
X237829096Y-98408887D02*
X237829096Y-98266030D01*
X237829096Y-98266030D02*
X237876715Y-98170792D01*
X237876715Y-98170792D02*
X237924334Y-98123173D01*
X237924334Y-98123173D02*
X238019572Y-98075554D01*
X238019572Y-98075554D02*
X238257667Y-98075554D01*
X238257667Y-98075554D02*
X238352905Y-98123173D01*
X238352905Y-98123173D02*
X238400525Y-98170792D01*
X238400525Y-98170792D02*
X238448144Y-98266030D01*
X238448144Y-98266030D02*
X238448144Y-98551744D01*
X238448144Y-98551744D02*
X238400525Y-98646982D01*
X238400525Y-98646982D02*
X238352905Y-98694601D01*
X241333382Y-100885078D02*
X241285763Y-100980316D01*
X241285763Y-100980316D02*
X241190525Y-101075554D01*
X241190525Y-101075554D02*
X241047667Y-101218411D01*
X241047667Y-101218411D02*
X241000048Y-101313649D01*
X241000048Y-101313649D02*
X241000048Y-101408887D01*
X241238144Y-101361268D02*
X241190525Y-101456506D01*
X241190525Y-101456506D02*
X241095286Y-101551744D01*
X241095286Y-101551744D02*
X240904810Y-101599363D01*
X240904810Y-101599363D02*
X240571477Y-101599363D01*
X240571477Y-101599363D02*
X240381001Y-101551744D01*
X240381001Y-101551744D02*
X240285763Y-101456506D01*
X240285763Y-101456506D02*
X240238144Y-101361268D01*
X240238144Y-101361268D02*
X240238144Y-101170792D01*
X240238144Y-101170792D02*
X240285763Y-101075554D01*
X240285763Y-101075554D02*
X240381001Y-100980316D01*
X240381001Y-100980316D02*
X240571477Y-100932697D01*
X240571477Y-100932697D02*
X240904810Y-100932697D01*
X240904810Y-100932697D02*
X241095286Y-100980316D01*
X241095286Y-100980316D02*
X241190525Y-101075554D01*
X241190525Y-101075554D02*
X241238144Y-101170792D01*
X241238144Y-101170792D02*
X241238144Y-101361268D01*
X241238144Y-99980316D02*
X241238144Y-100551744D01*
X241238144Y-100266030D02*
X240238144Y-100266030D01*
X240238144Y-100266030D02*
X240381001Y-100361268D01*
X240381001Y-100361268D02*
X240476239Y-100456506D01*
X240476239Y-100456506D02*
X240523858Y-100551744D01*
X241238144Y-99027935D02*
X241238144Y-99599363D01*
X241238144Y-99313649D02*
X240238144Y-99313649D01*
X240238144Y-99313649D02*
X240381001Y-99408887D01*
X240381001Y-99408887D02*
X240476239Y-99504125D01*
X240476239Y-99504125D02*
X240523858Y-99599363D01*
X236442284Y-98916892D02*
X236489903Y-98774035D01*
X236489903Y-98774035D02*
X236537522Y-98726416D01*
X236537522Y-98726416D02*
X236632760Y-98678797D01*
X236632760Y-98678797D02*
X236775617Y-98678797D01*
X236775617Y-98678797D02*
X236870855Y-98726416D01*
X236870855Y-98726416D02*
X236918475Y-98774035D01*
X236918475Y-98774035D02*
X236966094Y-98869273D01*
X236966094Y-98869273D02*
X236966094Y-99250225D01*
X236966094Y-99250225D02*
X235966094Y-99250225D01*
X235966094Y-99250225D02*
X235966094Y-98916892D01*
X235966094Y-98916892D02*
X236013713Y-98821654D01*
X236013713Y-98821654D02*
X236061332Y-98774035D01*
X236061332Y-98774035D02*
X236156570Y-98726416D01*
X236156570Y-98726416D02*
X236251808Y-98726416D01*
X236251808Y-98726416D02*
X236347046Y-98774035D01*
X236347046Y-98774035D02*
X236394665Y-98821654D01*
X236394665Y-98821654D02*
X236442284Y-98916892D01*
X236442284Y-98916892D02*
X236442284Y-99250225D01*
X236870855Y-97678797D02*
X236918475Y-97726416D01*
X236918475Y-97726416D02*
X236966094Y-97869273D01*
X236966094Y-97869273D02*
X236966094Y-97964511D01*
X236966094Y-97964511D02*
X236918475Y-98107368D01*
X236918475Y-98107368D02*
X236823236Y-98202606D01*
X236823236Y-98202606D02*
X236727998Y-98250225D01*
X236727998Y-98250225D02*
X236537522Y-98297844D01*
X236537522Y-98297844D02*
X236394665Y-98297844D01*
X236394665Y-98297844D02*
X236204189Y-98250225D01*
X236204189Y-98250225D02*
X236108951Y-98202606D01*
X236108951Y-98202606D02*
X236013713Y-98107368D01*
X236013713Y-98107368D02*
X235966094Y-97964511D01*
X235966094Y-97964511D02*
X235966094Y-97869273D01*
X235966094Y-97869273D02*
X236013713Y-97726416D01*
X236013713Y-97726416D02*
X236061332Y-97678797D01*
X236966094Y-96726416D02*
X236966094Y-97297844D01*
X236966094Y-97012130D02*
X235966094Y-97012130D01*
X235966094Y-97012130D02*
X236108951Y-97107368D01*
X236108951Y-97107368D02*
X236204189Y-97202606D01*
X236204189Y-97202606D02*
X236251808Y-97297844D01*
X236394665Y-96154987D02*
X236347046Y-96250225D01*
X236347046Y-96250225D02*
X236299427Y-96297844D01*
X236299427Y-96297844D02*
X236204189Y-96345463D01*
X236204189Y-96345463D02*
X236156570Y-96345463D01*
X236156570Y-96345463D02*
X236061332Y-96297844D01*
X236061332Y-96297844D02*
X236013713Y-96250225D01*
X236013713Y-96250225D02*
X235966094Y-96154987D01*
X235966094Y-96154987D02*
X235966094Y-95964511D01*
X235966094Y-95964511D02*
X236013713Y-95869273D01*
X236013713Y-95869273D02*
X236061332Y-95821654D01*
X236061332Y-95821654D02*
X236156570Y-95774035D01*
X236156570Y-95774035D02*
X236204189Y-95774035D01*
X236204189Y-95774035D02*
X236299427Y-95821654D01*
X236299427Y-95821654D02*
X236347046Y-95869273D01*
X236347046Y-95869273D02*
X236394665Y-95964511D01*
X236394665Y-95964511D02*
X236394665Y-96154987D01*
X236394665Y-96154987D02*
X236442284Y-96250225D01*
X236442284Y-96250225D02*
X236489903Y-96297844D01*
X236489903Y-96297844D02*
X236585141Y-96345463D01*
X236585141Y-96345463D02*
X236775617Y-96345463D01*
X236775617Y-96345463D02*
X236870855Y-96297844D01*
X236870855Y-96297844D02*
X236918475Y-96250225D01*
X236918475Y-96250225D02*
X236966094Y-96154987D01*
X236966094Y-96154987D02*
X236966094Y-95964511D01*
X236966094Y-95964511D02*
X236918475Y-95869273D01*
X236918475Y-95869273D02*
X236870855Y-95821654D01*
X236870855Y-95821654D02*
X236775617Y-95774035D01*
X236775617Y-95774035D02*
X236585141Y-95774035D01*
X236585141Y-95774035D02*
X236489903Y-95821654D01*
X236489903Y-95821654D02*
X236442284Y-95869273D01*
X236442284Y-95869273D02*
X236394665Y-95964511D01*
X235966094Y-95440701D02*
X235966094Y-94821654D01*
X235966094Y-94821654D02*
X236347046Y-95154987D01*
X236347046Y-95154987D02*
X236347046Y-95012130D01*
X236347046Y-95012130D02*
X236394665Y-94916892D01*
X236394665Y-94916892D02*
X236442284Y-94869273D01*
X236442284Y-94869273D02*
X236537522Y-94821654D01*
X236537522Y-94821654D02*
X236775617Y-94821654D01*
X236775617Y-94821654D02*
X236870855Y-94869273D01*
X236870855Y-94869273D02*
X236918475Y-94916892D01*
X236918475Y-94916892D02*
X236966094Y-95012130D01*
X236966094Y-95012130D02*
X236966094Y-95297844D01*
X236966094Y-95297844D02*
X236918475Y-95393082D01*
X236918475Y-95393082D02*
X236870855Y-95440701D01*
X234271332Y-97631178D02*
X234223713Y-97726416D01*
X234223713Y-97726416D02*
X234128475Y-97821654D01*
X234128475Y-97821654D02*
X233985617Y-97964511D01*
X233985617Y-97964511D02*
X233937998Y-98059749D01*
X233937998Y-98059749D02*
X233937998Y-98154987D01*
X234176094Y-98107368D02*
X234128475Y-98202606D01*
X234128475Y-98202606D02*
X234033236Y-98297844D01*
X234033236Y-98297844D02*
X233842760Y-98345463D01*
X233842760Y-98345463D02*
X233509427Y-98345463D01*
X233509427Y-98345463D02*
X233318951Y-98297844D01*
X233318951Y-98297844D02*
X233223713Y-98202606D01*
X233223713Y-98202606D02*
X233176094Y-98107368D01*
X233176094Y-98107368D02*
X233176094Y-97916892D01*
X233176094Y-97916892D02*
X233223713Y-97821654D01*
X233223713Y-97821654D02*
X233318951Y-97726416D01*
X233318951Y-97726416D02*
X233509427Y-97678797D01*
X233509427Y-97678797D02*
X233842760Y-97678797D01*
X233842760Y-97678797D02*
X234033236Y-97726416D01*
X234033236Y-97726416D02*
X234128475Y-97821654D01*
X234128475Y-97821654D02*
X234176094Y-97916892D01*
X234176094Y-97916892D02*
X234176094Y-98107368D01*
X234176094Y-96726416D02*
X234176094Y-97297844D01*
X234176094Y-97012130D02*
X233176094Y-97012130D01*
X233176094Y-97012130D02*
X233318951Y-97107368D01*
X233318951Y-97107368D02*
X233414189Y-97202606D01*
X233414189Y-97202606D02*
X233461808Y-97297844D01*
X233176094Y-96107368D02*
X233176094Y-96012130D01*
X233176094Y-96012130D02*
X233223713Y-95916892D01*
X233223713Y-95916892D02*
X233271332Y-95869273D01*
X233271332Y-95869273D02*
X233366570Y-95821654D01*
X233366570Y-95821654D02*
X233557046Y-95774035D01*
X233557046Y-95774035D02*
X233795141Y-95774035D01*
X233795141Y-95774035D02*
X233985617Y-95821654D01*
X233985617Y-95821654D02*
X234080855Y-95869273D01*
X234080855Y-95869273D02*
X234128475Y-95916892D01*
X234128475Y-95916892D02*
X234176094Y-96012130D01*
X234176094Y-96012130D02*
X234176094Y-96107368D01*
X234176094Y-96107368D02*
X234128475Y-96202606D01*
X234128475Y-96202606D02*
X234080855Y-96250225D01*
X234080855Y-96250225D02*
X233985617Y-96297844D01*
X233985617Y-96297844D02*
X233795141Y-96345463D01*
X233795141Y-96345463D02*
X233557046Y-96345463D01*
X233557046Y-96345463D02*
X233366570Y-96297844D01*
X233366570Y-96297844D02*
X233271332Y-96250225D01*
X233271332Y-96250225D02*
X233223713Y-96202606D01*
X233223713Y-96202606D02*
X233176094Y-96107368D01*
X72228532Y-98346685D02*
X72180913Y-98299066D01*
X72180913Y-98299066D02*
X72133294Y-98203828D01*
X72133294Y-98203828D02*
X72133294Y-97965733D01*
X72133294Y-97965733D02*
X72180913Y-97870495D01*
X72180913Y-97870495D02*
X72228532Y-97822876D01*
X72228532Y-97822876D02*
X72323770Y-97775257D01*
X72323770Y-97775257D02*
X72419008Y-97775257D01*
X72419008Y-97775257D02*
X72561865Y-97822876D01*
X72561865Y-97822876D02*
X73133294Y-98394304D01*
X73133294Y-98394304D02*
X73133294Y-97775257D01*
X72228532Y-97394304D02*
X72180913Y-97346685D01*
X72180913Y-97346685D02*
X72133294Y-97251447D01*
X72133294Y-97251447D02*
X72133294Y-97013352D01*
X72133294Y-97013352D02*
X72180913Y-96918114D01*
X72180913Y-96918114D02*
X72228532Y-96870495D01*
X72228532Y-96870495D02*
X72323770Y-96822876D01*
X72323770Y-96822876D02*
X72419008Y-96822876D01*
X72419008Y-96822876D02*
X72561865Y-96870495D01*
X72561865Y-96870495D02*
X73133294Y-97441923D01*
X73133294Y-97441923D02*
X73133294Y-96822876D01*
X72466627Y-95965733D02*
X73133294Y-95965733D01*
X72466627Y-96394304D02*
X72990436Y-96394304D01*
X72990436Y-96394304D02*
X73085675Y-96346685D01*
X73085675Y-96346685D02*
X73133294Y-96251447D01*
X73133294Y-96251447D02*
X73133294Y-96108590D01*
X73133294Y-96108590D02*
X73085675Y-96013352D01*
X73085675Y-96013352D02*
X73038055Y-95965733D01*
X73133294Y-95489542D02*
X72133294Y-95489542D01*
X72609484Y-95489542D02*
X72609484Y-94918114D01*
X73133294Y-94918114D02*
X72133294Y-94918114D01*
X72133294Y-93489542D02*
X72133294Y-93394304D01*
X72133294Y-93394304D02*
X72180913Y-93299066D01*
X72180913Y-93299066D02*
X72228532Y-93251447D01*
X72228532Y-93251447D02*
X72323770Y-93203828D01*
X72323770Y-93203828D02*
X72514246Y-93156209D01*
X72514246Y-93156209D02*
X72752341Y-93156209D01*
X72752341Y-93156209D02*
X72942817Y-93203828D01*
X72942817Y-93203828D02*
X73038055Y-93251447D01*
X73038055Y-93251447D02*
X73085675Y-93299066D01*
X73085675Y-93299066D02*
X73133294Y-93394304D01*
X73133294Y-93394304D02*
X73133294Y-93489542D01*
X73133294Y-93489542D02*
X73085675Y-93584780D01*
X73085675Y-93584780D02*
X73038055Y-93632399D01*
X73038055Y-93632399D02*
X72942817Y-93680018D01*
X72942817Y-93680018D02*
X72752341Y-93727637D01*
X72752341Y-93727637D02*
X72514246Y-93727637D01*
X72514246Y-93727637D02*
X72323770Y-93680018D01*
X72323770Y-93680018D02*
X72228532Y-93632399D01*
X72228532Y-93632399D02*
X72180913Y-93584780D01*
X72180913Y-93584780D02*
X72133294Y-93489542D01*
X73038055Y-92727637D02*
X73085675Y-92680018D01*
X73085675Y-92680018D02*
X73133294Y-92727637D01*
X73133294Y-92727637D02*
X73085675Y-92775256D01*
X73085675Y-92775256D02*
X73038055Y-92727637D01*
X73038055Y-92727637D02*
X73133294Y-92727637D01*
X72466627Y-91822876D02*
X73133294Y-91822876D01*
X72085675Y-92060971D02*
X72799960Y-92299066D01*
X72799960Y-92299066D02*
X72799960Y-91680019D01*
X73133294Y-90775257D02*
X73133294Y-91346685D01*
X73133294Y-91060971D02*
X72133294Y-91060971D01*
X72133294Y-91060971D02*
X72276151Y-91156209D01*
X72276151Y-91156209D02*
X72371389Y-91251447D01*
X72371389Y-91251447D02*
X72419008Y-91346685D01*
X72847579Y-90394304D02*
X72847579Y-89918114D01*
X73133294Y-90489542D02*
X72133294Y-90156209D01*
X72133294Y-90156209D02*
X73133294Y-89822876D01*
X77153294Y-94299066D02*
X77153294Y-94775256D01*
X77153294Y-94775256D02*
X76153294Y-94775256D01*
X77153294Y-93441923D02*
X77153294Y-94013351D01*
X77153294Y-93727637D02*
X76153294Y-93727637D01*
X76153294Y-93727637D02*
X76296151Y-93822875D01*
X76296151Y-93822875D02*
X76391389Y-93918113D01*
X76391389Y-93918113D02*
X76439008Y-94013351D01*
X64284557Y-55340894D02*
X64284557Y-54340894D01*
X64284557Y-54340894D02*
X64522652Y-54340894D01*
X64522652Y-54340894D02*
X64665509Y-54388513D01*
X64665509Y-54388513D02*
X64760747Y-54483751D01*
X64760747Y-54483751D02*
X64808366Y-54578989D01*
X64808366Y-54578989D02*
X64855985Y-54769465D01*
X64855985Y-54769465D02*
X64855985Y-54912322D01*
X64855985Y-54912322D02*
X64808366Y-55102798D01*
X64808366Y-55102798D02*
X64760747Y-55198036D01*
X64760747Y-55198036D02*
X64665509Y-55293275D01*
X64665509Y-55293275D02*
X64522652Y-55340894D01*
X64522652Y-55340894D02*
X64284557Y-55340894D01*
X65284557Y-54817084D02*
X65617890Y-54817084D01*
X65760747Y-55340894D02*
X65284557Y-55340894D01*
X65284557Y-55340894D02*
X65284557Y-54340894D01*
X65284557Y-54340894D02*
X65760747Y-54340894D01*
X66236938Y-55340894D02*
X66427414Y-55340894D01*
X66427414Y-55340894D02*
X66522652Y-55293275D01*
X66522652Y-55293275D02*
X66570271Y-55245655D01*
X66570271Y-55245655D02*
X66665509Y-55102798D01*
X66665509Y-55102798D02*
X66713128Y-54912322D01*
X66713128Y-54912322D02*
X66713128Y-54531370D01*
X66713128Y-54531370D02*
X66665509Y-54436132D01*
X66665509Y-54436132D02*
X66617890Y-54388513D01*
X66617890Y-54388513D02*
X66522652Y-54340894D01*
X66522652Y-54340894D02*
X66332176Y-54340894D01*
X66332176Y-54340894D02*
X66236938Y-54388513D01*
X66236938Y-54388513D02*
X66189319Y-54436132D01*
X66189319Y-54436132D02*
X66141700Y-54531370D01*
X66141700Y-54531370D02*
X66141700Y-54769465D01*
X66141700Y-54769465D02*
X66189319Y-54864703D01*
X66189319Y-54864703D02*
X66236938Y-54912322D01*
X66236938Y-54912322D02*
X66332176Y-54959941D01*
X66332176Y-54959941D02*
X66522652Y-54959941D01*
X66522652Y-54959941D02*
X66617890Y-54912322D01*
X66617890Y-54912322D02*
X66665509Y-54864703D01*
X66665509Y-54864703D02*
X66713128Y-54769465D01*
X66903605Y-55436132D02*
X67665509Y-55436132D01*
X68475033Y-55340894D02*
X68141700Y-54864703D01*
X67903605Y-55340894D02*
X67903605Y-54340894D01*
X67903605Y-54340894D02*
X68284557Y-54340894D01*
X68284557Y-54340894D02*
X68379795Y-54388513D01*
X68379795Y-54388513D02*
X68427414Y-54436132D01*
X68427414Y-54436132D02*
X68475033Y-54531370D01*
X68475033Y-54531370D02*
X68475033Y-54674227D01*
X68475033Y-54674227D02*
X68427414Y-54769465D01*
X68427414Y-54769465D02*
X68379795Y-54817084D01*
X68379795Y-54817084D02*
X68284557Y-54864703D01*
X68284557Y-54864703D02*
X67903605Y-54864703D01*
X69284557Y-55293275D02*
X69189319Y-55340894D01*
X69189319Y-55340894D02*
X68998843Y-55340894D01*
X68998843Y-55340894D02*
X68903605Y-55293275D01*
X68903605Y-55293275D02*
X68855986Y-55198036D01*
X68855986Y-55198036D02*
X68855986Y-54817084D01*
X68855986Y-54817084D02*
X68903605Y-54721846D01*
X68903605Y-54721846D02*
X68998843Y-54674227D01*
X68998843Y-54674227D02*
X69189319Y-54674227D01*
X69189319Y-54674227D02*
X69284557Y-54721846D01*
X69284557Y-54721846D02*
X69332176Y-54817084D01*
X69332176Y-54817084D02*
X69332176Y-54912322D01*
X69332176Y-54912322D02*
X68855986Y-55007560D01*
X70189319Y-55293275D02*
X70094081Y-55340894D01*
X70094081Y-55340894D02*
X69903605Y-55340894D01*
X69903605Y-55340894D02*
X69808367Y-55293275D01*
X69808367Y-55293275D02*
X69760748Y-55245655D01*
X69760748Y-55245655D02*
X69713129Y-55150417D01*
X69713129Y-55150417D02*
X69713129Y-54864703D01*
X69713129Y-54864703D02*
X69760748Y-54769465D01*
X69760748Y-54769465D02*
X69808367Y-54721846D01*
X69808367Y-54721846D02*
X69903605Y-54674227D01*
X69903605Y-54674227D02*
X70094081Y-54674227D01*
X70094081Y-54674227D02*
X70189319Y-54721846D01*
X70998843Y-55293275D02*
X70903605Y-55340894D01*
X70903605Y-55340894D02*
X70713129Y-55340894D01*
X70713129Y-55340894D02*
X70617891Y-55293275D01*
X70617891Y-55293275D02*
X70570272Y-55198036D01*
X70570272Y-55198036D02*
X70570272Y-54817084D01*
X70570272Y-54817084D02*
X70617891Y-54721846D01*
X70617891Y-54721846D02*
X70713129Y-54674227D01*
X70713129Y-54674227D02*
X70903605Y-54674227D01*
X70903605Y-54674227D02*
X70998843Y-54721846D01*
X70998843Y-54721846D02*
X71046462Y-54817084D01*
X71046462Y-54817084D02*
X71046462Y-54912322D01*
X71046462Y-54912322D02*
X70570272Y-55007560D01*
X71475034Y-54674227D02*
X71475034Y-55674227D01*
X71475034Y-54721846D02*
X71570272Y-54674227D01*
X71570272Y-54674227D02*
X71760748Y-54674227D01*
X71760748Y-54674227D02*
X71855986Y-54721846D01*
X71855986Y-54721846D02*
X71903605Y-54769465D01*
X71903605Y-54769465D02*
X71951224Y-54864703D01*
X71951224Y-54864703D02*
X71951224Y-55150417D01*
X71951224Y-55150417D02*
X71903605Y-55245655D01*
X71903605Y-55245655D02*
X71855986Y-55293275D01*
X71855986Y-55293275D02*
X71760748Y-55340894D01*
X71760748Y-55340894D02*
X71570272Y-55340894D01*
X71570272Y-55340894D02*
X71475034Y-55293275D01*
X72236939Y-54674227D02*
X72617891Y-54674227D01*
X72379796Y-54340894D02*
X72379796Y-55198036D01*
X72379796Y-55198036D02*
X72427415Y-55293275D01*
X72427415Y-55293275D02*
X72522653Y-55340894D01*
X72522653Y-55340894D02*
X72617891Y-55340894D01*
X73379796Y-55340894D02*
X73379796Y-54817084D01*
X73379796Y-54817084D02*
X73332177Y-54721846D01*
X73332177Y-54721846D02*
X73236939Y-54674227D01*
X73236939Y-54674227D02*
X73046463Y-54674227D01*
X73046463Y-54674227D02*
X72951225Y-54721846D01*
X73379796Y-55293275D02*
X73284558Y-55340894D01*
X73284558Y-55340894D02*
X73046463Y-55340894D01*
X73046463Y-55340894D02*
X72951225Y-55293275D01*
X72951225Y-55293275D02*
X72903606Y-55198036D01*
X72903606Y-55198036D02*
X72903606Y-55102798D01*
X72903606Y-55102798D02*
X72951225Y-55007560D01*
X72951225Y-55007560D02*
X73046463Y-54959941D01*
X73046463Y-54959941D02*
X73284558Y-54959941D01*
X73284558Y-54959941D02*
X73379796Y-54912322D01*
X74284558Y-55293275D02*
X74189320Y-55340894D01*
X74189320Y-55340894D02*
X73998844Y-55340894D01*
X73998844Y-55340894D02*
X73903606Y-55293275D01*
X73903606Y-55293275D02*
X73855987Y-55245655D01*
X73855987Y-55245655D02*
X73808368Y-55150417D01*
X73808368Y-55150417D02*
X73808368Y-54864703D01*
X73808368Y-54864703D02*
X73855987Y-54769465D01*
X73855987Y-54769465D02*
X73903606Y-54721846D01*
X73903606Y-54721846D02*
X73998844Y-54674227D01*
X73998844Y-54674227D02*
X74189320Y-54674227D01*
X74189320Y-54674227D02*
X74284558Y-54721846D01*
X74855987Y-55340894D02*
X74760749Y-55293275D01*
X74760749Y-55293275D02*
X74713130Y-55198036D01*
X74713130Y-55198036D02*
X74713130Y-54340894D01*
X75617892Y-55293275D02*
X75522654Y-55340894D01*
X75522654Y-55340894D02*
X75332178Y-55340894D01*
X75332178Y-55340894D02*
X75236940Y-55293275D01*
X75236940Y-55293275D02*
X75189321Y-55198036D01*
X75189321Y-55198036D02*
X75189321Y-54817084D01*
X75189321Y-54817084D02*
X75236940Y-54721846D01*
X75236940Y-54721846D02*
X75332178Y-54674227D01*
X75332178Y-54674227D02*
X75522654Y-54674227D01*
X75522654Y-54674227D02*
X75617892Y-54721846D01*
X75617892Y-54721846D02*
X75665511Y-54817084D01*
X75665511Y-54817084D02*
X75665511Y-54912322D01*
X75665511Y-54912322D02*
X75189321Y-55007560D01*
X68689320Y-59878275D02*
X68832177Y-59925894D01*
X68832177Y-59925894D02*
X69070272Y-59925894D01*
X69070272Y-59925894D02*
X69165510Y-59878275D01*
X69165510Y-59878275D02*
X69213129Y-59830655D01*
X69213129Y-59830655D02*
X69260748Y-59735417D01*
X69260748Y-59735417D02*
X69260748Y-59640179D01*
X69260748Y-59640179D02*
X69213129Y-59544941D01*
X69213129Y-59544941D02*
X69165510Y-59497322D01*
X69165510Y-59497322D02*
X69070272Y-59449703D01*
X69070272Y-59449703D02*
X68879796Y-59402084D01*
X68879796Y-59402084D02*
X68784558Y-59354465D01*
X68784558Y-59354465D02*
X68736939Y-59306846D01*
X68736939Y-59306846D02*
X68689320Y-59211608D01*
X68689320Y-59211608D02*
X68689320Y-59116370D01*
X68689320Y-59116370D02*
X68736939Y-59021132D01*
X68736939Y-59021132D02*
X68784558Y-58973513D01*
X68784558Y-58973513D02*
X68879796Y-58925894D01*
X68879796Y-58925894D02*
X69117891Y-58925894D01*
X69117891Y-58925894D02*
X69260748Y-58973513D01*
X69689320Y-59925894D02*
X69689320Y-58925894D01*
X70260748Y-59925894D02*
X69832177Y-59354465D01*
X70260748Y-58925894D02*
X69689320Y-59497322D01*
X71213129Y-59925894D02*
X70641701Y-59925894D01*
X70927415Y-59925894D02*
X70927415Y-58925894D01*
X70927415Y-58925894D02*
X70832177Y-59068751D01*
X70832177Y-59068751D02*
X70736939Y-59163989D01*
X70736939Y-59163989D02*
X70641701Y-59211608D01*
X246333540Y-89439790D02*
X246238302Y-89392171D01*
X246238302Y-89392171D02*
X246190683Y-89344552D01*
X246190683Y-89344552D02*
X246143064Y-89249314D01*
X246143064Y-89249314D02*
X246143064Y-89201695D01*
X246143064Y-89201695D02*
X246190683Y-89106457D01*
X246190683Y-89106457D02*
X246238302Y-89058838D01*
X246238302Y-89058838D02*
X246333540Y-89011219D01*
X246333540Y-89011219D02*
X246524016Y-89011219D01*
X246524016Y-89011219D02*
X246619254Y-89058838D01*
X246619254Y-89058838D02*
X246666873Y-89106457D01*
X246666873Y-89106457D02*
X246714492Y-89201695D01*
X246714492Y-89201695D02*
X246714492Y-89249314D01*
X246714492Y-89249314D02*
X246666873Y-89344552D01*
X246666873Y-89344552D02*
X246619254Y-89392171D01*
X246619254Y-89392171D02*
X246524016Y-89439790D01*
X246524016Y-89439790D02*
X246333540Y-89439790D01*
X246333540Y-89439790D02*
X246238302Y-89487409D01*
X246238302Y-89487409D02*
X246190683Y-89535028D01*
X246190683Y-89535028D02*
X246143064Y-89630266D01*
X246143064Y-89630266D02*
X246143064Y-89820742D01*
X246143064Y-89820742D02*
X246190683Y-89915980D01*
X246190683Y-89915980D02*
X246238302Y-89963600D01*
X246238302Y-89963600D02*
X246333540Y-90011219D01*
X246333540Y-90011219D02*
X246524016Y-90011219D01*
X246524016Y-90011219D02*
X246619254Y-89963600D01*
X246619254Y-89963600D02*
X246666873Y-89915980D01*
X246666873Y-89915980D02*
X246714492Y-89820742D01*
X246714492Y-89820742D02*
X246714492Y-89630266D01*
X246714492Y-89630266D02*
X246666873Y-89535028D01*
X246666873Y-89535028D02*
X246619254Y-89487409D01*
X246619254Y-89487409D02*
X246524016Y-89439790D01*
X247143064Y-90011219D02*
X247143064Y-89011219D01*
X247143064Y-89011219D02*
X247476397Y-89725504D01*
X247476397Y-89725504D02*
X247809730Y-89011219D01*
X247809730Y-89011219D02*
X247809730Y-90011219D01*
X248285921Y-90011219D02*
X248285921Y-89011219D01*
X248714492Y-90011219D02*
X248714492Y-89487409D01*
X248714492Y-89487409D02*
X248666873Y-89392171D01*
X248666873Y-89392171D02*
X248571635Y-89344552D01*
X248571635Y-89344552D02*
X248428778Y-89344552D01*
X248428778Y-89344552D02*
X248333540Y-89392171D01*
X248333540Y-89392171D02*
X248285921Y-89439790D01*
X249095445Y-89344552D02*
X249619254Y-89344552D01*
X249619254Y-89344552D02*
X249095445Y-90011219D01*
X249095445Y-90011219D02*
X249619254Y-90011219D01*
X248999669Y-97390923D02*
X249999669Y-96724257D01*
X248999669Y-96724257D02*
X249999669Y-97390923D01*
X249999669Y-95819495D02*
X249999669Y-96390923D01*
X249999669Y-96105209D02*
X248999669Y-96105209D01*
X248999669Y-96105209D02*
X249142526Y-96200447D01*
X249142526Y-96200447D02*
X249237764Y-96295685D01*
X249237764Y-96295685D02*
X249285383Y-96390923D01*
X120967534Y-90777717D02*
X121015153Y-90634860D01*
X121015153Y-90634860D02*
X121062772Y-90587241D01*
X121062772Y-90587241D02*
X121158010Y-90539622D01*
X121158010Y-90539622D02*
X121300867Y-90539622D01*
X121300867Y-90539622D02*
X121396105Y-90587241D01*
X121396105Y-90587241D02*
X121443725Y-90634860D01*
X121443725Y-90634860D02*
X121491344Y-90730098D01*
X121491344Y-90730098D02*
X121491344Y-91111050D01*
X121491344Y-91111050D02*
X120491344Y-91111050D01*
X120491344Y-91111050D02*
X120491344Y-90777717D01*
X120491344Y-90777717D02*
X120538963Y-90682479D01*
X120538963Y-90682479D02*
X120586582Y-90634860D01*
X120586582Y-90634860D02*
X120681820Y-90587241D01*
X120681820Y-90587241D02*
X120777058Y-90587241D01*
X120777058Y-90587241D02*
X120872296Y-90634860D01*
X120872296Y-90634860D02*
X120919915Y-90682479D01*
X120919915Y-90682479D02*
X120967534Y-90777717D01*
X120967534Y-90777717D02*
X120967534Y-91111050D01*
X121396105Y-89539622D02*
X121443725Y-89587241D01*
X121443725Y-89587241D02*
X121491344Y-89730098D01*
X121491344Y-89730098D02*
X121491344Y-89825336D01*
X121491344Y-89825336D02*
X121443725Y-89968193D01*
X121443725Y-89968193D02*
X121348486Y-90063431D01*
X121348486Y-90063431D02*
X121253248Y-90111050D01*
X121253248Y-90111050D02*
X121062772Y-90158669D01*
X121062772Y-90158669D02*
X120919915Y-90158669D01*
X120919915Y-90158669D02*
X120729439Y-90111050D01*
X120729439Y-90111050D02*
X120634201Y-90063431D01*
X120634201Y-90063431D02*
X120538963Y-89968193D01*
X120538963Y-89968193D02*
X120491344Y-89825336D01*
X120491344Y-89825336D02*
X120491344Y-89730098D01*
X120491344Y-89730098D02*
X120538963Y-89587241D01*
X120538963Y-89587241D02*
X120586582Y-89539622D01*
X121491344Y-88587241D02*
X121491344Y-89158669D01*
X121491344Y-88872955D02*
X120491344Y-88872955D01*
X120491344Y-88872955D02*
X120634201Y-88968193D01*
X120634201Y-88968193D02*
X120729439Y-89063431D01*
X120729439Y-89063431D02*
X120777058Y-89158669D01*
X120919915Y-88015812D02*
X120872296Y-88111050D01*
X120872296Y-88111050D02*
X120824677Y-88158669D01*
X120824677Y-88158669D02*
X120729439Y-88206288D01*
X120729439Y-88206288D02*
X120681820Y-88206288D01*
X120681820Y-88206288D02*
X120586582Y-88158669D01*
X120586582Y-88158669D02*
X120538963Y-88111050D01*
X120538963Y-88111050D02*
X120491344Y-88015812D01*
X120491344Y-88015812D02*
X120491344Y-87825336D01*
X120491344Y-87825336D02*
X120538963Y-87730098D01*
X120538963Y-87730098D02*
X120586582Y-87682479D01*
X120586582Y-87682479D02*
X120681820Y-87634860D01*
X120681820Y-87634860D02*
X120729439Y-87634860D01*
X120729439Y-87634860D02*
X120824677Y-87682479D01*
X120824677Y-87682479D02*
X120872296Y-87730098D01*
X120872296Y-87730098D02*
X120919915Y-87825336D01*
X120919915Y-87825336D02*
X120919915Y-88015812D01*
X120919915Y-88015812D02*
X120967534Y-88111050D01*
X120967534Y-88111050D02*
X121015153Y-88158669D01*
X121015153Y-88158669D02*
X121110391Y-88206288D01*
X121110391Y-88206288D02*
X121300867Y-88206288D01*
X121300867Y-88206288D02*
X121396105Y-88158669D01*
X121396105Y-88158669D02*
X121443725Y-88111050D01*
X121443725Y-88111050D02*
X121491344Y-88015812D01*
X121491344Y-88015812D02*
X121491344Y-87825336D01*
X121491344Y-87825336D02*
X121443725Y-87730098D01*
X121443725Y-87730098D02*
X121396105Y-87682479D01*
X121396105Y-87682479D02*
X121300867Y-87634860D01*
X121300867Y-87634860D02*
X121110391Y-87634860D01*
X121110391Y-87634860D02*
X121015153Y-87682479D01*
X121015153Y-87682479D02*
X120967534Y-87730098D01*
X120967534Y-87730098D02*
X120919915Y-87825336D01*
X120824677Y-86777717D02*
X121491344Y-86777717D01*
X120443725Y-87015812D02*
X121158010Y-87253907D01*
X121158010Y-87253907D02*
X121158010Y-86634860D01*
X121396105Y-85682479D02*
X121443725Y-85730098D01*
X121443725Y-85730098D02*
X121491344Y-85872955D01*
X121491344Y-85872955D02*
X121491344Y-85968193D01*
X121491344Y-85968193D02*
X121443725Y-86111050D01*
X121443725Y-86111050D02*
X121348486Y-86206288D01*
X121348486Y-86206288D02*
X121253248Y-86253907D01*
X121253248Y-86253907D02*
X121062772Y-86301526D01*
X121062772Y-86301526D02*
X120919915Y-86301526D01*
X120919915Y-86301526D02*
X120729439Y-86253907D01*
X120729439Y-86253907D02*
X120634201Y-86206288D01*
X120634201Y-86206288D02*
X120538963Y-86111050D01*
X120538963Y-86111050D02*
X120491344Y-85968193D01*
X120491344Y-85968193D02*
X120491344Y-85872955D01*
X120491344Y-85872955D02*
X120538963Y-85730098D01*
X120538963Y-85730098D02*
X120586582Y-85682479D01*
X118796582Y-88515813D02*
X118748963Y-88611051D01*
X118748963Y-88611051D02*
X118653725Y-88706289D01*
X118653725Y-88706289D02*
X118510867Y-88849146D01*
X118510867Y-88849146D02*
X118463248Y-88944384D01*
X118463248Y-88944384D02*
X118463248Y-89039622D01*
X118701344Y-88992003D02*
X118653725Y-89087241D01*
X118653725Y-89087241D02*
X118558486Y-89182479D01*
X118558486Y-89182479D02*
X118368010Y-89230098D01*
X118368010Y-89230098D02*
X118034677Y-89230098D01*
X118034677Y-89230098D02*
X117844201Y-89182479D01*
X117844201Y-89182479D02*
X117748963Y-89087241D01*
X117748963Y-89087241D02*
X117701344Y-88992003D01*
X117701344Y-88992003D02*
X117701344Y-88801527D01*
X117701344Y-88801527D02*
X117748963Y-88706289D01*
X117748963Y-88706289D02*
X117844201Y-88611051D01*
X117844201Y-88611051D02*
X118034677Y-88563432D01*
X118034677Y-88563432D02*
X118368010Y-88563432D01*
X118368010Y-88563432D02*
X118558486Y-88611051D01*
X118558486Y-88611051D02*
X118653725Y-88706289D01*
X118653725Y-88706289D02*
X118701344Y-88801527D01*
X118701344Y-88801527D02*
X118701344Y-88992003D01*
X117701344Y-88230098D02*
X117701344Y-87611051D01*
X117701344Y-87611051D02*
X118082296Y-87944384D01*
X118082296Y-87944384D02*
X118082296Y-87801527D01*
X118082296Y-87801527D02*
X118129915Y-87706289D01*
X118129915Y-87706289D02*
X118177534Y-87658670D01*
X118177534Y-87658670D02*
X118272772Y-87611051D01*
X118272772Y-87611051D02*
X118510867Y-87611051D01*
X118510867Y-87611051D02*
X118606105Y-87658670D01*
X118606105Y-87658670D02*
X118653725Y-87706289D01*
X118653725Y-87706289D02*
X118701344Y-87801527D01*
X118701344Y-87801527D02*
X118701344Y-88087241D01*
X118701344Y-88087241D02*
X118653725Y-88182479D01*
X118653725Y-88182479D02*
X118606105Y-88230098D01*
X129689259Y-90812642D02*
X129736878Y-90669785D01*
X129736878Y-90669785D02*
X129784497Y-90622166D01*
X129784497Y-90622166D02*
X129879735Y-90574547D01*
X129879735Y-90574547D02*
X130022592Y-90574547D01*
X130022592Y-90574547D02*
X130117830Y-90622166D01*
X130117830Y-90622166D02*
X130165450Y-90669785D01*
X130165450Y-90669785D02*
X130213069Y-90765023D01*
X130213069Y-90765023D02*
X130213069Y-91145975D01*
X130213069Y-91145975D02*
X129213069Y-91145975D01*
X129213069Y-91145975D02*
X129213069Y-90812642D01*
X129213069Y-90812642D02*
X129260688Y-90717404D01*
X129260688Y-90717404D02*
X129308307Y-90669785D01*
X129308307Y-90669785D02*
X129403545Y-90622166D01*
X129403545Y-90622166D02*
X129498783Y-90622166D01*
X129498783Y-90622166D02*
X129594021Y-90669785D01*
X129594021Y-90669785D02*
X129641640Y-90717404D01*
X129641640Y-90717404D02*
X129689259Y-90812642D01*
X129689259Y-90812642D02*
X129689259Y-91145975D01*
X130117830Y-89574547D02*
X130165450Y-89622166D01*
X130165450Y-89622166D02*
X130213069Y-89765023D01*
X130213069Y-89765023D02*
X130213069Y-89860261D01*
X130213069Y-89860261D02*
X130165450Y-90003118D01*
X130165450Y-90003118D02*
X130070211Y-90098356D01*
X130070211Y-90098356D02*
X129974973Y-90145975D01*
X129974973Y-90145975D02*
X129784497Y-90193594D01*
X129784497Y-90193594D02*
X129641640Y-90193594D01*
X129641640Y-90193594D02*
X129451164Y-90145975D01*
X129451164Y-90145975D02*
X129355926Y-90098356D01*
X129355926Y-90098356D02*
X129260688Y-90003118D01*
X129260688Y-90003118D02*
X129213069Y-89860261D01*
X129213069Y-89860261D02*
X129213069Y-89765023D01*
X129213069Y-89765023D02*
X129260688Y-89622166D01*
X129260688Y-89622166D02*
X129308307Y-89574547D01*
X129308307Y-89193594D02*
X129260688Y-89145975D01*
X129260688Y-89145975D02*
X129213069Y-89050737D01*
X129213069Y-89050737D02*
X129213069Y-88812642D01*
X129213069Y-88812642D02*
X129260688Y-88717404D01*
X129260688Y-88717404D02*
X129308307Y-88669785D01*
X129308307Y-88669785D02*
X129403545Y-88622166D01*
X129403545Y-88622166D02*
X129498783Y-88622166D01*
X129498783Y-88622166D02*
X129641640Y-88669785D01*
X129641640Y-88669785D02*
X130213069Y-89241213D01*
X130213069Y-89241213D02*
X130213069Y-88622166D01*
X130213069Y-87669785D02*
X130213069Y-88241213D01*
X130213069Y-87955499D02*
X129213069Y-87955499D01*
X129213069Y-87955499D02*
X129355926Y-88050737D01*
X129355926Y-88050737D02*
X129451164Y-88145975D01*
X129451164Y-88145975D02*
X129498783Y-88241213D01*
X129213069Y-87336451D02*
X129213069Y-86717404D01*
X129213069Y-86717404D02*
X129594021Y-87050737D01*
X129594021Y-87050737D02*
X129594021Y-86907880D01*
X129594021Y-86907880D02*
X129641640Y-86812642D01*
X129641640Y-86812642D02*
X129689259Y-86765023D01*
X129689259Y-86765023D02*
X129784497Y-86717404D01*
X129784497Y-86717404D02*
X130022592Y-86717404D01*
X130022592Y-86717404D02*
X130117830Y-86765023D01*
X130117830Y-86765023D02*
X130165450Y-86812642D01*
X130165450Y-86812642D02*
X130213069Y-86907880D01*
X130213069Y-86907880D02*
X130213069Y-87193594D01*
X130213069Y-87193594D02*
X130165450Y-87288832D01*
X130165450Y-87288832D02*
X130117830Y-87336451D01*
X130117830Y-85717404D02*
X130165450Y-85765023D01*
X130165450Y-85765023D02*
X130213069Y-85907880D01*
X130213069Y-85907880D02*
X130213069Y-86003118D01*
X130213069Y-86003118D02*
X130165450Y-86145975D01*
X130165450Y-86145975D02*
X130070211Y-86241213D01*
X130070211Y-86241213D02*
X129974973Y-86288832D01*
X129974973Y-86288832D02*
X129784497Y-86336451D01*
X129784497Y-86336451D02*
X129641640Y-86336451D01*
X129641640Y-86336451D02*
X129451164Y-86288832D01*
X129451164Y-86288832D02*
X129355926Y-86241213D01*
X129355926Y-86241213D02*
X129260688Y-86145975D01*
X129260688Y-86145975D02*
X129213069Y-86003118D01*
X129213069Y-86003118D02*
X129213069Y-85907880D01*
X129213069Y-85907880D02*
X129260688Y-85765023D01*
X129260688Y-85765023D02*
X129308307Y-85717404D01*
X127518307Y-88550738D02*
X127470688Y-88645976D01*
X127470688Y-88645976D02*
X127375450Y-88741214D01*
X127375450Y-88741214D02*
X127232592Y-88884071D01*
X127232592Y-88884071D02*
X127184973Y-88979309D01*
X127184973Y-88979309D02*
X127184973Y-89074547D01*
X127423069Y-89026928D02*
X127375450Y-89122166D01*
X127375450Y-89122166D02*
X127280211Y-89217404D01*
X127280211Y-89217404D02*
X127089735Y-89265023D01*
X127089735Y-89265023D02*
X126756402Y-89265023D01*
X126756402Y-89265023D02*
X126565926Y-89217404D01*
X126565926Y-89217404D02*
X126470688Y-89122166D01*
X126470688Y-89122166D02*
X126423069Y-89026928D01*
X126423069Y-89026928D02*
X126423069Y-88836452D01*
X126423069Y-88836452D02*
X126470688Y-88741214D01*
X126470688Y-88741214D02*
X126565926Y-88645976D01*
X126565926Y-88645976D02*
X126756402Y-88598357D01*
X126756402Y-88598357D02*
X127089735Y-88598357D01*
X127089735Y-88598357D02*
X127280211Y-88645976D01*
X127280211Y-88645976D02*
X127375450Y-88741214D01*
X127375450Y-88741214D02*
X127423069Y-88836452D01*
X127423069Y-88836452D02*
X127423069Y-89026928D01*
X127423069Y-87645976D02*
X127423069Y-88217404D01*
X127423069Y-87931690D02*
X126423069Y-87931690D01*
X126423069Y-87931690D02*
X126565926Y-88026928D01*
X126565926Y-88026928D02*
X126661164Y-88122166D01*
X126661164Y-88122166D02*
X126708783Y-88217404D01*
X211186494Y-89901322D02*
X211186494Y-89234656D01*
X211186494Y-89234656D02*
X212186494Y-89663227D01*
X211519827Y-88425132D02*
X212186494Y-88425132D01*
X211138875Y-88663227D02*
X211853160Y-88901322D01*
X211853160Y-88901322D02*
X211853160Y-88282275D01*
X212186494Y-87425132D02*
X212186494Y-87901322D01*
X212186494Y-87901322D02*
X211186494Y-87901322D01*
X212138875Y-87139417D02*
X212186494Y-86996560D01*
X212186494Y-86996560D02*
X212186494Y-86758465D01*
X212186494Y-86758465D02*
X212138875Y-86663227D01*
X212138875Y-86663227D02*
X212091255Y-86615608D01*
X212091255Y-86615608D02*
X211996017Y-86567989D01*
X211996017Y-86567989D02*
X211900779Y-86567989D01*
X211900779Y-86567989D02*
X211805541Y-86615608D01*
X211805541Y-86615608D02*
X211757922Y-86663227D01*
X211757922Y-86663227D02*
X211710303Y-86758465D01*
X211710303Y-86758465D02*
X211662684Y-86948941D01*
X211662684Y-86948941D02*
X211615065Y-87044179D01*
X211615065Y-87044179D02*
X211567446Y-87091798D01*
X211567446Y-87091798D02*
X211472208Y-87139417D01*
X211472208Y-87139417D02*
X211376970Y-87139417D01*
X211376970Y-87139417D02*
X211281732Y-87091798D01*
X211281732Y-87091798D02*
X211234113Y-87044179D01*
X211234113Y-87044179D02*
X211186494Y-86948941D01*
X211186494Y-86948941D02*
X211186494Y-86710846D01*
X211186494Y-86710846D02*
X211234113Y-86567989D01*
X211281732Y-86187036D02*
X211234113Y-86139417D01*
X211234113Y-86139417D02*
X211186494Y-86044179D01*
X211186494Y-86044179D02*
X211186494Y-85806084D01*
X211186494Y-85806084D02*
X211234113Y-85710846D01*
X211234113Y-85710846D02*
X211281732Y-85663227D01*
X211281732Y-85663227D02*
X211376970Y-85615608D01*
X211376970Y-85615608D02*
X211472208Y-85615608D01*
X211472208Y-85615608D02*
X211615065Y-85663227D01*
X211615065Y-85663227D02*
X212186494Y-86234655D01*
X212186494Y-86234655D02*
X212186494Y-85615608D01*
X211186494Y-84758465D02*
X211186494Y-84948941D01*
X211186494Y-84948941D02*
X211234113Y-85044179D01*
X211234113Y-85044179D02*
X211281732Y-85091798D01*
X211281732Y-85091798D02*
X211424589Y-85187036D01*
X211424589Y-85187036D02*
X211615065Y-85234655D01*
X211615065Y-85234655D02*
X211996017Y-85234655D01*
X211996017Y-85234655D02*
X212091255Y-85187036D01*
X212091255Y-85187036D02*
X212138875Y-85139417D01*
X212138875Y-85139417D02*
X212186494Y-85044179D01*
X212186494Y-85044179D02*
X212186494Y-84853703D01*
X212186494Y-84853703D02*
X212138875Y-84758465D01*
X212138875Y-84758465D02*
X212091255Y-84710846D01*
X212091255Y-84710846D02*
X211996017Y-84663227D01*
X211996017Y-84663227D02*
X211757922Y-84663227D01*
X211757922Y-84663227D02*
X211662684Y-84710846D01*
X211662684Y-84710846D02*
X211615065Y-84758465D01*
X211615065Y-84758465D02*
X211567446Y-84853703D01*
X211567446Y-84853703D02*
X211567446Y-85044179D01*
X211567446Y-85044179D02*
X211615065Y-85139417D01*
X211615065Y-85139417D02*
X211662684Y-85187036D01*
X211662684Y-85187036D02*
X211757922Y-85234655D01*
X211186494Y-84044179D02*
X211186494Y-83948941D01*
X211186494Y-83948941D02*
X211234113Y-83853703D01*
X211234113Y-83853703D02*
X211281732Y-83806084D01*
X211281732Y-83806084D02*
X211376970Y-83758465D01*
X211376970Y-83758465D02*
X211567446Y-83710846D01*
X211567446Y-83710846D02*
X211805541Y-83710846D01*
X211805541Y-83710846D02*
X211996017Y-83758465D01*
X211996017Y-83758465D02*
X212091255Y-83806084D01*
X212091255Y-83806084D02*
X212138875Y-83853703D01*
X212138875Y-83853703D02*
X212186494Y-83948941D01*
X212186494Y-83948941D02*
X212186494Y-84044179D01*
X212186494Y-84044179D02*
X212138875Y-84139417D01*
X212138875Y-84139417D02*
X212091255Y-84187036D01*
X212091255Y-84187036D02*
X211996017Y-84234655D01*
X211996017Y-84234655D02*
X211805541Y-84282274D01*
X211805541Y-84282274D02*
X211567446Y-84282274D01*
X211567446Y-84282274D02*
X211376970Y-84234655D01*
X211376970Y-84234655D02*
X211281732Y-84187036D01*
X211281732Y-84187036D02*
X211234113Y-84139417D01*
X211234113Y-84139417D02*
X211186494Y-84044179D01*
X221136494Y-87544179D02*
X221946017Y-87544179D01*
X221946017Y-87544179D02*
X222041255Y-87496560D01*
X222041255Y-87496560D02*
X222088875Y-87448941D01*
X222088875Y-87448941D02*
X222136494Y-87353703D01*
X222136494Y-87353703D02*
X222136494Y-87163227D01*
X222136494Y-87163227D02*
X222088875Y-87067989D01*
X222088875Y-87067989D02*
X222041255Y-87020370D01*
X222041255Y-87020370D02*
X221946017Y-86972751D01*
X221946017Y-86972751D02*
X221136494Y-86972751D01*
X221136494Y-86591798D02*
X221136494Y-85972751D01*
X221136494Y-85972751D02*
X221517446Y-86306084D01*
X221517446Y-86306084D02*
X221517446Y-86163227D01*
X221517446Y-86163227D02*
X221565065Y-86067989D01*
X221565065Y-86067989D02*
X221612684Y-86020370D01*
X221612684Y-86020370D02*
X221707922Y-85972751D01*
X221707922Y-85972751D02*
X221946017Y-85972751D01*
X221946017Y-85972751D02*
X222041255Y-86020370D01*
X222041255Y-86020370D02*
X222088875Y-86067989D01*
X222088875Y-86067989D02*
X222136494Y-86163227D01*
X222136494Y-86163227D02*
X222136494Y-86448941D01*
X222136494Y-86448941D02*
X222088875Y-86544179D01*
X222088875Y-86544179D02*
X222041255Y-86591798D01*
X129724184Y-98489792D02*
X129771803Y-98346935D01*
X129771803Y-98346935D02*
X129819422Y-98299316D01*
X129819422Y-98299316D02*
X129914660Y-98251697D01*
X129914660Y-98251697D02*
X130057517Y-98251697D01*
X130057517Y-98251697D02*
X130152755Y-98299316D01*
X130152755Y-98299316D02*
X130200375Y-98346935D01*
X130200375Y-98346935D02*
X130247994Y-98442173D01*
X130247994Y-98442173D02*
X130247994Y-98823125D01*
X130247994Y-98823125D02*
X129247994Y-98823125D01*
X129247994Y-98823125D02*
X129247994Y-98489792D01*
X129247994Y-98489792D02*
X129295613Y-98394554D01*
X129295613Y-98394554D02*
X129343232Y-98346935D01*
X129343232Y-98346935D02*
X129438470Y-98299316D01*
X129438470Y-98299316D02*
X129533708Y-98299316D01*
X129533708Y-98299316D02*
X129628946Y-98346935D01*
X129628946Y-98346935D02*
X129676565Y-98394554D01*
X129676565Y-98394554D02*
X129724184Y-98489792D01*
X129724184Y-98489792D02*
X129724184Y-98823125D01*
X130152755Y-97251697D02*
X130200375Y-97299316D01*
X130200375Y-97299316D02*
X130247994Y-97442173D01*
X130247994Y-97442173D02*
X130247994Y-97537411D01*
X130247994Y-97537411D02*
X130200375Y-97680268D01*
X130200375Y-97680268D02*
X130105136Y-97775506D01*
X130105136Y-97775506D02*
X130009898Y-97823125D01*
X130009898Y-97823125D02*
X129819422Y-97870744D01*
X129819422Y-97870744D02*
X129676565Y-97870744D01*
X129676565Y-97870744D02*
X129486089Y-97823125D01*
X129486089Y-97823125D02*
X129390851Y-97775506D01*
X129390851Y-97775506D02*
X129295613Y-97680268D01*
X129295613Y-97680268D02*
X129247994Y-97537411D01*
X129247994Y-97537411D02*
X129247994Y-97442173D01*
X129247994Y-97442173D02*
X129295613Y-97299316D01*
X129295613Y-97299316D02*
X129343232Y-97251697D01*
X129343232Y-96870744D02*
X129295613Y-96823125D01*
X129295613Y-96823125D02*
X129247994Y-96727887D01*
X129247994Y-96727887D02*
X129247994Y-96489792D01*
X129247994Y-96489792D02*
X129295613Y-96394554D01*
X129295613Y-96394554D02*
X129343232Y-96346935D01*
X129343232Y-96346935D02*
X129438470Y-96299316D01*
X129438470Y-96299316D02*
X129533708Y-96299316D01*
X129533708Y-96299316D02*
X129676565Y-96346935D01*
X129676565Y-96346935D02*
X130247994Y-96918363D01*
X130247994Y-96918363D02*
X130247994Y-96299316D01*
X130247994Y-95346935D02*
X130247994Y-95918363D01*
X130247994Y-95632649D02*
X129247994Y-95632649D01*
X129247994Y-95632649D02*
X129390851Y-95727887D01*
X129390851Y-95727887D02*
X129486089Y-95823125D01*
X129486089Y-95823125D02*
X129533708Y-95918363D01*
X129247994Y-95013601D02*
X129247994Y-94394554D01*
X129247994Y-94394554D02*
X129628946Y-94727887D01*
X129628946Y-94727887D02*
X129628946Y-94585030D01*
X129628946Y-94585030D02*
X129676565Y-94489792D01*
X129676565Y-94489792D02*
X129724184Y-94442173D01*
X129724184Y-94442173D02*
X129819422Y-94394554D01*
X129819422Y-94394554D02*
X130057517Y-94394554D01*
X130057517Y-94394554D02*
X130152755Y-94442173D01*
X130152755Y-94442173D02*
X130200375Y-94489792D01*
X130200375Y-94489792D02*
X130247994Y-94585030D01*
X130247994Y-94585030D02*
X130247994Y-94870744D01*
X130247994Y-94870744D02*
X130200375Y-94965982D01*
X130200375Y-94965982D02*
X130152755Y-95013601D01*
X130152755Y-93394554D02*
X130200375Y-93442173D01*
X130200375Y-93442173D02*
X130247994Y-93585030D01*
X130247994Y-93585030D02*
X130247994Y-93680268D01*
X130247994Y-93680268D02*
X130200375Y-93823125D01*
X130200375Y-93823125D02*
X130105136Y-93918363D01*
X130105136Y-93918363D02*
X130009898Y-93965982D01*
X130009898Y-93965982D02*
X129819422Y-94013601D01*
X129819422Y-94013601D02*
X129676565Y-94013601D01*
X129676565Y-94013601D02*
X129486089Y-93965982D01*
X129486089Y-93965982D02*
X129390851Y-93918363D01*
X129390851Y-93918363D02*
X129295613Y-93823125D01*
X129295613Y-93823125D02*
X129247994Y-93680268D01*
X129247994Y-93680268D02*
X129247994Y-93585030D01*
X129247994Y-93585030D02*
X129295613Y-93442173D01*
X129295613Y-93442173D02*
X129343232Y-93394554D01*
X127553232Y-96227888D02*
X127505613Y-96323126D01*
X127505613Y-96323126D02*
X127410375Y-96418364D01*
X127410375Y-96418364D02*
X127267517Y-96561221D01*
X127267517Y-96561221D02*
X127219898Y-96656459D01*
X127219898Y-96656459D02*
X127219898Y-96751697D01*
X127457994Y-96704078D02*
X127410375Y-96799316D01*
X127410375Y-96799316D02*
X127315136Y-96894554D01*
X127315136Y-96894554D02*
X127124660Y-96942173D01*
X127124660Y-96942173D02*
X126791327Y-96942173D01*
X126791327Y-96942173D02*
X126600851Y-96894554D01*
X126600851Y-96894554D02*
X126505613Y-96799316D01*
X126505613Y-96799316D02*
X126457994Y-96704078D01*
X126457994Y-96704078D02*
X126457994Y-96513602D01*
X126457994Y-96513602D02*
X126505613Y-96418364D01*
X126505613Y-96418364D02*
X126600851Y-96323126D01*
X126600851Y-96323126D02*
X126791327Y-96275507D01*
X126791327Y-96275507D02*
X127124660Y-96275507D01*
X127124660Y-96275507D02*
X127315136Y-96323126D01*
X127315136Y-96323126D02*
X127410375Y-96418364D01*
X127410375Y-96418364D02*
X127457994Y-96513602D01*
X127457994Y-96513602D02*
X127457994Y-96704078D01*
X126553232Y-95894554D02*
X126505613Y-95846935D01*
X126505613Y-95846935D02*
X126457994Y-95751697D01*
X126457994Y-95751697D02*
X126457994Y-95513602D01*
X126457994Y-95513602D02*
X126505613Y-95418364D01*
X126505613Y-95418364D02*
X126553232Y-95370745D01*
X126553232Y-95370745D02*
X126648470Y-95323126D01*
X126648470Y-95323126D02*
X126743708Y-95323126D01*
X126743708Y-95323126D02*
X126886565Y-95370745D01*
X126886565Y-95370745D02*
X127457994Y-95942173D01*
X127457994Y-95942173D02*
X127457994Y-95323126D01*
X120897684Y-98350092D02*
X120945303Y-98207235D01*
X120945303Y-98207235D02*
X120992922Y-98159616D01*
X120992922Y-98159616D02*
X121088160Y-98111997D01*
X121088160Y-98111997D02*
X121231017Y-98111997D01*
X121231017Y-98111997D02*
X121326255Y-98159616D01*
X121326255Y-98159616D02*
X121373875Y-98207235D01*
X121373875Y-98207235D02*
X121421494Y-98302473D01*
X121421494Y-98302473D02*
X121421494Y-98683425D01*
X121421494Y-98683425D02*
X120421494Y-98683425D01*
X120421494Y-98683425D02*
X120421494Y-98350092D01*
X120421494Y-98350092D02*
X120469113Y-98254854D01*
X120469113Y-98254854D02*
X120516732Y-98207235D01*
X120516732Y-98207235D02*
X120611970Y-98159616D01*
X120611970Y-98159616D02*
X120707208Y-98159616D01*
X120707208Y-98159616D02*
X120802446Y-98207235D01*
X120802446Y-98207235D02*
X120850065Y-98254854D01*
X120850065Y-98254854D02*
X120897684Y-98350092D01*
X120897684Y-98350092D02*
X120897684Y-98683425D01*
X121326255Y-97111997D02*
X121373875Y-97159616D01*
X121373875Y-97159616D02*
X121421494Y-97302473D01*
X121421494Y-97302473D02*
X121421494Y-97397711D01*
X121421494Y-97397711D02*
X121373875Y-97540568D01*
X121373875Y-97540568D02*
X121278636Y-97635806D01*
X121278636Y-97635806D02*
X121183398Y-97683425D01*
X121183398Y-97683425D02*
X120992922Y-97731044D01*
X120992922Y-97731044D02*
X120850065Y-97731044D01*
X120850065Y-97731044D02*
X120659589Y-97683425D01*
X120659589Y-97683425D02*
X120564351Y-97635806D01*
X120564351Y-97635806D02*
X120469113Y-97540568D01*
X120469113Y-97540568D02*
X120421494Y-97397711D01*
X120421494Y-97397711D02*
X120421494Y-97302473D01*
X120421494Y-97302473D02*
X120469113Y-97159616D01*
X120469113Y-97159616D02*
X120516732Y-97111997D01*
X120516732Y-96731044D02*
X120469113Y-96683425D01*
X120469113Y-96683425D02*
X120421494Y-96588187D01*
X120421494Y-96588187D02*
X120421494Y-96350092D01*
X120421494Y-96350092D02*
X120469113Y-96254854D01*
X120469113Y-96254854D02*
X120516732Y-96207235D01*
X120516732Y-96207235D02*
X120611970Y-96159616D01*
X120611970Y-96159616D02*
X120707208Y-96159616D01*
X120707208Y-96159616D02*
X120850065Y-96207235D01*
X120850065Y-96207235D02*
X121421494Y-96778663D01*
X121421494Y-96778663D02*
X121421494Y-96159616D01*
X121421494Y-95207235D02*
X121421494Y-95778663D01*
X121421494Y-95492949D02*
X120421494Y-95492949D01*
X120421494Y-95492949D02*
X120564351Y-95588187D01*
X120564351Y-95588187D02*
X120659589Y-95683425D01*
X120659589Y-95683425D02*
X120707208Y-95778663D01*
X120421494Y-94873901D02*
X120421494Y-94254854D01*
X120421494Y-94254854D02*
X120802446Y-94588187D01*
X120802446Y-94588187D02*
X120802446Y-94445330D01*
X120802446Y-94445330D02*
X120850065Y-94350092D01*
X120850065Y-94350092D02*
X120897684Y-94302473D01*
X120897684Y-94302473D02*
X120992922Y-94254854D01*
X120992922Y-94254854D02*
X121231017Y-94254854D01*
X121231017Y-94254854D02*
X121326255Y-94302473D01*
X121326255Y-94302473D02*
X121373875Y-94350092D01*
X121373875Y-94350092D02*
X121421494Y-94445330D01*
X121421494Y-94445330D02*
X121421494Y-94731044D01*
X121421494Y-94731044D02*
X121373875Y-94826282D01*
X121373875Y-94826282D02*
X121326255Y-94873901D01*
X121326255Y-93254854D02*
X121373875Y-93302473D01*
X121373875Y-93302473D02*
X121421494Y-93445330D01*
X121421494Y-93445330D02*
X121421494Y-93540568D01*
X121421494Y-93540568D02*
X121373875Y-93683425D01*
X121373875Y-93683425D02*
X121278636Y-93778663D01*
X121278636Y-93778663D02*
X121183398Y-93826282D01*
X121183398Y-93826282D02*
X120992922Y-93873901D01*
X120992922Y-93873901D02*
X120850065Y-93873901D01*
X120850065Y-93873901D02*
X120659589Y-93826282D01*
X120659589Y-93826282D02*
X120564351Y-93778663D01*
X120564351Y-93778663D02*
X120469113Y-93683425D01*
X120469113Y-93683425D02*
X120421494Y-93540568D01*
X120421494Y-93540568D02*
X120421494Y-93445330D01*
X120421494Y-93445330D02*
X120469113Y-93302473D01*
X120469113Y-93302473D02*
X120516732Y-93254854D01*
X118726732Y-96088188D02*
X118679113Y-96183426D01*
X118679113Y-96183426D02*
X118583875Y-96278664D01*
X118583875Y-96278664D02*
X118441017Y-96421521D01*
X118441017Y-96421521D02*
X118393398Y-96516759D01*
X118393398Y-96516759D02*
X118393398Y-96611997D01*
X118631494Y-96564378D02*
X118583875Y-96659616D01*
X118583875Y-96659616D02*
X118488636Y-96754854D01*
X118488636Y-96754854D02*
X118298160Y-96802473D01*
X118298160Y-96802473D02*
X117964827Y-96802473D01*
X117964827Y-96802473D02*
X117774351Y-96754854D01*
X117774351Y-96754854D02*
X117679113Y-96659616D01*
X117679113Y-96659616D02*
X117631494Y-96564378D01*
X117631494Y-96564378D02*
X117631494Y-96373902D01*
X117631494Y-96373902D02*
X117679113Y-96278664D01*
X117679113Y-96278664D02*
X117774351Y-96183426D01*
X117774351Y-96183426D02*
X117964827Y-96135807D01*
X117964827Y-96135807D02*
X118298160Y-96135807D01*
X118298160Y-96135807D02*
X118488636Y-96183426D01*
X118488636Y-96183426D02*
X118583875Y-96278664D01*
X118583875Y-96278664D02*
X118631494Y-96373902D01*
X118631494Y-96373902D02*
X118631494Y-96564378D01*
X117964827Y-95278664D02*
X118631494Y-95278664D01*
X117583875Y-95516759D02*
X118298160Y-95754854D01*
X118298160Y-95754854D02*
X118298160Y-95135807D01*
D12*
%TO.C,R33*%
X156126775Y-109847625D02*
X156126775Y-118847625D01*
X156126775Y-118847625D02*
X158026775Y-118847625D01*
X157076775Y-107997625D02*
X157076775Y-109847625D01*
X157076775Y-120697625D02*
X157076775Y-118847625D01*
X158026775Y-109847625D02*
X156126775Y-109847625D01*
X158026775Y-118847625D02*
X158026775Y-109847625D01*
%TO.C,R18*%
X105799850Y-109717450D02*
X105799850Y-118717450D01*
X105799850Y-118717450D02*
X107699850Y-118717450D01*
X106749850Y-107867450D02*
X106749850Y-109717450D01*
X106749850Y-120567450D02*
X106749850Y-118717450D01*
X107699850Y-109717450D02*
X105799850Y-109717450D01*
X107699850Y-118717450D02*
X107699850Y-109717450D01*
%TO.C,R7*%
X171369950Y-109831750D02*
X171369950Y-118831750D01*
X171369950Y-118831750D02*
X173269950Y-118831750D01*
X172319950Y-107981750D02*
X172319950Y-109831750D01*
X172319950Y-120681750D02*
X172319950Y-118831750D01*
X173269950Y-109831750D02*
X171369950Y-109831750D01*
X173269950Y-118831750D02*
X173269950Y-109831750D01*
%TO.C,D8*%
X93278750Y-89280950D02*
X94998750Y-89280950D01*
X93278750Y-94832950D02*
X93278750Y-89280950D01*
X94138750Y-85832950D02*
X94138750Y-89280950D01*
X94138750Y-89280950D02*
X94998750Y-90140950D01*
X94138750Y-94832950D02*
X94138750Y-98532950D01*
X94998750Y-89280950D02*
X94998750Y-94832950D01*
X94998750Y-94832950D02*
X93278750Y-94832950D01*
%TO.C,R28*%
X71081225Y-109653950D02*
X71081225Y-118653950D01*
X71081225Y-118653950D02*
X72981225Y-118653950D01*
X72031225Y-107803950D02*
X72031225Y-109653950D01*
X72031225Y-120503950D02*
X72031225Y-118653950D01*
X72981225Y-109653950D02*
X71081225Y-109653950D01*
X72981225Y-118653950D02*
X72981225Y-109653950D01*
%TO.C,R14*%
X103243975Y-109761900D02*
X103243975Y-118761900D01*
X103243975Y-118761900D02*
X105143975Y-118761900D01*
X104193975Y-107911900D02*
X104193975Y-109761900D01*
X104193975Y-120611900D02*
X104193975Y-118761900D01*
X105143975Y-109761900D02*
X103243975Y-109761900D01*
X105143975Y-118761900D02*
X105143975Y-109761900D01*
%TO.C,Q5*%
X112763100Y-97882950D02*
X112763100Y-94132950D01*
X108683100Y-95992950D02*
G75*
G02*
X112755647Y-94091847I2480000J0D01*
G01*
X112765485Y-97885768D02*
G75*
G02*
X108683100Y-95992950I-1602385J1892818D01*
G01*
%TO.C,C3*%
X259396825Y-105694725D02*
X259396825Y-114694725D01*
X259396825Y-114694725D02*
X261296825Y-114694725D01*
X260346825Y-103844725D02*
X260346825Y-105694725D01*
X260346825Y-116544725D02*
X260346825Y-114694725D01*
X261296825Y-105694725D02*
X259396825Y-105694725D01*
X261296825Y-114694725D02*
X261296825Y-105694725D01*
%TO.C,R22*%
X98106825Y-87613100D02*
X98106825Y-96613100D01*
X98106825Y-96613100D02*
X100006825Y-96613100D01*
X99056825Y-85763100D02*
X99056825Y-87613100D01*
X99056825Y-98463100D02*
X99056825Y-96613100D01*
X100006825Y-87613100D02*
X98106825Y-87613100D01*
X100006825Y-96613100D02*
X100006825Y-87613100D01*
%TO.C,C5*%
X234954925Y-112668275D02*
X234954925Y-116468275D01*
X234954925Y-116468275D02*
X237554925Y-116468275D01*
X236254925Y-108318275D02*
X236254925Y-112668275D01*
X236254925Y-120818275D02*
X236254925Y-116468275D01*
X237554925Y-112668275D02*
X234954925Y-112668275D01*
X237554925Y-116468275D02*
X237554925Y-112668275D01*
%TO.C,D3*%
X237887300Y-111626600D02*
X239607300Y-111626600D01*
X237887300Y-117178600D02*
X237887300Y-111626600D01*
X238747300Y-108178600D02*
X238747300Y-111626600D01*
X238747300Y-111626600D02*
X239607300Y-112486600D01*
X238747300Y-117178600D02*
X238747300Y-120878600D01*
X239607300Y-111626600D02*
X239607300Y-117178600D01*
X239607300Y-117178600D02*
X237887300Y-117178600D01*
%TO.C,Q9*%
X124174050Y-90345500D02*
X124174050Y-86595500D01*
X120094050Y-88455500D02*
G75*
G02*
X124166597Y-86554397I2480000J0D01*
G01*
X124176435Y-90348318D02*
G75*
G02*
X120094050Y-88455500I-1602385J1892818D01*
G01*
%TO.C,R32*%
X153059725Y-92775650D02*
X153059725Y-101775650D01*
X153059725Y-101775650D02*
X154959725Y-101775650D01*
X154009725Y-90925650D02*
X154009725Y-92775650D01*
X154009725Y-103625650D02*
X154009725Y-101775650D01*
X154959725Y-92775650D02*
X153059725Y-92775650D01*
X154959725Y-101775650D02*
X154959725Y-92775650D01*
%TO.C,R3*%
X163769000Y-109911125D02*
X163769000Y-118911125D01*
X163769000Y-118911125D02*
X165669000Y-118911125D01*
X164719000Y-108061125D02*
X164719000Y-109911125D01*
X164719000Y-120761125D02*
X164719000Y-118911125D01*
X165669000Y-109911125D02*
X163769000Y-109911125D01*
X165669000Y-118911125D02*
X165669000Y-109911125D01*
%TO.C,D10*%
X160757025Y-94373650D02*
X162477025Y-94373650D01*
X160757025Y-99925650D02*
X160757025Y-94373650D01*
X161617025Y-90925650D02*
X161617025Y-94373650D01*
X161617025Y-94373650D02*
X162477025Y-95233650D01*
X161617025Y-99925650D02*
X161617025Y-103625650D01*
X162477025Y-94373650D02*
X162477025Y-99925650D01*
X162477025Y-99925650D02*
X160757025Y-99925650D01*
%TO.C,R15*%
X100710325Y-109676175D02*
X100710325Y-118676175D01*
X100710325Y-118676175D02*
X102610325Y-118676175D01*
X101660325Y-107826175D02*
X101660325Y-109676175D01*
X101660325Y-120526175D02*
X101660325Y-118676175D01*
X102610325Y-109676175D02*
X100710325Y-109676175D01*
X102610325Y-118676175D02*
X102610325Y-109676175D01*
%TO.C,U1*%
X179962175Y-106001550D02*
X229762175Y-106001550D01*
X179962175Y-120731550D02*
X179962175Y-106001550D01*
X229762175Y-106001550D02*
X230762175Y-107001550D01*
X230762175Y-107001550D02*
X230762175Y-120731550D01*
X230762175Y-120731550D02*
X179962175Y-120731550D01*
%TO.C,R10*%
X128513800Y-109701575D02*
X128513800Y-118701575D01*
X128513800Y-118701575D02*
X130413800Y-118701575D01*
X129463800Y-107851575D02*
X129463800Y-109701575D01*
X129463800Y-120551575D02*
X129463800Y-118701575D01*
X130413800Y-109701575D02*
X128513800Y-109701575D01*
X130413800Y-118701575D02*
X130413800Y-109701575D01*
%TO.C,R13*%
X118401425Y-109739675D02*
X118401425Y-118739675D01*
X118401425Y-118739675D02*
X120301425Y-118739675D01*
X119351425Y-107889675D02*
X119351425Y-109739675D01*
X119351425Y-120589675D02*
X119351425Y-118739675D01*
X120301425Y-109739675D02*
X118401425Y-109739675D01*
X120301425Y-118739675D02*
X120301425Y-109739675D01*
%TO.C,C8*%
X95728750Y-109679350D02*
X95728750Y-118679350D01*
X95728750Y-118679350D02*
X97628750Y-118679350D01*
X96678750Y-107829350D02*
X96678750Y-109679350D01*
X96678750Y-120529350D02*
X96678750Y-118679350D01*
X97628750Y-109679350D02*
X95728750Y-109679350D01*
X97628750Y-118679350D02*
X97628750Y-109679350D01*
%TO.C,R12*%
X123427450Y-109765075D02*
X123427450Y-118765075D01*
X123427450Y-118765075D02*
X125327450Y-118765075D01*
X124377450Y-107915075D02*
X124377450Y-109765075D01*
X124377450Y-120615075D02*
X124377450Y-118765075D01*
X125327450Y-109765075D02*
X123427450Y-109765075D01*
X125327450Y-118765075D02*
X125327450Y-109765075D01*
%TO.C,U4*%
X212721825Y-94980125D02*
X229501825Y-94980125D01*
X212721825Y-101330125D02*
X212721825Y-94980125D01*
X229501825Y-94980125D02*
X230501825Y-95980125D01*
X230501825Y-95980125D02*
X230501825Y-101330125D01*
X230501825Y-101330125D02*
X212721825Y-101330125D01*
%TO.C,Q6*%
X112832950Y-90275650D02*
X112832950Y-86525650D01*
X108752950Y-88385650D02*
G75*
G02*
X112825497Y-86484547I2480000J0D01*
G01*
X112835335Y-90278468D02*
G75*
G02*
X108752950Y-88385650I-1602385J1892818D01*
G01*
%TO.C,R24*%
X76148525Y-109660300D02*
X76148525Y-118660300D01*
X76148525Y-118660300D02*
X78048525Y-118660300D01*
X77098525Y-107810300D02*
X77098525Y-109660300D01*
X77098525Y-120510300D02*
X77098525Y-118660300D01*
X78048525Y-109660300D02*
X76148525Y-109660300D01*
X78048525Y-118660300D02*
X78048525Y-109660300D01*
%TO.C,R8*%
X133517600Y-109746025D02*
X133517600Y-118746025D01*
X133517600Y-118746025D02*
X135417600Y-118746025D01*
X134467600Y-107896025D02*
X134467600Y-109746025D01*
X134467600Y-120596025D02*
X134467600Y-118746025D01*
X135417600Y-109746025D02*
X133517600Y-109746025D01*
X135417600Y-118746025D02*
X135417600Y-109746025D01*
%TO.C,D4*%
X240443175Y-111604375D02*
X242163175Y-111604375D01*
X240443175Y-117156375D02*
X240443175Y-111604375D01*
X241303175Y-108156375D02*
X241303175Y-111604375D01*
X241303175Y-111604375D02*
X242163175Y-112464375D01*
X241303175Y-117156375D02*
X241303175Y-120856375D01*
X242163175Y-111604375D02*
X242163175Y-117156375D01*
X242163175Y-117156375D02*
X240443175Y-117156375D01*
%TO.C,R23*%
X100792875Y-87578175D02*
X100792875Y-96578175D01*
X100792875Y-96578175D02*
X102692875Y-96578175D01*
X101742875Y-85728175D02*
X101742875Y-87578175D01*
X101742875Y-98428175D02*
X101742875Y-96578175D01*
X102692875Y-87578175D02*
X100792875Y-87578175D01*
X102692875Y-96578175D02*
X102692875Y-87578175D01*
%TO.C,R27*%
X149211625Y-109825400D02*
X149211625Y-118825400D01*
X149211625Y-118825400D02*
X151111625Y-118825400D01*
X150161625Y-107975400D02*
X150161625Y-109825400D01*
X150161625Y-120675400D02*
X150161625Y-118825400D01*
X151111625Y-109825400D02*
X149211625Y-109825400D01*
X151111625Y-118825400D02*
X151111625Y-109825400D01*
%TO.C,R34*%
X103307475Y-87717875D02*
X103307475Y-96717875D01*
X103307475Y-96717875D02*
X105207475Y-96717875D01*
X104257475Y-85867875D02*
X104257475Y-87717875D01*
X104257475Y-98567875D02*
X104257475Y-96717875D01*
X105207475Y-87717875D02*
X103307475Y-87717875D01*
X105207475Y-96717875D02*
X105207475Y-87717875D01*
%TO.C,U2*%
X169808525Y-83122500D02*
X199288525Y-83122500D01*
X169808525Y-97852500D02*
X169808525Y-83122500D01*
X199288525Y-83122500D02*
X200288525Y-84122500D01*
X200288525Y-84122500D02*
X200288525Y-97852500D01*
X200288525Y-97852500D02*
X169808525Y-97852500D01*
%TO.C,D9*%
X158137650Y-94373650D02*
X159857650Y-94373650D01*
X158137650Y-99925650D02*
X158137650Y-94373650D01*
X158997650Y-90925650D02*
X158997650Y-94373650D01*
X158997650Y-94373650D02*
X159857650Y-95233650D01*
X158997650Y-99925650D02*
X158997650Y-103625650D01*
X159857650Y-94373650D02*
X159857650Y-99925650D01*
X159857650Y-99925650D02*
X158137650Y-99925650D01*
%TO.C,R6*%
X166353450Y-109853975D02*
X166353450Y-118853975D01*
X166353450Y-118853975D02*
X168253450Y-118853975D01*
X167303450Y-108003975D02*
X167303450Y-109853975D01*
X167303450Y-120703975D02*
X167303450Y-118853975D01*
X168253450Y-109853975D02*
X166353450Y-109853975D01*
X168253450Y-118853975D02*
X168253450Y-109853975D01*
%TO.C,C4*%
X256926675Y-105624875D02*
X256926675Y-114624875D01*
X256926675Y-114624875D02*
X258826675Y-114624875D01*
X257876675Y-103774875D02*
X257876675Y-105624875D01*
X257876675Y-116474875D02*
X257876675Y-114624875D01*
X258826675Y-105624875D02*
X256926675Y-105624875D01*
X258826675Y-114624875D02*
X258826675Y-105624875D01*
%TO.C,D1*%
X136261900Y-83000800D02*
X137981900Y-83000800D01*
X136261900Y-88552800D02*
X136261900Y-83000800D01*
X137121900Y-79552800D02*
X137121900Y-83000800D01*
X137121900Y-83000800D02*
X137981900Y-83860800D01*
X137121900Y-88552800D02*
X137121900Y-92252800D01*
X137981900Y-83000800D02*
X137981900Y-88552800D01*
X137981900Y-88552800D02*
X136261900Y-88552800D01*
%TO.C,SK3*%
X102937350Y-69809075D02*
X104337350Y-69809075D01*
X102937350Y-78609075D02*
X102937350Y-69809075D01*
X102937350Y-78609075D02*
X113737350Y-78609075D01*
X104337350Y-65109075D02*
X112337350Y-65109075D01*
X104337350Y-69809075D02*
X104337350Y-65109075D01*
X112337350Y-69809075D02*
X112337350Y-65109075D01*
X112337350Y-69809075D02*
X113737350Y-69809075D01*
X113737350Y-69809075D02*
X113737350Y-78609075D01*
X238807750Y-94264725D02*
X238807750Y-103264725D01*
X238907750Y-103264725D02*
G75*
G02*
X238807750Y-103264725I-50000J0D01*
G01*
X238907750Y-103264725D02*
X238907750Y-94264725D01*
X238907750Y-94264725D02*
G75*
G03*
X238807750Y-94264725I-50000J0D01*
G01*
X238857750Y-103314725D02*
X240757750Y-103314725D01*
X240757750Y-103214725D02*
G75*
G02*
X240757750Y-103314725I0J-50000D01*
G01*
X240757750Y-103214725D02*
X238857750Y-103214725D01*
X238857750Y-103214725D02*
G75*
G03*
X238857750Y-103314725I0J-50000D01*
G01*
X239757750Y-92414725D02*
X239757750Y-94264725D01*
X239857750Y-94264725D02*
G75*
G02*
X239757750Y-94264725I-50000J0D01*
G01*
X239857750Y-94264725D02*
X239857750Y-92414725D01*
X239857750Y-92414725D02*
G75*
G03*
X239757750Y-92414725I-50000J0D01*
G01*
X239857750Y-105114725D02*
X239857750Y-103264725D01*
X239757750Y-103264725D02*
G75*
G02*
X239857750Y-103264725I50000J0D01*
G01*
X239757750Y-103264725D02*
X239757750Y-105114725D01*
X239757750Y-105114725D02*
G75*
G03*
X239857750Y-105114725I50000J0D01*
G01*
X240757750Y-94214725D02*
X238857750Y-94214725D01*
X238857750Y-94314725D02*
G75*
G02*
X238857750Y-94214725I0J50000D01*
G01*
X238857750Y-94314725D02*
X240757750Y-94314725D01*
X240757750Y-94314725D02*
G75*
G03*
X240757750Y-94214725I0J50000D01*
G01*
X240807750Y-103264725D02*
X240807750Y-94264725D01*
X240707750Y-94264725D02*
G75*
G02*
X240807750Y-94264725I50000J0D01*
G01*
X240707750Y-94264725D02*
X240707750Y-103264725D01*
X240707750Y-103264725D02*
G75*
G03*
X240807750Y-103264725I50000J0D01*
G01*
%TO.C,R30*%
X144874575Y-109787300D02*
X144874575Y-118787300D01*
X144874575Y-118787300D02*
X146774575Y-118787300D01*
X145824575Y-107937300D02*
X145824575Y-109787300D01*
X145824575Y-120637300D02*
X145824575Y-118787300D01*
X146774575Y-109787300D02*
X144874575Y-109787300D01*
X146774575Y-118787300D02*
X146774575Y-109787300D01*
%TO.C,R1*%
X232730000Y-110009550D02*
X232730000Y-119009550D01*
X232730000Y-119009550D02*
X234630000Y-119009550D01*
X233680000Y-108159550D02*
X233680000Y-110009550D01*
X233680000Y-120859550D02*
X233680000Y-119009550D01*
X234630000Y-110009550D02*
X232730000Y-110009550D01*
X234630000Y-119009550D02*
X234630000Y-110009550D01*
%TO.C,SK2*%
X117278825Y-69809075D02*
X118678825Y-69809075D01*
X117278825Y-78609075D02*
X117278825Y-69809075D01*
X117278825Y-78609075D02*
X128078825Y-78609075D01*
X118678825Y-65109075D02*
X126678825Y-65109075D01*
X118678825Y-69809075D02*
X118678825Y-65109075D01*
X126678825Y-69809075D02*
X126678825Y-65109075D01*
X126678825Y-69809075D02*
X128078825Y-69809075D01*
X128078825Y-69809075D02*
X128078825Y-78609075D01*
%TO.C,Q11*%
X239183325Y-98423650D02*
X239183325Y-102173650D01*
X239180940Y-98420832D02*
G75*
G02*
X243263325Y-100313650I1602385J-1892818D01*
G01*
X243263325Y-100313650D02*
G75*
G02*
X239190778Y-102214753I-2480000J0D01*
G01*
%TO.C,C1*%
X142003075Y-81395025D02*
X142003075Y-98395025D01*
X142003075Y-98395025D02*
X148503075Y-98395025D01*
X145253075Y-79895025D02*
X145253075Y-81395025D01*
X145253075Y-99895025D02*
X145253075Y-98395025D01*
X148503075Y-81395025D02*
X142003075Y-81395025D01*
X148503075Y-98395025D02*
X148503075Y-81395025D01*
%TO.C,R9*%
X153593125Y-109825400D02*
X153593125Y-118825400D01*
X153593125Y-118825400D02*
X155493125Y-118825400D01*
X154543125Y-107975400D02*
X154543125Y-109825400D01*
X154543125Y-120675400D02*
X154543125Y-118825400D01*
X155493125Y-109825400D02*
X153593125Y-109825400D01*
X155493125Y-118825400D02*
X155493125Y-109825400D01*
%TO.C,R31*%
X155641000Y-92775650D02*
X155641000Y-101775650D01*
X155641000Y-101775650D02*
X157541000Y-101775650D01*
X156591000Y-90925650D02*
X156591000Y-92775650D01*
X156591000Y-103625650D02*
X156591000Y-101775650D01*
X157541000Y-92775650D02*
X155641000Y-92775650D01*
X157541000Y-101775650D02*
X157541000Y-92775650D01*
%TO.C,R36*%
X173903600Y-109933350D02*
X173903600Y-118933350D01*
X173903600Y-118933350D02*
X175803600Y-118933350D01*
X174853600Y-108083350D02*
X174853600Y-109933350D01*
X174853600Y-120783350D02*
X174853600Y-118933350D01*
X175803600Y-109933350D02*
X173903600Y-109933350D01*
X175803600Y-118933350D02*
X175803600Y-109933350D01*
%TO.C,R5*%
X168814075Y-109955575D02*
X168814075Y-118955575D01*
X168814075Y-118955575D02*
X170714075Y-118955575D01*
X169764075Y-108105575D02*
X169764075Y-109955575D01*
X169764075Y-120805575D02*
X169764075Y-118955575D01*
X170714075Y-109955575D02*
X168814075Y-109955575D01*
X170714075Y-118955575D02*
X170714075Y-109955575D01*
%TO.C,R17*%
X115931275Y-109746025D02*
X115931275Y-118746025D01*
X115931275Y-118746025D02*
X117831275Y-118746025D01*
X116881275Y-107896025D02*
X116881275Y-109746025D01*
X116881275Y-120596025D02*
X116881275Y-118746025D01*
X117831275Y-109746025D02*
X115931275Y-109746025D01*
X117831275Y-118746025D02*
X117831275Y-109746025D01*
%TO.C,Q10*%
X235321275Y-98949750D02*
X235321275Y-95199750D01*
X231241275Y-97059750D02*
G75*
G02*
X235313822Y-95158647I2480000J0D01*
G01*
X235323660Y-98952568D02*
G75*
G02*
X231241275Y-97059750I-1602385J1892818D01*
G01*
%TO.C,R21*%
X95700175Y-87613100D02*
X95700175Y-96613100D01*
X95700175Y-96613100D02*
X97600175Y-96613100D01*
X96650175Y-85763100D02*
X96650175Y-87613100D01*
X96650175Y-98463100D02*
X96650175Y-96613100D01*
X97600175Y-87613100D02*
X95700175Y-87613100D01*
X97600175Y-96613100D02*
X97600175Y-87613100D01*
%TO.C,C2*%
X128639500Y-81276300D02*
X128639500Y-98276300D01*
X128639500Y-98276300D02*
X135139500Y-98276300D01*
X131889500Y-79776300D02*
X131889500Y-81276300D01*
X131889500Y-99776300D02*
X131889500Y-98276300D01*
X135139500Y-81276300D02*
X128639500Y-81276300D01*
X135139500Y-98276300D02*
X135139500Y-81276300D01*
%TO.C,R11*%
X120871575Y-109780950D02*
X120871575Y-118780950D01*
X120871575Y-118780950D02*
X122771575Y-118780950D01*
X121821575Y-107930950D02*
X121821575Y-109780950D01*
X121821575Y-120630950D02*
X121821575Y-118780950D01*
X122771575Y-109780950D02*
X120871575Y-109780950D01*
X122771575Y-118780950D02*
X122771575Y-109780950D01*
%TO.C,L1*%
X73798475Y-87732400D02*
X73798475Y-100532400D01*
X73798475Y-100532400D02*
X79598475Y-100532400D01*
X76698475Y-83972400D02*
X76698475Y-87732400D01*
X76698475Y-104292400D02*
X76698475Y-100532400D01*
X79598475Y-87732400D02*
X73798475Y-87732400D01*
X79598475Y-100532400D02*
X79598475Y-87732400D01*
%TO.C,D2*%
X139157500Y-83000800D02*
X140877500Y-83000800D01*
X139157500Y-88552800D02*
X139157500Y-83000800D01*
X140017500Y-79552800D02*
X140017500Y-83000800D01*
X140017500Y-83000800D02*
X140877500Y-83860800D01*
X140017500Y-88552800D02*
X140017500Y-92252800D01*
X140877500Y-83000800D02*
X140877500Y-88552800D01*
X140877500Y-88552800D02*
X139157500Y-88552800D01*
%TO.C,C7*%
X98217950Y-109701575D02*
X98217950Y-118701575D01*
X98217950Y-118701575D02*
X100117950Y-118701575D01*
X99167950Y-107851575D02*
X99167950Y-109701575D01*
X99167950Y-120551575D02*
X99167950Y-118701575D01*
X100117950Y-109701575D02*
X98217950Y-109701575D01*
X100117950Y-118701575D02*
X100117950Y-109701575D01*
%TO.C,SK1*%
X54526225Y-62556075D02*
X54526225Y-62956075D01*
X54526225Y-62956075D02*
X54526225Y-82156075D01*
X54526225Y-62956075D02*
X85376225Y-62956075D01*
X54526225Y-82156075D02*
X85376225Y-82156075D01*
X54951225Y-57556075D02*
X54951225Y-62556075D01*
X54951225Y-62556075D02*
X59951225Y-62556075D01*
X55851225Y-62956075D02*
X55851225Y-78936075D01*
X59051225Y-62956075D02*
X59051225Y-78936075D01*
X59951225Y-57556075D02*
X54951225Y-57556075D01*
X59951225Y-62556075D02*
X59951225Y-57556075D01*
X61801225Y-56386075D02*
X61801225Y-62556075D01*
X61801225Y-62556075D02*
X78101225Y-62556075D01*
X78101225Y-56386075D02*
X61801225Y-56386075D01*
X78101225Y-62556075D02*
X78101225Y-56386075D01*
X79951225Y-57556075D02*
X79951225Y-62556075D01*
X79951225Y-62556075D02*
X84951225Y-62556075D01*
X80851225Y-62956075D02*
X80851225Y-78936075D01*
X84051225Y-62956075D02*
X84051225Y-78936075D01*
X84951225Y-57556075D02*
X79951225Y-57556075D01*
X84951225Y-62556075D02*
X84951225Y-57556075D01*
X85376225Y-62556075D02*
X54526225Y-62556075D01*
X85376225Y-62956075D02*
X54526225Y-62956075D01*
X85376225Y-62956075D02*
X85376225Y-62556075D01*
X85376225Y-82156075D02*
X85376225Y-62956075D01*
X59051225Y-78936075D02*
G75*
G02*
X55851225Y-78936075I-1600000J0D01*
G01*
X84051225Y-78936075D02*
G75*
G02*
X80851225Y-78936075I-1600000J0D01*
G01*
%TO.C,X1*%
X245544850Y-93931400D02*
X244544850Y-93931400D01*
X245544850Y-98831400D02*
X244544850Y-98831400D01*
X246444850Y-90581400D02*
X246544850Y-90581400D01*
X246444850Y-102181400D02*
X246444850Y-90581400D01*
X246544850Y-90581400D02*
X246544850Y-102181400D01*
X246544850Y-90931400D02*
X246544850Y-101831400D01*
X246544850Y-93931400D02*
X245544850Y-93931400D01*
X246544850Y-98831400D02*
X245544850Y-98831400D01*
X246544850Y-101831400D02*
X259544850Y-101831400D01*
X246544850Y-102181400D02*
X246444850Y-102181400D01*
X259544850Y-90931400D02*
X246544850Y-90931400D01*
X259544850Y-101831400D02*
X259544850Y-90931400D01*
%TO.C,Q3*%
X119846525Y-90310575D02*
X119846525Y-86560575D01*
X115766525Y-88420575D02*
G75*
G02*
X119839072Y-86519472I2480000J0D01*
G01*
X119848910Y-90313393D02*
G75*
G02*
X115766525Y-88420575I-1602385J1892818D01*
G01*
%TO.C,R16*%
X110800475Y-109695225D02*
X110800475Y-118695225D01*
X110800475Y-118695225D02*
X112700475Y-118695225D01*
X111750475Y-107845225D02*
X111750475Y-109695225D01*
X111750475Y-120545225D02*
X111750475Y-118695225D01*
X112700475Y-109695225D02*
X110800475Y-109695225D01*
X112700475Y-118695225D02*
X112700475Y-109695225D01*
%TO.C,Q1*%
X128568250Y-90345500D02*
X128568250Y-86595500D01*
X124488250Y-88455500D02*
G75*
G02*
X128560797Y-86554397I2480000J0D01*
G01*
X128570635Y-90348318D02*
G75*
G02*
X124488250Y-88455500I-1602385J1892818D01*
G01*
%TO.C,D7*%
X68678850Y-111251950D02*
X70398850Y-111251950D01*
X68678850Y-116803950D02*
X68678850Y-111251950D01*
X69538850Y-107803950D02*
X69538850Y-111251950D01*
X69538850Y-111251950D02*
X70398850Y-112111950D01*
X69538850Y-116803950D02*
X69538850Y-120503950D01*
X70398850Y-111251950D02*
X70398850Y-116803950D01*
X70398850Y-116803950D02*
X68678850Y-116803950D01*
X254228725Y-105694725D02*
X254228725Y-114694725D01*
X254328725Y-114694725D02*
G75*
G02*
X254228725Y-114694725I-50000J0D01*
G01*
X254328725Y-114694725D02*
X254328725Y-105694725D01*
X254328725Y-105694725D02*
G75*
G03*
X254228725Y-105694725I-50000J0D01*
G01*
X254278725Y-114744725D02*
X256178725Y-114744725D01*
X256178725Y-114644725D02*
G75*
G02*
X256178725Y-114744725I0J-50000D01*
G01*
X256178725Y-114644725D02*
X254278725Y-114644725D01*
X254278725Y-114644725D02*
G75*
G03*
X254278725Y-114744725I0J-50000D01*
G01*
X255178725Y-103844725D02*
X255178725Y-105694725D01*
X255278725Y-105694725D02*
G75*
G02*
X255178725Y-105694725I-50000J0D01*
G01*
X255278725Y-105694725D02*
X255278725Y-103844725D01*
X255278725Y-103844725D02*
G75*
G03*
X255178725Y-103844725I-50000J0D01*
G01*
X255278725Y-116544725D02*
X255278725Y-114694725D01*
X255178725Y-114694725D02*
G75*
G02*
X255278725Y-114694725I50000J0D01*
G01*
X255178725Y-114694725D02*
X255178725Y-116544725D01*
X255178725Y-116544725D02*
G75*
G03*
X255278725Y-116544725I50000J0D01*
G01*
X256178725Y-105644725D02*
X254278725Y-105644725D01*
X254278725Y-105744725D02*
G75*
G02*
X254278725Y-105644725I0J50000D01*
G01*
X254278725Y-105744725D02*
X256178725Y-105744725D01*
X256178725Y-105744725D02*
G75*
G03*
X256178725Y-105644725I0J50000D01*
G01*
X256228725Y-114694725D02*
X256228725Y-105694725D01*
X256128725Y-105694725D02*
G75*
G02*
X256228725Y-105694725I50000J0D01*
G01*
X256128725Y-105694725D02*
X256128725Y-114694725D01*
X256128725Y-114694725D02*
G75*
G03*
X256228725Y-114694725I50000J0D01*
G01*
%TO.C,U3*%
X212791675Y-83607275D02*
X229571675Y-83607275D01*
X212791675Y-89957275D02*
X212791675Y-83607275D01*
X229571675Y-83607275D02*
X230571675Y-84607275D01*
X230571675Y-84607275D02*
X230571675Y-89957275D01*
X230571675Y-89957275D02*
X212791675Y-89957275D01*
%TO.C,R25*%
X78809175Y-109746025D02*
X78809175Y-118746025D01*
X78809175Y-118746025D02*
X80709175Y-118746025D01*
X79759175Y-107896025D02*
X79759175Y-109746025D01*
X79759175Y-120596025D02*
X79759175Y-118746025D01*
X80709175Y-109746025D02*
X78809175Y-109746025D01*
X80709175Y-118746025D02*
X80709175Y-109746025D01*
%TO.C,D11*%
X89544950Y-89498025D02*
X91264950Y-89498025D01*
X89544950Y-95050025D02*
X89544950Y-89498025D01*
X90404950Y-89498025D02*
X90404950Y-85798025D01*
X90404950Y-95050025D02*
X89544950Y-94190025D01*
X90404950Y-98498025D02*
X90404950Y-95050025D01*
X91264950Y-89498025D02*
X91264950Y-95050025D01*
X91264950Y-95050025D02*
X89544950Y-95050025D01*
%TO.C,R29*%
X73678375Y-109717450D02*
X73678375Y-118717450D01*
X73678375Y-118717450D02*
X75578375Y-118717450D01*
X74628375Y-107867450D02*
X74628375Y-109717450D01*
X74628375Y-120567450D02*
X74628375Y-118717450D01*
X75578375Y-109717450D02*
X73678375Y-109717450D01*
X75578375Y-118717450D02*
X75578375Y-109717450D01*
%TO.C,R26*%
X125992850Y-109596800D02*
X125992850Y-118596800D01*
X125992850Y-118596800D02*
X127892850Y-118596800D01*
X126942850Y-107746800D02*
X126942850Y-109596800D01*
X126942850Y-120446800D02*
X126942850Y-118596800D01*
X127892850Y-109596800D02*
X125992850Y-109596800D01*
X127892850Y-118596800D02*
X127892850Y-109596800D01*
%TO.C,D6*%
X66059475Y-111207500D02*
X67779475Y-111207500D01*
X66059475Y-116759500D02*
X66059475Y-111207500D01*
X66919475Y-107759500D02*
X66919475Y-111207500D01*
X66919475Y-111207500D02*
X67779475Y-112067500D01*
X66919475Y-116759500D02*
X66919475Y-120459500D01*
X67779475Y-111207500D02*
X67779475Y-116759500D01*
X67779475Y-116759500D02*
X66059475Y-116759500D01*
%TO.C,R19*%
X113378575Y-109761900D02*
X113378575Y-118761900D01*
X113378575Y-118761900D02*
X115278575Y-118761900D01*
X114328575Y-107911900D02*
X114328575Y-109761900D01*
X114328575Y-120611900D02*
X114328575Y-118761900D01*
X115278575Y-109761900D02*
X113378575Y-109761900D01*
X115278575Y-118761900D02*
X115278575Y-109761900D01*
%TO.C,Q2*%
X128603175Y-98022650D02*
X128603175Y-94272650D01*
X124523175Y-96132650D02*
G75*
G02*
X128595722Y-94231547I2480000J0D01*
G01*
X128605560Y-98025468D02*
G75*
G02*
X124523175Y-96132650I-1602385J1892818D01*
G01*
%TO.C,R35*%
X251751425Y-105647100D02*
X251751425Y-114647100D01*
X251751425Y-114647100D02*
X253651425Y-114647100D01*
X252701425Y-103797100D02*
X252701425Y-105647100D01*
X252701425Y-116497100D02*
X252701425Y-114647100D01*
X253651425Y-105647100D02*
X251751425Y-105647100D01*
X253651425Y-114647100D02*
X253651425Y-105647100D01*
%TO.C,R20*%
X108311275Y-109746025D02*
X108311275Y-118746025D01*
X108311275Y-118746025D02*
X110211275Y-118746025D01*
X109261275Y-107896025D02*
X109261275Y-109746025D01*
X109261275Y-120596025D02*
X109261275Y-118746025D01*
X110211275Y-109746025D02*
X108311275Y-109746025D01*
X110211275Y-118746025D02*
X110211275Y-109746025D01*
%TO.C,C6*%
X205118900Y-83277800D02*
X205118900Y-100277800D01*
X205118900Y-100277800D02*
X211618900Y-100277800D01*
X208368900Y-81777800D02*
X208368900Y-83277800D01*
X208368900Y-101777800D02*
X208368900Y-100277800D01*
X211618900Y-83277800D02*
X205118900Y-83277800D01*
X211618900Y-100277800D02*
X211618900Y-83277800D01*
%TO.C,R4*%
X161257575Y-109847625D02*
X161257575Y-118847625D01*
X161257575Y-118847625D02*
X163157575Y-118847625D01*
X162207575Y-107997625D02*
X162207575Y-109847625D01*
X162207575Y-120697625D02*
X162207575Y-118847625D01*
X163157575Y-109847625D02*
X161257575Y-109847625D01*
X163157575Y-118847625D02*
X163157575Y-109847625D01*
%TO.C,Q4*%
X119776675Y-97882950D02*
X119776675Y-94132950D01*
X115696675Y-95992950D02*
G75*
G02*
X119769222Y-94091847I2480000J0D01*
G01*
X119779060Y-97885768D02*
G75*
G02*
X115696675Y-95992950I-1602385J1892818D01*
G01*
%TD*%
X238612750Y-91319725D02*
X241002750Y-106209725D01*
X238612750Y-106209725D02*
X241002750Y-91319725D01*
X254033725Y-102749725D02*
X256423725Y-117639725D01*
X254033725Y-117639725D02*
X256423725Y-102749725D01*
M02*
