M48
METRIC
T1C0.400
T2C0.750
T3C0.800
T4C1.000
T5C1.100
T6C1.200
T7C1.500
T8C3.200
%
G90
G05
T1
X52.861Y-97.863
X53.083Y-95.431
X59.188Y-97.838
X61.681Y-108.718
X61.792Y-101.016
X61.792Y-111.061
X61.849Y-106.766
X67.939Y-115.484
X75.581Y-115.529
X77.089Y-112.849
X77.813Y-91.526
X78.318Y-109.611
X79.658Y-111.566
X81.109Y-113.855
X91.659Y-87.636
X100.39Y-90.859
X102.832Y-95.152
X106.69Y-89.522
X107.004Y-85.928
X107.925Y-102.092
X109.779Y-80.131
X114.344Y-104.848
X115.233Y-118.599
X117.415Y-102.267
X118.008Y-109.88
X120.52Y-117.535
X121.822Y-104.848
X121.882Y-102.372
X123.076Y-118.774
X123.73Y-93.335
X125.736Y-116.335
X125.759Y-83.864
X126.876Y-111.252
X128.076Y-117.561
X130.654Y-117.45
X134.166Y-84.715
X134.341Y-95.45
X139.417Y-115.316
X139.503Y-111.122
X141.383Y-120.65
X143.078Y-122.472
X143.389Y-89.313
X149.692Y-125.733
X152.067Y-125.698
X152.276Y-81.912
X154.089Y-99.39
X156.601Y-93.704
X157.077Y-106.067
X160.474Y-92.796
X161.871Y-99.355
X162.322Y-116.243
X163.627Y-111.166
X164.927Y-87.416
X165.053Y-75.799
X166.592Y-100.492
X167.453Y-116.697
X168.513Y-101.155
X168.548Y-93.583
X169.145Y-87.862
X171.186Y-102.546
X172.39Y-94.91
X173.612Y-87.233
X174.952Y-118.11
X175.057Y-102.337
X175.057Y-125.139
X177.397Y-117.529
X179.943Y-116.961
X179.975Y-81.055
X181.213Y-92.938
X182.509Y-79.886
X182.683Y-86.604
X183.763Y-89.116
X183.88Y-101.181
X185.28Y-96.002
X186.319Y-87.319
X186.398Y-103.254
X186.411Y-79.667
X187.566Y-96.129
X188.852Y-100.632
X188.928Y-79.591
X190.103Y-94.945
X191.132Y-79.648
X191.399Y-92.983
X192.713Y-96.136
X193.821Y-80.318
X195.209Y-89.151
X196.586Y-93.066
X197.755Y-89.116
X199.006Y-77.74
X199.063Y-95.577
X199.587Y-86.751
X200.955Y-115.938
X202.927Y-103.562
X204.06Y-117.472
X204.121Y-85.414
X204.156Y-82.934
X206.683Y-116.173
X208.369Y-94.307
X210.55Y-104.042
X213.049Y-112.976
X213.084Y-124.806
X215.459Y-78.483
X215.678Y-114.843
X216.792Y-111.721
X218.04Y-79.007
X218.078Y-97.361
X219.862Y-78.416
X220.656Y-92.478
X220.669Y-118.888
X221.945Y-112.595
X222.952Y-80.886
X223.19Y-75.882
X223.901Y-112.665
X225.593Y-80.22
X226.006Y-112.062
X226.324Y-75.924
X228.155Y-113.081
X228.259Y-96.106
X228.378Y-119.075
X228.868Y-75.808
X229.587Y-115.805
X230.746Y-75.905
X232.058Y-90.418
X232.131Y-109.576
X232.134Y-83.166
X232.658Y-122.92
X232.801Y-84.868
X233.397Y-75.749
X233.429Y-105.832
X233.486Y-86.728
X234.074Y-111.843
X234.632Y-116.399
X234.683Y-88.602
X236.02Y-86.503
X236.671Y-105.023
X237.788Y-114.402
X238.23Y-97.088
X239.112Y-77.921
X239.249Y-79.791
X240.214Y-113.243
X241.106Y-76.629
X241.135Y-96.022
X242.287Y-93.51
X243.694Y-86.56
X253.121Y-108.734
T2
X66.919Y-107.759
X66.919Y-120.459
X69.539Y-107.804
X69.539Y-120.504
X90.405Y-85.798
X90.405Y-98.498
X94.139Y-85.833
X94.139Y-98.533
X137.122Y-79.553
X137.122Y-92.253
X140.017Y-79.553
X140.017Y-92.253
X158.998Y-90.926
X158.998Y-103.626
X161.617Y-90.926
X161.617Y-103.626
X238.747Y-108.179
X238.747Y-120.879
X241.303Y-108.156
X241.303Y-120.856
T3
X72.031Y-107.804
X72.031Y-120.504
X74.628Y-107.867
X74.628Y-120.567
X77.099Y-107.81
X77.099Y-120.51
X79.759Y-107.896
X79.759Y-120.596
X96.65Y-85.763
X96.65Y-98.463
X96.679Y-107.829
X96.679Y-120.529
X99.057Y-85.763
X99.057Y-98.463
X99.168Y-107.852
X99.168Y-120.552
X101.66Y-107.826
X101.66Y-120.526
X101.743Y-85.728
X101.743Y-98.428
X104.194Y-107.912
X104.194Y-120.612
X104.257Y-85.868
X104.257Y-98.568
X106.75Y-107.867
X106.75Y-120.567
X109.261Y-107.896
X109.261Y-120.596
X111.163Y-93.453
X111.163Y-95.993
X111.163Y-98.533
X111.233Y-85.846
X111.233Y-88.386
X111.233Y-90.926
X111.75Y-107.845
X111.75Y-120.545
X114.329Y-107.912
X114.329Y-120.612
X116.881Y-107.896
X116.881Y-120.596
X118.177Y-93.453
X118.177Y-95.993
X118.177Y-98.533
X118.247Y-85.881
X118.247Y-88.421
X118.247Y-90.961
X119.351Y-107.89
X119.351Y-120.59
X121.822Y-107.931
X121.822Y-120.631
X122.574Y-85.915
X122.574Y-88.456
X122.574Y-90.995
X124.377Y-107.915
X124.377Y-120.615
X126.943Y-107.747
X126.943Y-120.447
X126.968Y-85.915
X126.968Y-88.456
X126.968Y-90.995
X127.003Y-93.593
X127.003Y-96.133
X127.003Y-98.673
X129.464Y-107.852
X129.464Y-120.552
X131.889Y-79.776
X131.889Y-99.776
X134.468Y-107.896
X134.468Y-120.596
X145.253Y-79.895
X145.253Y-99.895
X145.825Y-107.937
X145.825Y-120.637
X150.162Y-107.975
X150.162Y-120.675
X154.01Y-90.926
X154.01Y-103.626
X154.543Y-107.975
X154.543Y-120.675
X156.591Y-90.926
X156.591Y-103.626
X157.077Y-107.998
X157.077Y-120.698
X162.208Y-107.998
X162.208Y-120.698
X164.719Y-108.061
X164.719Y-120.761
X167.303Y-108.004
X167.303Y-120.704
X169.764Y-108.106
X169.764Y-120.806
X171.079Y-82.867
X171.079Y-98.108
X172.32Y-107.982
X172.32Y-120.682
X173.619Y-82.867
X173.619Y-98.108
X174.854Y-108.083
X174.854Y-120.783
X176.159Y-82.867
X176.159Y-98.108
X178.699Y-82.867
X178.699Y-98.108
X181.232Y-105.747
X181.232Y-120.987
X181.239Y-82.867
X181.239Y-98.108
X183.772Y-105.747
X183.772Y-120.987
X183.779Y-82.867
X183.779Y-98.108
X186.312Y-105.747
X186.312Y-120.987
X186.319Y-82.867
X186.319Y-98.108
X188.852Y-105.747
X188.852Y-120.987
X188.859Y-82.867
X188.859Y-98.108
X191.392Y-105.747
X191.392Y-120.987
X191.399Y-82.867
X191.399Y-98.108
X193.932Y-105.747
X193.932Y-120.987
X193.939Y-82.867
X193.939Y-98.108
X196.472Y-105.747
X196.472Y-120.987
X196.479Y-82.867
X196.479Y-98.108
X199.012Y-105.747
X199.012Y-120.987
X199.019Y-82.867
X199.019Y-98.108
X201.552Y-105.747
X201.552Y-120.987
X204.092Y-105.747
X204.092Y-120.987
X206.632Y-105.747
X206.632Y-120.987
X208.369Y-81.778
X208.369Y-101.778
X209.172Y-105.747
X209.172Y-120.987
X211.712Y-105.747
X211.712Y-120.987
X213.992Y-94.345
X213.992Y-101.965
X214.062Y-82.972
X214.062Y-90.592
X214.252Y-105.747
X214.252Y-120.987
X216.532Y-94.345
X216.532Y-101.965
X216.602Y-82.972
X216.602Y-90.592
X216.792Y-105.747
X216.792Y-120.987
X219.072Y-94.345
X219.072Y-101.965
X219.142Y-82.972
X219.142Y-90.592
X219.332Y-105.747
X219.332Y-120.987
X221.612Y-94.345
X221.612Y-101.965
X221.682Y-82.972
X221.682Y-90.592
X221.872Y-105.747
X221.872Y-120.987
X224.152Y-94.345
X224.152Y-101.965
X224.222Y-82.972
X224.222Y-90.592
X224.412Y-105.747
X224.412Y-120.987
X226.692Y-94.345
X226.692Y-101.965
X226.762Y-82.972
X226.762Y-90.592
X226.952Y-105.747
X226.952Y-120.987
X229.232Y-94.345
X229.232Y-101.965
X229.302Y-82.972
X229.302Y-90.592
X229.492Y-105.747
X229.492Y-120.987
X233.68Y-108.16
X233.68Y-120.86
X233.721Y-94.52
X233.721Y-97.06
X233.721Y-99.6
X236.255Y-108.318
X236.255Y-120.818
X239.808Y-92.415
X239.808Y-105.115
X240.783Y-97.774
X240.783Y-100.314
X240.783Y-102.854
X244.545Y-93.931
X244.545Y-98.831
X252.701Y-103.797
X252.701Y-116.497
X255.621Y-103.805
X255.621Y-116.505
X257.877Y-103.775
X257.877Y-116.475
X260.347Y-103.845
X260.347Y-116.545
T4
X64.411Y-80.356
X65.796Y-77.516
X67.181Y-80.356
X68.566Y-77.516
X69.951Y-80.356
X71.336Y-77.516
X72.721Y-80.356
X74.106Y-77.516
X75.491Y-80.356
T5
X76.698Y-83.972
X76.698Y-104.292
T6
X166.075Y-68.809
X166.075Y-73.889
X168.615Y-68.809
X168.615Y-73.889
X171.155Y-68.809
X171.155Y-73.889
X173.695Y-68.809
X173.695Y-73.889
X178.775Y-68.809
X178.775Y-73.889
X181.315Y-68.809
X181.315Y-73.889
X183.855Y-68.809
X183.855Y-73.889
X186.395Y-68.809
X186.395Y-73.889
X188.935Y-68.809
X188.935Y-73.889
X191.475Y-68.809
X191.475Y-73.889
X194.015Y-68.809
X194.015Y-73.889
X196.555Y-68.809
X196.555Y-73.889
X199.095Y-68.809
X199.095Y-73.889
X201.635Y-68.809
X201.635Y-73.889
X204.175Y-68.809
X204.175Y-73.889
X206.715Y-68.809
X206.715Y-73.889
X209.255Y-68.809
X209.255Y-73.889
X211.795Y-68.809
X211.795Y-73.889
X214.335Y-68.809
X214.335Y-73.889
X216.875Y-68.809
X216.875Y-73.889
X219.415Y-68.809
X219.415Y-73.889
X221.955Y-68.809
X221.955Y-73.889
X224.495Y-68.809
X224.495Y-73.889
X227.035Y-68.809
X227.035Y-73.889
X229.575Y-68.809
X229.575Y-73.889
X232.115Y-68.809
X232.115Y-73.889
X234.655Y-68.809
X234.655Y-73.889
T8
X57.451Y-78.936
X82.451Y-78.936
T7
X103.637Y-71.809G85X103.637Y-72.809
G05
X103.637Y-75.609G85X103.637Y-76.609
G05
X113.037Y-75.609G85X113.037Y-76.609
G05
X117.979Y-71.809G85X117.979Y-72.809
G05
X117.979Y-75.609G85X117.979Y-76.609
G05
X127.379Y-75.609G85X127.379Y-76.609
G05
T0
M30
